KumbhSans-Regular.ufo
<glyph name="exclam" format="1">
  <advance width="462"/>
  <unicode hex="0021"/>
  <outline>
    <contour>
      <point x="267" y="401" type="line"/>
      <point x="300" y="1500" type="line"/>
      <point x="162" y="1500" type="line"/>
      <point x="195" y="401" type="line"/>
    </contour>
    <contour>
      <point x="231" y="-20" type="curve" smooth="yes"/>
      <point x="287.805" y="-20"/>
      <point x="332.775" y="24.9704"/>
      <point x="332.775" y="80.5917" type="curve" smooth="yes"/>
      <point x="332.775" y="136.213"/>
      <point x="287.805" y="180"/>
      <point x="231" y="180" type="curve" smooth="yes"/>
      <point x="174.195" y="180"/>
      <point x="129.225" y="136.213"/>
      <point x="129.225" y="80.5917" type="curve" smooth="yes"/>
      <point x="129.225" y="24.9704"/>
      <point x="174.195" y="-20"/>
    </contour>
  </outline>
</glyph>
<glyph name="quotedbl" format="1">
  <advance width="784"/>
  <unicode hex="0022"/>
  <outline>
    <contour>
      <point x="279" y="1085" type="line"/>
      <point x="296" y="1520" type="line"/>
      <point x="165" y="1520" type="line"/>
      <point x="182" y="1085" type="line"/>
    </contour>
    <contour>
      <point x="602" y="1085" type="line"/>
      <point x="619" y="1520" type="line"/>
      <point x="488" y="1520" type="line"/>
      <point x="505" y="1085" type="line"/>
    </contour>
  </outline>
</glyph>
<glyph name="numbersign" format="1">
  <unicode hex="0023"/>
  <advance width="1452" height="1660"/>
  <outline>
    <contour>
      <point x="404" y="463" type="line"/>
      <point x="322" y="0" type="line" name="ab01"/>
      <point x="454" y="0" type="line"/>
      <point x="536" y="463" type="line"/>
      <point x="842" y="463" type="line"/>
      <point x="760" y="0" type="line" name="ab02"/>
      <point x="892" y="0" type="line"/>
      <point x="974" y="463" type="line"/>
      <point x="1208" y="463" type="line"/>
      <point x="1222" y="583" type="line"/>
      <point x="995" y="583" type="line"/>
      <point x="1050" y="897" type="line"/>
      <point x="1278" y="897" type="line"/>
      <point x="1292" y="1017" type="line"/>
      <point x="1072" y="1017" type="line"/>
      <point x="1157" y="1500" type="line" name="at02"/>
      <point x="1025" y="1500" type="line"/>
      <point x="940" y="1017" type="line"/>
      <point x="634" y="1017" type="line"/>
      <point x="719" y="1500" type="line" name="at01"/>
      <point x="587" y="1500" type="line"/>
      <point x="502" y="1017" type="line"/>
      <point x="244" y="1017" type="line"/>
      <point x="230" y="897" type="line"/>
      <point x="480" y="897" type="line"/>
      <point x="425" y="583" type="line"/>
      <point x="174" y="583" type="line"/>
      <point x="160" y="463" type="line"/>
    </contour>
    <contour>
      <point x="557" y="583" type="line"/>
      <point x="612" y="897" type="line"/>
      <point x="918" y="897" type="line"/>
      <point x="863" y="583" type="line"/>
    </contour>
  </outline>
</glyph>
<glyph name="dollar" format="1">
  <unicode hex="0024"/>
  <advance width="1205" height="1660"/>
  <outline>
    <contour>
      <point x="160" y="208" type="line"/>
      <point x="270" y="126"/>
      <point x="401" y="76"/>
      <point x="539" y="63" type="curve"/>
      <point x="539" y="-119" type="line" name="dv01"/>
      <point x="679" y="-119" type="line" name="sh01"/>
      <point x="679" y="63" type="line"/>
      <point x="892" y="89"/>
      <point x="1045" y="245"/>
      <point x="1045" y="449" type="curve" smooth="yes" name="dh05"/>
      <point x="1045" y="674"/>
      <point x="858" y="762"/>
      <point x="679" y="836" type="curve" smooth="yes"/>
      <point x="671" y="840"/>
      <point x="664" y="843"/>
      <point x="656" y="846" type="curve" smooth="yes"/>
      <point x="615" y="863"/>
      <point x="575" y="879"/>
      <point x="539" y="897" type="curve" smooth="yes"/>
      <point x="440" y="945"/>
      <point x="366" y="1002"/>
      <point x="366" y="1098" type="curve" smooth="yes" name="dh02"/>
      <point x="366" y="1232"/>
      <point x="498" y="1287"/>
      <point x="613" y="1287" type="curve" smooth="yes" name="dv07"/>
      <point x="717" y="1287"/>
      <point x="812" y="1260"/>
      <point x="903" y="1209" type="curve"/>
      <point x="982" y="1350" type="line"/>
      <point x="881" y="1402"/>
      <point x="778" y="1430"/>
      <point x="679" y="1439" type="curve"/>
      <point x="679" y="1617" type="line"/>
      <point x="539" y="1617" type="line" name="dv06"/>
      <point x="539" y="1436" type="line"/>
      <point x="333" y="1410"/>
      <point x="196" y="1282"/>
      <point x="196" y="1093" type="curve" smooth="yes" name="dh01"/>
      <point x="196" y="881"/>
      <point x="368" y="795"/>
      <point x="539" y="723" type="curve" smooth="yes"/>
      <point x="550" y="718"/>
      <point x="561" y="714"/>
      <point x="572" y="709" type="curve" smooth="yes"/>
      <point x="609" y="694"/>
      <point x="645" y="678"/>
      <point x="679" y="662" type="curve" smooth="yes"/>
      <point x="790" y="610"/>
      <point x="875" y="547"/>
      <point x="875" y="435" type="curve" smooth="yes" name="dh04"/>
      <point x="875" y="291"/>
      <point x="746" y="211"/>
      <point x="615" y="211" type="curve" smooth="yes" name="dv04"/>
      <point x="477" y="211"/>
      <point x="345" y="269"/>
      <point x="243" y="361" type="curve"/>
    </contour>
  </outline>
</glyph>
<glyph name="ampersand" format="1">
  <unicode hex="0026"/>
  <advance width="1589" height="1640.83"/>
  <outline>
    <contour>
      <point x="160" y="415" type="curve" smooth="yes" name="dh01"/>
      <point x="160" y="156"/>
      <point x="392" y="-20"/>
      <point x="647" y="-20" type="curve" smooth="yes" name="dv01"/>
      <point x="812" y="-20"/>
      <point x="950" y="54"/>
      <point x="1066" y="169" type="curve"/>
      <point x="1167" y="89"/>
      <point x="1262" y="19"/>
      <point x="1341" y="-35" type="curve"/>
      <point x="1429" y="91" type="line"/>
      <point x="1354" y="143"/>
      <point x="1262" y="210"/>
      <point x="1165" y="287" type="curve"/>
      <point x="1264" y="423"/>
      <point x="1341" y="590"/>
      <point x="1397" y="758" type="curve"/>
      <point x="1246" y="807" type="line"/>
      <point x="1198" y="651"/>
      <point x="1131" y="502"/>
      <point x="1047" y="384" type="curve"/>
      <point x="903" y="506"/>
      <point x="759" y="645"/>
      <point x="649" y="781" type="curve"/>
      <point x="825" y="889"/>
      <point x="955" y="1028"/>
      <point x="955" y="1208" type="curve" smooth="yes" name="dh04"/>
      <point x="955" y="1387"/>
      <point x="827" y="1520"/>
      <point x="637" y="1520" type="curve" smooth="yes" name="at01"/>
      <point x="441" y="1520"/>
      <point x="295" y="1380"/>
      <point x="295" y="1188" type="curve" smooth="yes" name="ih01"/>
      <point x="295" y="1072"/>
      <point x="348" y="946"/>
      <point x="431" y="819" type="curve"/>
      <point x="285" y="724"/>
      <point x="160" y="605"/>
    </contour>
    <contour>
      <point x="947" y="267" type="curve"/>
      <point x="860" y="184"/>
      <point x="760" y="133"/>
      <point x="649" y="133" type="curve" smooth="yes" name="dv02"/>
      <point x="483" y="133"/>
      <point x="338" y="247"/>
      <point x="338" y="420" type="curve" smooth="yes" name="dh02"/>
      <point x="338" y="544"/>
      <point x="413" y="631"/>
      <point x="516" y="701" type="curve"/>
      <point x="637" y="548"/>
      <point x="793" y="398"/>
    </contour>
    <contour>
      <point x="462" y="1179" type="curve" smooth="yes" name="sh01"/>
      <point x="462" y="1292"/>
      <point x="552" y="1372"/>
      <point x="643" y="1372" type="curve" smooth="yes" name="sv01"/>
      <point x="726" y="1372"/>
      <point x="796" y="1303"/>
      <point x="796" y="1197" type="curve" smooth="yes" name="dh03"/>
      <point x="796" y="1066"/>
      <point x="689" y="973"/>
      <point x="565" y="899" type="curve"/>
      <point x="501" y="998"/>
      <point x="462" y="1094"/>
    </contour>
  </outline>
</glyph>
<glyph name="quotesingle" format="1">
  <unicode hex="0027"/>
  <advance width="365" height="1660"/>
  <outline>
    <contour>
      <point x="100" y="1520" type="line" name="at01"/>
      <point x="265" y="1520" type="line"/>
      <point x="236" y="1085" type="line"/>
      <point x="129" y="1085" type="line"/>
    </contour>
  </outline>
</glyph>
<glyph name="parenleft" format="1">
  <unicode hex="0028"/>
  <advance width="660" height="1660"/>
  <outline>
    <contour>
      <point x="580" y="-289" type="line" name="av02"/>
      <point x="389" y="-39"/>
      <point x="269" y="280"/>
      <point x="269" y="626" type="curve" smooth="yes" name="dh02"/>
      <point x="269" y="972"/>
      <point x="388" y="1290"/>
      <point x="580" y="1540" type="curve" name="av01"/>
      <point x="420" y="1540" type="line"/>
      <point x="231" y="1284"/>
      <point x="119" y="968"/>
      <point x="119" y="625" type="curve" smooth="yes" name="dh01"/>
      <point x="119" y="282"/>
      <point x="231" y="-34"/>
      <point x="420" y="-289" type="curve"/>
    </contour>
  </outline>
</glyph>
<glyph name="parenright" format="1">
  <unicode hex="0029"/>
  <advance width="660" height="1660"/>
  <outline>
    <contour>
      <point x="80" y="-289" type="line" name="av02"/>
      <point x="271" y="-39"/>
      <point x="391" y="280"/>
      <point x="391" y="626" type="curve" smooth="yes" name="dh01"/>
      <point x="391" y="972"/>
      <point x="272" y="1290"/>
      <point x="80" y="1540" type="curve" name="av01"/>
      <point x="240" y="1540" type="line"/>
      <point x="429" y="1284"/>
      <point x="541" y="968"/>
      <point x="541" y="625" type="curve" smooth="yes" name="dh02"/>
      <point x="541" y="282"/>
      <point x="429" y="-34"/>
      <point x="240" y="-289" type="curve"/>
    </contour>
  </outline>
</glyph>
<glyph name="asterisk" format="2">
  <advance width="1039"/>
  <unicode hex="002A"/>
  <outline>
    <contour>
      <point x="839" y="763" type="line"/>
      <point x="587" y="1065" type="line"/>
      <point x="964" y="1157" type="line"/>
      <point x="920" y="1296" type="line"/>
      <point x="562" y="1146" type="line"/>
      <point x="592" y="1540" type="line"/>
      <point x="448" y="1540" type="line"/>
      <point x="477" y="1146" type="line"/>
      <point x="120" y="1296" type="line"/>
      <point x="75" y="1157" type="line"/>
      <point x="450" y="1064" type="line"/>
      <point x="199" y="763" type="line"/>
      <point x="317" y="676" type="line"/>
      <point x="520" y="1013" type="line"/>
      <point x="722" y="676" type="line"/>
    </contour>
  </outline>
</glyph>
<glyph name="plus" format="1">
  <unicode hex="002B"/>
  <advance width="1140" height="1660"/>
  <outline>
    <contour>
      <point x="640" y="445" type="line"/>
      <point x="640" y="100" type="line" name="dv01"/>
      <point x="500" y="100" type="line"/>
      <point x="500" y="445" type="line"/>
      <point x="160" y="445" type="line"/>
      <point x="160" y="575" type="line" name="sh02"/>
      <point x="500" y="575" type="line"/>
      <point x="500" y="920" type="line" name="sh01"/>
      <point x="640" y="920" type="line" name="sv02"/>
      <point x="640" y="575" type="line"/>
      <point x="980" y="575" type="line" name="dv02"/>
      <point x="980" y="445" type="line" name="sv01"/>
    </contour>
  </outline>
</glyph>
<glyph name="hyphen" format="1">
  <unicode hex="002D"/>
  <advance width="1120" height="1660"/>
  <outline>
    <contour>
      <point x="160" y="440" type="line" name="dv01"/>
      <point x="160" y="570" type="line" name="dv02"/>
      <point x="960" y="570" type="line"/>
      <point x="960" y="440" type="line"/>
    </contour>
  </outline>
</glyph>
<glyph name="period" format="1">
  <unicode hex="002E"/>
  <advance width="550" height="1660"/>
  <outline>
    <contour>
      <point x="160" y="95" type="curve" smooth="yes" name="dh04"/>
      <point x="160" y="161"/>
      <point x="209" y="210"/>
      <point x="274" y="210" type="curve" smooth="yes" name="dv04"/>
      <point x="340" y="210"/>
      <point x="390" y="161"/>
      <point x="390" y="95" type="curve" smooth="yes" name="dh05"/>
      <point x="390" y="29"/>
      <point x="340" y="-20"/>
      <point x="274" y="-20" type="curve" smooth="yes" name="dv05"/>
      <point x="209" y="-20"/>
      <point x="160" y="29"/>
    </contour>
  </outline>
</glyph>
<glyph name="slash" format="1">
  <unicode hex="002F"/>
  <advance width="789" height="1660"/>
  <outline>
    <contour>
      <point x="789" y="1520" type="line" name="at01"/>
      <point x="152" y="-20" type="line" name="av01"/>
      <point x="0" y="-20" type="line"/>
      <point x="637" y="1520" type="line"/>
    </contour>
  </outline>
</glyph>
<glyph name="zero" format="1">
  <advance width="1186"/>
  <unicode hex="0030"/>
  <outline>
    <contour>
      <point x="593" y="-30" type="curve" smooth="yes"/>
      <point x="911" y="-30"/>
      <point x="1101" y="253"/>
      <point x="1101" y="751" type="curve" smooth="yes"/>
      <point x="1101" y="1247"/>
      <point x="910" y="1530"/>
      <point x="593" y="1530" type="curve" smooth="yes"/>
      <point x="276" y="1530"/>
      <point x="85" y="1247"/>
      <point x="85" y="751" type="curve" smooth="yes"/>
      <point x="85" y="253"/>
      <point x="276" y="-30"/>
    </contour>
    <contour>
      <point x="593" y="126" type="curve" smooth="yes"/>
      <point x="387" y="126"/>
      <point x="265" y="358"/>
      <point x="265" y="751" type="curve" smooth="yes"/>
      <point x="265" y="1144"/>
      <point x="387" y="1374"/>
      <point x="593" y="1374" type="curve" smooth="yes"/>
      <point x="799" y="1374"/>
      <point x="921" y="1144"/>
      <point x="921" y="751" type="curve" smooth="yes"/>
      <point x="921" y="358"/>
      <point x="799" y="126"/>
    </contour>
  </outline>
</glyph>
<glyph name="one" format="2">
  <advance width="770"/>
  <unicode hex="0031"/>
  <outline>
    <contour>
      <point x="585" y="0" type="line"/>
      <point x="585" y="1500" type="line"/>
      <point x="441" y="1500" type="line"/>
      <point x="75" y="1367" type="line"/>
      <point x="131" y="1225" type="line"/>
      <point x="409" y="1326" type="line"/>
      <point x="409" y="0" type="line"/>
    </contour>
  </outline>
</glyph>
<glyph name="two" format="1">
  <unicode hex="0032"/>
  <advance width="1274" height="1660"/>
  <outline>
    <contour>
      <point x="160" y="1228" type="curve"/>
      <point x="295" y="1125" type="line"/>
      <point x="385" y="1285"/>
      <point x="506" y="1370"/>
      <point x="644" y="1370" type="curve" smooth="yes" name="sv01"/>
      <point x="800" y="1370"/>
      <point x="909" y="1259"/>
      <point x="909" y="1102" type="curve" smooth="yes" name="dh01"/>
      <point x="909" y="890"/>
      <point x="710" y="622"/>
      <point x="211" y="160" type="curve"/>
      <point x="211" y="0" type="line" name="ab01"/>
      <point x="1134" y="0" type="line"/>
      <point x="1134" y="160" type="line" name="sv02"/>
      <point x="427" y="160" type="line"/>
      <point x="873" y="516"/>
      <point x="1089" y="822"/>
      <point x="1089" y="1099" type="curve" smooth="yes" name="dh02"/>
      <point x="1089" y="1354"/>
      <point x="907" y="1530"/>
      <point x="645" y="1530" type="curve" smooth="yes" name="at01"/>
      <point x="443" y="1530"/>
      <point x="274" y="1425"/>
    </contour>
  </outline>
</glyph>
<glyph name="three" format="1">
  <advance width="1119"/>
  <unicode hex="0033"/>
  <outline>
    <contour>
      <point x="85" y="140" type="line"/>
      <point x="206" y="29"/>
      <point x="358" y="-30"/>
      <point x="521" y="-30" type="curve" smooth="yes"/>
      <point x="806" y="-30"/>
      <point x="1014" y="151"/>
      <point x="1014" y="400" type="curve" smooth="yes"/>
      <point x="1014" y="598"/>
      <point x="883" y="739"/>
      <point x="671" y="787" type="curve"/>
      <point x="836" y="848"/>
      <point x="952" y="991"/>
      <point x="952" y="1160" type="curve" smooth="yes"/>
      <point x="952" y="1373"/>
      <point x="770" y="1530"/>
      <point x="523" y="1530" type="curve" smooth="yes"/>
      <point x="374" y="1530"/>
      <point x="230" y="1473"/>
      <point x="120" y="1370" type="curve"/>
      <point x="204" y="1248" type="line"/>
      <point x="300" y="1331"/>
      <point x="405" y="1375"/>
      <point x="509" y="1375" type="curve" smooth="yes"/>
      <point x="668" y="1375"/>
      <point x="784" y="1272"/>
      <point x="784" y="1130" type="curve" smooth="yes"/>
      <point x="784" y="965"/>
      <point x="631" y="845"/>
      <point x="423" y="845" type="curve" smooth="yes"/>
      <point x="371" y="845" type="line"/>
      <point x="371" y="717" type="line"/>
      <point x="423" y="717" type="line" smooth="yes"/>
      <point x="679" y="717"/>
      <point x="831" y="606"/>
      <point x="831" y="420" type="curve" smooth="yes"/>
      <point x="831" y="246"/>
      <point x="699" y="125"/>
      <point x="510" y="125" type="curve" smooth="yes"/>
      <point x="389" y="125"/>
      <point x="270" y="174"/>
      <point x="159" y="270" type="curve"/>
    </contour>
  </outline>
</glyph>
<glyph name="four" format="1">
  <unicode hex="0034"/>
  <advance width="1264" height="1660"/>
  <outline>
    <contour>
      <point x="100" y="340" type="line" name="dv01"/>
      <point x="849" y="340" type="line" name="dh01"/>
      <point x="849" y="0" type="line" name="ab01"/>
      <point x="1024" y="0" type="line"/>
      <point x="1024" y="340" type="line" name="sv01"/>
      <point x="1204" y="340" type="line"/>
      <point x="1204" y="500" type="line" name="sv02"/>
      <point x="1024" y="500" type="line" name="sh01"/>
      <point x="1024" y="1500" type="line" name="at01"/>
      <point x="849" y="1500" type="line"/>
      <point x="100" y="500" type="line" name="dv02"/>
    </contour>
    <contour>
      <point x="390" y="629" type="curve" smooth="yes"/>
      <point x="775" y="1123" type="line" smooth="yes"/>
      <point x="811" y="1169"/>
      <point x="839" y="1224"/>
      <point x="858" y="1276" type="curve"/>
      <point x="860" y="1276" type="line" name="sh02"/>
      <point x="852" y="1212"/>
      <point x="849" y="1085"/>
      <point x="849" y="1023" type="curve" smooth="yes" name="sh03"/>
      <point x="849" y="500" type="line" name="sv03"/>
      <point x="262" y="500" type="line" name="iv01"/>
      <point x="320" y="549"/>
      <point x="351" y="579"/>
    </contour>
  </outline>
</glyph>
<glyph name="five" format="1">
  <unicode hex="0035"/>
  <advance width="1146" height="1660"/>
  <outline>
    <contour>
      <point x="521" y="-30" type="curve" smooth="yes" name="dv01"/>
      <point x="820" y="-30"/>
      <point x="1026" y="172"/>
      <point x="1026" y="456" type="curve" smooth="yes" name="dh02"/>
      <point x="1026" y="738"/>
      <point x="822" y="942"/>
      <point x="535" y="942" type="curve" smooth="yes" name="dv04"/>
      <point x="476" y="942"/>
      <point x="420" y="933"/>
      <point x="369" y="917" type="curve"/>
      <point x="412" y="1340" type="line"/>
      <point x="951" y="1340" type="line" name="sv02"/>
      <point x="951" y="1500" type="line" name="at01"/>
      <point x="267" y="1500" type="line" name="at02"/>
      <point x="197" y="821" type="line"/>
      <point x="296" y="731" type="line"/>
      <point x="352" y="764"/>
      <point x="419" y="782"/>
      <point x="495" y="782" type="curve" smooth="yes" name="dv03"/>
      <point x="699" y="782"/>
      <point x="846" y="649"/>
      <point x="846" y="456" type="curve" smooth="yes" name="dh01"/>
      <point x="846" y="270"/>
      <point x="710" y="130"/>
      <point x="512" y="130" type="curve" smooth="yes" name="dv02"/>
      <point x="401" y="130"/>
      <point x="276" y="174"/>
      <point x="188" y="242" type="curve"/>
      <point x="120" y="88" type="line"/>
      <point x="238" y="13"/>
      <point x="384" y="-30"/>
    </contour>
  </outline>
</glyph>
<glyph name="six" format="2">
  <advance width="1145"/>
  <unicode hex="0036"/>
  <outline>
    <contour>
      <point x="570" y="-30" type="curve" smooth="yes"/>
      <point x="854" y="-30"/>
      <point x="1060" y="171"/>
      <point x="1060" y="447" type="curve" smooth="yes"/>
      <point x="1060" y="709"/>
      <point x="872" y="897"/>
      <point x="610" y="897" type="curve" smooth="yes"/>
      <point x="465" y="897"/>
      <point x="341" y="838"/>
      <point x="259" y="739" type="curve"/>
      <point x="339" y="989"/>
      <point x="530" y="1230"/>
      <point x="784" y="1385" type="curve"/>
      <point x="702" y="1500" type="line"/>
      <point x="326" y="1281"/>
      <point x="85" y="900"/>
      <point x="85" y="522" type="curve" smooth="yes"/>
      <point x="85" y="186"/>
      <point x="275" y="-30"/>
    </contour>
    <contour>
      <point x="577" y="125" type="curve" smooth="yes"/>
      <point x="403" y="125"/>
      <point x="271" y="265"/>
      <point x="271" y="447" type="curve" smooth="yes"/>
      <point x="271" y="628"/>
      <point x="401" y="758"/>
      <point x="580" y="758" type="curve" smooth="yes"/>
      <point x="756" y="758"/>
      <point x="880" y="631"/>
      <point x="880" y="450" type="curve" smooth="yes"/>
      <point x="880" y="265"/>
      <point x="750" y="125"/>
    </contour>
  </outline>
</glyph>
<glyph name="seven" format="1">
  <unicode hex="0037"/>
  <advance width="1169" height="1660"/>
  <outline>
    <contour>
      <point x="90" y="1500" type="line" name="at01"/>
      <point x="1049" y="1500" type="line"/>
      <point x="1049" y="1372" type="line"/>
      <point x="510" y="0" type="line" name="ab01"/>
      <point x="321" y="0" type="line"/>
      <point x="851" y="1340" type="line" name="sv01"/>
      <point x="90" y="1340" type="line"/>
    </contour>
  </outline>
</glyph>
<glyph name="eight" format="1">
  <unicode hex="0038"/>
  <advance width="1210" height="1660"/>
  <outline>
    <contour>
      <point x="363" y="800" type="curve"/>
      <point x="240" y="865"/>
      <point x="167" y="985"/>
      <point x="167" y="1137" type="curve" smooth="yes" name="ih01"/>
      <point x="167" y="1373"/>
      <point x="342" y="1530"/>
      <point x="605" y="1530" type="curve" smooth="yes" name="at01"/>
      <point x="867" y="1530"/>
      <point x="1042" y="1373"/>
      <point x="1042" y="1137" type="curve" smooth="yes" name="dh04"/>
      <point x="1042" y="985"/>
      <point x="969" y="866"/>
      <point x="846" y="800" type="curve"/>
      <point x="998" y="731"/>
      <point x="1090" y="591"/>
      <point x="1090" y="409" type="curve" smooth="yes" name="sh02"/>
      <point x="1090" y="146"/>
      <point x="896" y="-30"/>
      <point x="605" y="-30" type="curve" smooth="yes" name="dv01"/>
      <point x="314" y="-30"/>
      <point x="120" y="146"/>
      <point x="120" y="409" type="curve" smooth="yes" name="dh01"/>
      <point x="120" y="590"/>
      <point x="212" y="730"/>
    </contour>
    <contour>
      <point x="605" y="130" type="curve" smooth="yes" name="dv02"/>
      <point x="789" y="130"/>
      <point x="910" y="247"/>
      <point x="910" y="422" type="curve" smooth="yes" name="ih02"/>
      <point x="910" y="598"/>
      <point x="789" y="715"/>
      <point x="605" y="715" type="curve" smooth="yes" name="dv03"/>
      <point x="421" y="715"/>
      <point x="300" y="598"/>
      <point x="300" y="422" type="curve" smooth="yes" name="dh02"/>
      <point x="300" y="247"/>
      <point x="421" y="130"/>
    </contour>
    <contour>
      <point x="347" y="1122" type="curve" smooth="yes" name="sh01"/>
      <point x="347" y="974"/>
      <point x="451" y="875"/>
      <point x="605" y="875" type="curve" smooth="yes" name="dv04"/>
      <point x="758" y="875"/>
      <point x="862" y="974"/>
      <point x="862" y="1122" type="curve" smooth="yes" name="dh03"/>
      <point x="862" y="1271"/>
      <point x="758" y="1370"/>
      <point x="605" y="1370" type="curve" smooth="yes" name="sv01"/>
      <point x="451" y="1370"/>
      <point x="347" y="1271"/>
    </contour>
  </outline>
</glyph>
<glyph name="nine" format="1">
  <unicode hex="0039"/>
  <advance width="1179" height="1660"/>
  <outline>
    <contour>
      <point x="90" y="1052" type="curve" smooth="yes" name="sh01"/>
      <point x="90" y="774"/>
      <point x="285" y="585"/>
      <point x="562" y="585" type="curve" smooth="yes" name="dv01"/>
      <point x="676" y="585"/>
      <point x="766" y="627"/>
      <point x="834" y="689" type="curve"/>
      <point x="743" y="453"/>
      <point x="558" y="233"/>
      <point x="336" y="109" type="curve"/>
      <point x="436" y="-30" type="line"/>
      <point x="797" y="172"/>
      <point x="1059" y="598"/>
      <point x="1059" y="989" type="curve" smooth="yes" name="sh03"/>
      <point x="1059" y="1325"/>
      <point x="865" y="1530"/>
      <point x="573" y="1530" type="curve" smooth="yes" name="at01"/>
      <point x="284" y="1530"/>
      <point x="90" y="1329"/>
    </contour>
    <contour>
      <point x="270" y="1049" type="curve" smooth="yes" name="sh02"/>
      <point x="270" y="1234"/>
      <point x="398" y="1370"/>
      <point x="573" y="1370" type="curve" smooth="yes" name="sv01"/>
      <point x="747" y="1370"/>
      <point x="875" y="1235"/>
      <point x="875" y="1050" type="curve" smooth="yes" name="ah01"/>
      <point x="875" y="864"/>
      <point x="747" y="730"/>
      <point x="573" y="730" type="curve" smooth="yes" name="dv02"/>
      <point x="397" y="730"/>
      <point x="270" y="864"/>
    </contour>
  </outline>
</glyph>
<glyph name="colon" format="2">
  <advance width="462"/>
  <unicode hex="003A"/>
  <outline>
    <contour>
      <point x="231" y="780" type="curve" smooth="yes"/>
      <point x="287.647" y="780"/>
      <point x="330.422" y="822.775"/>
      <point x="330.422" y="879.422" type="curve" smooth="yes"/>
      <point x="330.422" y="934.913"/>
      <point x="287.647" y="980"/>
      <point x="231" y="980" type="curve" smooth="yes"/>
      <point x="174.353" y="980"/>
      <point x="131.578" y="934.913"/>
      <point x="131.578" y="879.422" type="curve" smooth="yes"/>
      <point x="131.578" y="822.775"/>
      <point x="174.353" y="780"/>
    </contour>
    <contour>
      <point x="231" y="-20" type="curve" smooth="yes"/>
      <point x="287.322" y="-20"/>
      <point x="329.851" y="23.678"/>
      <point x="329.851" y="80" type="curve" smooth="yes"/>
      <point x="329.851" y="135.172"/>
      <point x="287.322" y="180"/>
      <point x="231" y="180" type="curve" smooth="yes"/>
      <point x="174.678" y="180"/>
      <point x="132.149" y="135.172"/>
      <point x="132.149" y="80" type="curve" smooth="yes"/>
      <point x="132.149" y="23.678"/>
      <point x="174.678" y="-20"/>
    </contour>
  </outline>
</glyph>
<glyph name="semicolon" format="1">
  <unicode hex="003B"/>
  <advance width="620" height="1660"/>
  <outline>
    <contour>
      <point x="273" y="210" type="line"/>
      <point x="439" y="210" type="line" name="ih01"/>
      <point x="279" y="-225" type="line"/>
      <point x="160" y="-225" type="line"/>
    </contour>
    <contour>
      <point x="230" y="865" type="curve" smooth="yes" name="dh01"/>
      <point x="230" y="931"/>
      <point x="279" y="980"/>
      <point x="344" y="980" type="curve" smooth="yes" name="dv02"/>
      <point x="410" y="980"/>
      <point x="460" y="931"/>
      <point x="460" y="865" type="curve" smooth="yes" name="dh02"/>
      <point x="460" y="799"/>
      <point x="410" y="750"/>
      <point x="344" y="750" type="curve" smooth="yes" name="dv01"/>
      <point x="279" y="750"/>
      <point x="230" y="799"/>
    </contour>
  </outline>
</glyph>
<glyph name="less" format="1">
  <unicode hex="003C"/>
  <advance width="1288" height="1660"/>
  <outline>
    <contour>
      <point x="160" y="585" type="line"/>
      <point x="160" y="431" type="line"/>
      <point x="1128" y="-20" type="line"/>
      <point x="1128" y="134" type="line"/>
      <point x="325" y="508" type="line"/>
      <point x="1128" y="882" type="line"/>
      <point x="1128" y="1036" type="line"/>
    </contour>
  </outline>
</glyph>
<glyph name="equal" format="1">
  <unicode hex="003D"/>
  <advance width="1290" height="1660"/>
  <outline>
    <contour>
      <point x="160" y="653" type="line" name="dv03"/>
      <point x="160" y="783" type="line" name="dv04"/>
      <point x="1130" y="783" type="line"/>
      <point x="1130" y="653" type="line"/>
    </contour>
    <contour>
      <point x="160" y="174" type="line"/>
      <point x="160" y="304" type="line"/>
      <point x="1130" y="304" type="line" name="dv02"/>
      <point x="1130" y="174" type="line" name="dv01"/>
    </contour>
  </outline>
</glyph>
<glyph name="greater" format="1">
  <unicode hex="003E"/>
  <advance width="1288" height="1660"/>
  <outline>
    <contour>
      <point x="1128" y="585" type="line"/>
      <point x="1128" y="431" type="line"/>
      <point x="160" y="-20" type="line"/>
      <point x="160" y="134" type="line"/>
      <point x="963" y="508" type="line"/>
      <point x="160" y="882" type="line"/>
      <point x="160" y="1036" type="line"/>
    </contour>
  </outline>
</glyph>
<glyph name="question" format="1">
  <unicode hex="003F"/>
  <advance width="1109" height="1660"/>
  <outline>
    <contour>
      <point x="380" y="85" type="curve" smooth="yes" name="dh01"/>
      <point x="380" y="151"/>
      <point x="429" y="200"/>
      <point x="494" y="200" type="curve" smooth="yes" name="dv02"/>
      <point x="560" y="200"/>
      <point x="610" y="151"/>
      <point x="610" y="85" type="curve" smooth="yes" name="dh02"/>
      <point x="610" y="19"/>
      <point x="560" y="-30"/>
      <point x="494" y="-30" type="curve" smooth="yes" name="dv01"/>
      <point x="429" y="-30"/>
      <point x="380" y="19"/>
    </contour>
    <contour>
      <point x="235" y="1257" type="curve"/>
      <point x="160" y="1387" type="line"/>
      <point x="283" y="1480"/>
      <point x="422" y="1530"/>
      <point x="557" y="1530" type="curve" smooth="yes" name="at01"/>
      <point x="789" y="1530"/>
      <point x="949" y="1384"/>
      <point x="949" y="1165" type="curve" smooth="yes" name="dh04"/>
      <point x="949" y="1056"/>
      <point x="909" y="978"/>
      <point x="782" y="847" type="curve" smooth="yes"/>
      <point x="679" y="740"/>
      <point x="565" y="622"/>
      <point x="565" y="370" type="curve" name="sh01"/>
      <point x="425" y="370" type="line" name="ih01"/>
      <point x="425" y="605"/>
      <point x="492" y="763"/>
      <point x="673" y="951" type="curve" smooth="yes"/>
      <point x="754" y="1035"/>
      <point x="784" y="1093"/>
      <point x="784" y="1166" type="curve" smooth="yes" name="dh03"/>
      <point x="784" y="1297"/>
      <point x="689" y="1380"/>
      <point x="538" y="1380" type="curve" smooth="yes" name="sv01"/>
      <point x="448" y="1380"/>
      <point x="363" y="1351"/>
    </contour>
  </outline>
</glyph>
<glyph name="at" format="1">
  <unicode hex="0040"/>
  <advance width="2089" height="1660"/>
  <outline>
    <contour>
      <point x="1093" y="1416" type="curve" smooth="yes" name="dv04"/>
      <point x="588" y="1416"/>
      <point x="160" y="997"/>
      <point x="160" y="502" type="curve" smooth="yes" name="dh01"/>
      <point x="160" y="56"/>
      <point x="508" y="-291"/>
      <point x="955" y="-291" type="curve" smooth="yes" name="dv01"/>
      <point x="1126" y="-291"/>
      <point x="1297" y="-240"/>
      <point x="1486" y="-133" type="curve"/>
      <point x="1414" y="-7" type="line"/>
      <point x="1275" y="-100"/>
      <point x="1119" y="-150"/>
      <point x="965" y="-150" type="curve" smooth="yes" name="dv02"/>
      <point x="598" y="-150"/>
      <point x="320" y="132"/>
      <point x="320" y="503" type="curve" smooth="yes" name="dh02"/>
      <point x="320" y="921"/>
      <point x="670" y="1270"/>
      <point x="1089" y="1270" type="curve" smooth="yes" name="dv03"/>
      <point x="1497" y="1270"/>
      <point x="1779" y="1003"/>
      <point x="1779" y="616" type="curve" smooth="yes" name="dh07"/>
      <point x="1779" y="481"/>
      <point x="1721" y="222"/>
      <point x="1588" y="222" type="curve" smooth="yes" name="sv01"/>
      <point x="1528" y="222"/>
      <point x="1505" y="274"/>
      <point x="1505" y="339" type="curve" smooth="yes" name="dh06"/>
      <point x="1505" y="541"/>
      <point x="1532" y="749"/>
      <point x="1562" y="956" type="curve"/>
      <point x="1407" y="956" type="line"/>
      <point x="1397" y="840" type="line" name="ih01"/>
      <point x="1326" y="949"/>
      <point x="1202" y="1020"/>
      <point x="1048" y="1020" type="curve" smooth="yes" name="at01"/>
      <point x="773" y="1020"/>
      <point x="549" y="798"/>
      <point x="549" y="524" type="curve" smooth="yes" name="dh03"/>
      <point x="549" y="275"/>
      <point x="734" y="86"/>
      <point x="980" y="86" type="curve" smooth="yes" name="dv05"/>
      <point x="1119" y="86"/>
      <point x="1261" y="147"/>
      <point x="1353" y="266" type="curve" name="ih02"/>
      <point x="1371" y="158"/>
      <point x="1462" y="86"/>
      <point x="1573" y="86" type="curve" smooth="yes" name="sv02"/>
      <point x="1776" y="86"/>
      <point x="1929" y="324"/>
      <point x="1929" y="627" type="curve" smooth="yes" name="dh08"/>
      <point x="1929" y="1087"/>
      <point x="1580" y="1416"/>
    </contour>
    <contour>
      <point x="709" y="531" type="curve" smooth="yes" name="dh04"/>
      <point x="709" y="731"/>
      <point x="866" y="893"/>
      <point x="1058" y="893" type="curve" smooth="yes" name="sv03"/>
      <point x="1229" y="893"/>
      <point x="1374" y="767"/>
      <point x="1374" y="600" type="curve" smooth="yes" name="dh05"/>
      <point x="1374" y="387"/>
      <point x="1218" y="227"/>
      <point x="1015" y="227" type="curve" smooth="yes" name="dv06"/>
      <point x="834" y="227"/>
      <point x="709" y="354"/>
    </contour>
  </outline>
</glyph>
<glyph name="A" format="2">
  <advance width="1512"/>
  <unicode hex="0041"/>
  <anchor x="756" y="0" name="bottom"/>
  <anchor x="1438" y="0" name="ogonek"/>
  <anchor x="756" y="1500" name="top"/>
  <outline>
    <contour>
      <point x="230" y="0" type="line"/>
      <point x="393" y="405" type="line"/>
      <point x="1119" y="405" type="line"/>
      <point x="1282" y="0" type="line"/>
      <point x="1467" y="0" type="line"/>
      <point x="852" y="1500" type="line"/>
      <point x="661" y="1500" type="line"/>
      <point x="45" y="0" type="line"/>
    </contour>
    <contour>
      <point x="455" y="561" type="line"/>
      <point x="756" y="1310" type="line"/>
      <point x="1057" y="561" type="line"/>
    </contour>
  </outline>
</glyph>
<glyph name="B" format="2">
  <advance width="1303"/>
  <unicode hex="0042"/>
  <outline>
    <contour>
      <point x="155" y="0" type="line"/>
      <point x="728" y="0" type="line" smooth="yes" name="ab02"/>
      <point x="1021" y="0"/>
      <point x="1218" y="167"/>
      <point x="1218" y="415" type="curve" smooth="yes"/>
      <point x="1218" y="602"/>
      <point x="1107" y="737"/>
      <point x="924" y="782" type="curve"/>
      <point x="1060" y="836"/>
      <point x="1148" y="965"/>
      <point x="1148" y="1129" type="curve" smooth="yes"/>
      <point x="1148" y="1360"/>
      <point x="974" y="1500"/>
      <point x="687" y="1500" type="curve" smooth="yes"/>
      <point x="155" y="1500" type="line" name="at01"/>
    </contour>
    <contour>
      <point x="331" y="838" type="line"/>
      <point x="331" y="1344" type="line"/>
      <point x="672" y="1344" type="line" smooth="yes" name="sv03"/>
      <point x="858" y="1344"/>
      <point x="974" y="1248"/>
      <point x="974" y="1093" type="curve" smooth="yes"/>
      <point x="974" y="939"/>
      <point x="859" y="838"/>
      <point x="683" y="838" type="curve" smooth="yes" name="sv02"/>
    </contour>
    <contour>
      <point x="331" y="156" type="line"/>
      <point x="331" y="703" type="line"/>
      <point x="702" y="703" type="line" smooth="yes" name="dv01"/>
      <point x="906" y="703"/>
      <point x="1038" y="599"/>
      <point x="1038" y="437" type="curve" smooth="yes"/>
      <point x="1038" y="270"/>
      <point x="897" y="156"/>
      <point x="690" y="156" type="curve" smooth="yes" name="sv05"/>
    </contour>
  </outline>
</glyph>
<glyph name="C" format="1">
  <unicode hex="0043"/>
  <advance width="1519" height="1660"/>
  <outline>
    <contour>
      <point x="1297" y="313" type="line"/>
      <point x="1189" y="199"/>
      <point x="1037" y="130"/>
      <point x="860" y="130" type="curve" smooth="yes" name="dv02"/>
      <point x="513" y="130"/>
      <point x="260" y="393"/>
      <point x="260" y="750" type="curve" smooth="yes" name="dh02"/>
      <point x="260" y="1107"/>
      <point x="513" y="1370"/>
      <point x="860" y="1370" type="curve" smooth="yes" name="sv01"/>
      <point x="1037" y="1370"/>
      <point x="1189" y="1301"/>
      <point x="1297" y="1187" type="curve"/>
      <point x="1419" y="1309" type="line"/>
      <point x="1280" y="1448"/>
      <point x="1085" y="1530"/>
      <point x="860" y="1530" type="curve" smooth="yes" name="at01"/>
      <point x="409" y="1530"/>
      <point x="80" y="1200"/>
      <point x="80" y="750" type="curve" smooth="yes" name="dh01"/>
      <point x="80" y="300"/>
      <point x="409" y="-30"/>
      <point x="860" y="-30" type="curve" smooth="yes" name="dv01"/>
      <point x="1085" y="-30"/>
      <point x="1280" y="53"/>
      <point x="1419" y="191" type="curve"/>
    </contour>
    <contour>
      <point x="860" y="-20" type="move" name="bottom"/>
    </contour>
    <contour>
      <point x="860" y="1520" type="move" name="top"/>
    </contour>
  </outline>
</glyph>
<glyph name="D" format="2">
  <advance width="1558"/>
  <unicode hex="0044"/>
  <anchor x="718" y="0" name="bottom"/>
  <anchor x="714" y="1500" name="top"/>
  <outline>
    <contour>
      <point x="155" y="0" type="line"/>
      <point x="587" y="0" type="line" smooth="yes"/>
      <point x="1138" y="0"/>
      <point x="1473" y="283"/>
      <point x="1473" y="750" type="curve" smooth="yes"/>
      <point x="1473" y="1217"/>
      <point x="1138" y="1500"/>
      <point x="587" y="1500" type="curve" smooth="yes"/>
      <point x="155" y="1500" type="line"/>
    </contour>
    <contour>
      <point x="331" y="156" type="line"/>
      <point x="331" y="1344" type="line"/>
      <point x="595" y="1344" type="line" smooth="yes"/>
      <point x="1037" y="1344"/>
      <point x="1293" y="1126"/>
      <point x="1293" y="750" type="curve" smooth="yes"/>
      <point x="1293" y="374"/>
      <point x="1037" y="156"/>
      <point x="595" y="156" type="curve" smooth="yes"/>
    </contour>
  </outline>
</glyph>
<glyph name="E" format="2">
  <advance width="1229"/>
  <unicode hex="0045"/>
  <anchor x="615" y="0" name="bottom"/>
  <anchor x="1074" y="0" name="ogonek"/>
  <anchor x="615" y="1500" name="top"/>
  <anchor x="20" y="1500" name="topleft"/>
  <outline>
    <contour>
      <point x="155" y="0" type="line"/>
      <point x="1084" y="0" type="line"/>
      <point x="1084" y="156" type="line"/>
      <point x="331" y="156" type="line"/>
      <point x="331" y="684" type="line"/>
      <point x="1033" y="684" type="line"/>
      <point x="1033" y="840" type="line"/>
      <point x="331" y="840" type="line"/>
      <point x="331" y="1344" type="line"/>
      <point x="1074" y="1344" type="line"/>
      <point x="1074" y="1500" type="line"/>
      <point x="155" y="1500" type="line"/>
    </contour>
  </outline>
</glyph>
<glyph name="F" format="1">
  <unicode hex="0046"/>
  <advance width="1150" height="1660"/>
  <outline>
    <contour>
      <point x="160" y="1500" type="line"/>
      <point x="160" y="0" type="line" name="ab01"/>
      <point x="335" y="0" type="line" name="dh01"/>
      <point x="335" y="681" type="line" name="dv01"/>
      <point x="982" y="681" type="line"/>
      <point x="982" y="841" type="line"/>
      <point x="335" y="841" type="line" name="dv02"/>
      <point x="335" y="1340" type="line" name="sv01"/>
      <point x="1020" y="1340" type="line"/>
      <point x="1020" y="1500" type="line" name="at01"/>
    </contour>
  </outline>
</glyph>
<glyph name="G" format="1">
  <unicode hex="0047"/>
  <advance width="1663" height="1660"/>
  <outline>
    <contour>
      <point x="860" y="1530" type="curve" smooth="yes" name="at01"/>
      <point x="1085" y="1530"/>
      <point x="1280" y="1448"/>
      <point x="1419" y="1309" type="curve"/>
      <point x="1289" y="1191" type="line"/>
      <point x="1183" y="1302"/>
      <point x="1033" y="1370"/>
      <point x="859" y="1370" type="curve" smooth="yes" name="sv02"/>
      <point x="516" y="1370"/>
      <point x="260" y="1107"/>
      <point x="260" y="750" type="curve" smooth="yes" name="sh03"/>
      <point x="260" y="394"/>
      <point x="516" y="130"/>
      <point x="852" y="130" type="curve" smooth="yes" name="dv02"/>
      <point x="1154" y="130"/>
      <point x="1377" y="344"/>
      <point x="1401" y="644" type="curve"/>
      <point x="846" y="644" type="line"/>
      <point x="846" y="804" type="line"/>
      <point x="1576" y="804" type="line" name="sv01"/>
      <point x="1580" y="768"/>
      <point x="1583" y="731"/>
      <point x="1583" y="690" type="curve" smooth="yes" name="sh01"/>
      <point x="1583" y="276"/>
      <point x="1278" y="-30"/>
      <point x="852" y="-30" type="curve" smooth="yes" name="dv01"/>
      <point x="410" y="-30"/>
      <point x="80" y="300"/>
      <point x="80" y="750" type="curve" smooth="yes" name="sh02"/>
      <point x="80" y="1201"/>
      <point x="410" y="1530"/>
    </contour>
    <contour>
      <point x="832" y="1520" type="move" name="top"/>
    </contour>
    <contour>
      <point x="832" y="-20" type="move" name="bottom"/>
    </contour>
  </outline>
</glyph>
<glyph name="H" format="2">
  <advance width="1499"/>
  <unicode hex="0048"/>
  <anchor x="750" y="0" name="bottom"/>
  <anchor x="750" y="750" name="center"/>
  <anchor x="750" y="1500" name="top"/>
  <anchor x="20" y="1500" name="topleft"/>
  <outline>
    <contour>
      <point x="331" y="0" type="line"/>
      <point x="331" y="662" type="line"/>
      <point x="1168" y="662" type="line"/>
      <point x="1168" y="0" type="line"/>
      <point x="1344" y="0" type="line"/>
      <point x="1344" y="1500" type="line"/>
      <point x="1168" y="1500" type="line"/>
      <point x="1168" y="818" type="line"/>
      <point x="331" y="818" type="line"/>
      <point x="331" y="1500" type="line"/>
      <point x="155" y="1500" type="line"/>
      <point x="155" y="0" type="line"/>
    </contour>
  </outline>
</glyph>
<glyph name="I" format="2">
  <advance width="486"/>
  <unicode hex="0049"/>
  <anchor x="243" y="0" name="bottom"/>
  <anchor x="325" y="0" name="ogonek"/>
  <anchor x="243" y="1500" name="top"/>
  <anchor x="20" y="1500" name="topleft"/>
  <outline>
    <contour>
      <point x="155" y="0" type="line" name="dh01"/>
      <point x="331" y="0" type="line" name="ab01"/>
      <point x="331" y="1500" type="line" name="at01"/>
      <point x="155" y="1500" type="line"/>
    </contour>
  </outline>
</glyph>
<glyph name="J" format="1">
  <unicode hex="004A"/>
  <advance width="495" height="1660"/>
  <outline>
    <contour>
      <point x="-115" y="-227" type="line" name="dv02"/>
      <point x="90" y="-227"/>
      <point x="160" y="-119"/>
      <point x="160" y="57" type="curve" name="dh01"/>
      <point x="160" y="1500" type="line" name="at01"/>
      <point x="335" y="1500" type="line"/>
      <point x="335" y="47" type="line" smooth="yes" name="dh02"/>
      <point x="335" y="-230"/>
      <point x="210" y="-387"/>
      <point x="-115" y="-387" type="curve" name="dv01"/>
    </contour>
    <contour>
      <point x="363" y="1520" type="move" name="top"/>
    </contour>
  </outline>
</glyph>
<glyph name="K" format="1">
  <advance width="1377"/>
  <unicode hex="004B"/>
  <outline>
    <contour>
      <point x="332" y="0" type="line"/>
      <point x="332" y="347" type="line"/>
      <point x="589" y="671" type="line"/>
      <point x="1133" y="0" type="line"/>
      <point x="1362" y="0" type="line"/>
      <point x="702" y="813" type="line"/>
      <point x="1249" y="1500" type="line"/>
      <point x="1039" y="1500" type="line"/>
      <point x="447.164" y="755.176" type="line" smooth="yes"/>
      <point x="416.133" y="716.123"/>
      <point x="373.059" y="658.069"/>
      <point x="331" y="596" type="curve"/>
      <point x="331" y="1500" type="line"/>
      <point x="155" y="1500" type="line"/>
      <point x="155" y="0" type="line"/>
    </contour>
  </outline>
</glyph>
<glyph name="L" format="1">
  <unicode hex="004C"/>
  <advance width="1140" height="1660"/>
  <outline>
    <contour>
      <point x="1040" y="0" type="line" name="ab01"/>
      <point x="1040" y="160" type="line" name="sv01"/>
      <point x="335" y="160" type="line"/>
      <point x="335" y="1500" type="line" name="at01"/>
      <point x="160" y="1500" type="line" name="dh01"/>
      <point x="160" y="0" type="line"/>
    </contour>
    <contour>
      <point x="248" y="1520" type="move" name="top"/>
    </contour>
    <contour>
      <point x="600" y="-20" type="move" name="bottom"/>
    </contour>
  </outline>
</glyph>
<glyph name="M" format="1">
  <unicode hex="004D"/>
  <advance width="1825" height="1660"/>
  <outline>
    <contour>
      <point x="160" y="1500" type="line" name="at01"/>
      <point x="424" y="1500" type="line"/>
      <point x="916" y="446" type="line"/>
      <point x="1407" y="1500" type="line"/>
      <point x="1665" y="1500" type="line" name="at03"/>
      <point x="1665" y="0" type="line" name="ab02"/>
      <point x="1490" y="0" type="line" name="ah01"/>
      <point x="1490" y="1275" type="line"/>
      <point x="1010" y="245" type="line" name="iv01"/>
      <point x="817" y="245" type="line" name="iv02"/>
      <point x="335" y="1277" type="line"/>
      <point x="335" y="0" type="line" name="ab01"/>
      <point x="160" y="0" type="line"/>
    </contour>
  </outline>
</glyph>
<glyph name="N" format="1">
  <unicode hex="004E"/>
  <advance width="1596" height="1660"/>
  <outline>
    <contour>
      <point x="330" y="1500" type="line" name="at01"/>
      <point x="1261" y="280" type="line"/>
      <point x="1261" y="1500" type="line" name="at03"/>
      <point x="1436" y="1500" type="line"/>
      <point x="1436" y="0" type="line" name="ab03"/>
      <point x="1261" y="0" type="line" name="ab01"/>
      <point x="330" y="1220" type="line"/>
      <point x="330" y="0" type="line" name="ab02"/>
      <point x="160" y="0" type="line"/>
      <point x="160" y="1500" type="line" name="at02"/>
    </contour>
    <contour>
      <point x="798" y="1520" type="move" name="top"/>
    </contour>
    <contour>
      <point x="798" y="-20" type="move" name="bottom"/>
    </contour>
  </outline>
</glyph>
<glyph name="O" format="2">
  <advance width="1729"/>
  <unicode hex="004F"/>
  <anchor x="865" y="0" name="bottom"/>
  <anchor x="865" y="750" name="center"/>
  <anchor x="1556" y="10" name="ogonek"/>
  <anchor x="865" y="1500" name="top"/>
  <anchor x="20" y="1500" name="topleft"/>
  <anchor x="1709" y="1500" name="topright"/>
  <outline>
    <contour>
      <point x="865" y="-30" type="curve" smooth="yes"/>
      <point x="1315" y="-30"/>
      <point x="1644" y="301"/>
      <point x="1644" y="750" type="curve" smooth="yes"/>
      <point x="1644" y="1200"/>
      <point x="1315" y="1530"/>
      <point x="865" y="1530" type="curve" smooth="yes"/>
      <point x="414" y="1530"/>
      <point x="85" y="1200"/>
      <point x="85" y="750" type="curve" smooth="yes"/>
      <point x="85" y="301"/>
      <point x="414" y="-30"/>
    </contour>
    <contour>
      <point x="865" y="126" type="curve" smooth="yes"/>
      <point x="520" y="126"/>
      <point x="265" y="392"/>
      <point x="265" y="750" type="curve" smooth="yes"/>
      <point x="265" y="1108"/>
      <point x="520" y="1374"/>
      <point x="865" y="1374" type="curve" smooth="yes"/>
      <point x="1210" y="1374"/>
      <point x="1464" y="1108"/>
      <point x="1464" y="750" type="curve" smooth="yes"/>
      <point x="1464" y="393"/>
      <point x="1210" y="126"/>
    </contour>
  </outline>
</glyph>
<glyph name="P" format="1">
  <unicode hex="0050"/>
  <advance width="1250" height="1660"/>
  <outline>
    <contour>
      <point x="160" y="1500" type="line" name="at01"/>
      <point x="675" y="1500" type="line" smooth="yes"/>
      <point x="1010" y="1500"/>
      <point x="1190" y="1320"/>
      <point x="1190" y="1050" type="curve" smooth="yes"/>
      <point x="1190" y="780"/>
      <point x="1010" y="600"/>
      <point x="675" y="600" type="curve" smooth="yes" name="dv01"/>
      <point x="335" y="600" type="line"/>
      <point x="335" y="0" type="line" name="ab01"/>
      <point x="160" y="0" type="line"/>
    </contour>
    <contour>
      <point x="335" y="1340" type="line"/>
      <point x="335" y="760" type="line"/>
      <point x="675" y="760" type="line" smooth="yes" name="dv01"/>
      <point x="894" y="760"/>
      <point x="1010" y="876"/>
      <point x="1010" y="1050" type="curve" smooth="yes"/>
      <point x="1010" y="1224"/>
      <point x="894" y="1340"/>
      <point x="675" y="1340" type="curve" smooth="yes"/>
    </contour>
  </outline>
</glyph>
<glyph name="Q" format="1">
  <advance width="1729"/>
  <unicode hex="0051"/>
  <outline>
    <contour>
      <point x="1589" y="-226" type="curve"/>
      <point x="1625" y="-74" type="line"/>
      <point x="1445" y="-65"/>
      <point x="1306" y="-43"/>
      <point x="1121" y="9" type="curve"/>
      <point x="1434" y="109"/>
      <point x="1644" y="392"/>
      <point x="1644" y="750" type="curve" smooth="yes"/>
      <point x="1644" y="1200"/>
      <point x="1315" y="1530"/>
      <point x="865" y="1530" type="curve" smooth="yes"/>
      <point x="414" y="1530"/>
      <point x="85" y="1200"/>
      <point x="85" y="750" type="curve" smooth="yes"/>
      <point x="85" y="301"/>
      <point x="414" y="-29"/>
      <point x="865" y="-29" type="curve" smooth="yes"/>
      <point x="911" y="-29" type="line"/>
      <point x="1134" y="-129"/>
      <point x="1297" y="-177"/>
    </contour>
    <contour>
      <point x="865" y="126" type="curve" smooth="yes"/>
      <point x="520" y="126"/>
      <point x="265" y="392"/>
      <point x="265" y="750" type="curve" smooth="yes"/>
      <point x="265" y="1108"/>
      <point x="520" y="1374"/>
      <point x="865" y="1374" type="curve" smooth="yes"/>
      <point x="1210" y="1374"/>
      <point x="1464" y="1108"/>
      <point x="1464" y="750" type="curve" smooth="yes"/>
      <point x="1464" y="393"/>
      <point x="1210" y="126"/>
    </contour>
  </outline>
</glyph>
<glyph name="R" format="1">
  <unicode hex="0052"/>
  <advance width="1286" height="1660"/>
  <outline>
    <contour>
      <point x="160" y="1500" type="line" name="at01"/>
      <point x="633" y="1500" type="line" smooth="yes"/>
      <point x="957" y="1500"/>
      <point x="1150" y="1340"/>
      <point x="1150" y="1072" type="curve" smooth="yes" name="dh03"/>
      <point x="1150" y="864"/>
      <point x="1034" y="720"/>
      <point x="832" y="665" type="curve"/>
      <point x="1216" y="0" type="line" name="ab01"/>
      <point x="1013" y="0" type="line"/>
      <point x="644" y="640" type="line"/>
      <point x="640" y="640"/>
      <point x="637" y="640"/>
      <point x="633" y="640" type="curve" smooth="yes" name="dv01"/>
      <point x="335" y="640" type="line"/>
      <point x="335" y="0" type="line" name="ab02"/>
      <point x="160" y="0" type="line"/>
    </contour>
    <contour>
      <point x="597" y="800" type="line" smooth="yes" name="sv01"/>
      <point x="840" y="800"/>
      <point x="970" y="894"/>
      <point x="970" y="1071" type="curve" smooth="yes" name="dh02"/>
      <point x="970" y="1247"/>
      <point x="841" y="1340"/>
      <point x="597" y="1340" type="curve" smooth="yes" name="sv02"/>
      <point x="335" y="1340" type="line"/>
      <point x="335" y="800" type="line"/>
    </contour>
    <contour>
      <point x="620" y="1520" type="move" name="top"/>
    </contour>
    <contour>
      <point x="620" y="-20" type="move" name="bottom"/>
    </contour>
  </outline>
</glyph>
<glyph name="S" format="1">
  <unicode hex="0053"/>
  <advance width="1174" height="1637.28"/>
  <outline>
    <contour>
      <point x="168" y="285" type="line"/>
      <point x="271" y="178"/>
      <point x="407" y="130"/>
      <point x="533" y="130" type="curve" smooth="yes"/>
      <point x="715" y="130"/>
      <point x="873" y="230"/>
      <point x="873" y="396" type="curve" smooth="yes" name="ah01"/>
      <point x="873" y="565"/>
      <point x="706" y="640"/>
      <point x="530" y="719" type="curve" smooth="yes"/>
      <point x="334" y="807"/>
      <point x="126" y="899"/>
      <point x="126" y="1141" type="curve" smooth="yes" name="sh01"/>
      <point x="126" y="1385"/>
      <point x="337" y="1530"/>
      <point x="604" y="1530" type="curve" smooth="yes"/>
      <point x="721" y="1530"/>
      <point x="850" y="1502"/>
      <point x="976" y="1441" type="curve"/>
      <point x="905" y="1291" type="line"/>
      <point x="812" y="1345"/>
      <point x="708" y="1370"/>
      <point x="614" y="1370" type="curve" smooth="yes"/>
      <point x="445" y="1370"/>
      <point x="306" y="1290"/>
      <point x="306" y="1146" type="curve" smooth="yes" name="sh02"/>
      <point x="306" y="994"/>
      <point x="461" y="925"/>
      <point x="630" y="850" type="curve" smooth="yes"/>
      <point x="831" y="760"/>
      <point x="1054" y="661"/>
      <point x="1054" y="408" type="curve" smooth="yes" name="sh03"/>
      <point x="1054" y="155"/>
      <point x="830" y="-30"/>
      <point x="531" y="-30" type="curve" smooth="yes"/>
      <point x="376" y="-30"/>
      <point x="214" y="20"/>
      <point x="80" y="130" type="curve"/>
    </contour>
    <contour>
      <point x="567" y="1520" type="move" name="top"/>
    </contour>
    <contour>
      <point x="567" y="-20" type="move" name="bottom"/>
    </contour>
  </outline>
</glyph>
<glyph name="T" format="1">
  <unicode hex="0054"/>
  <advance width="1180" height="1660"/>
  <outline>
    <contour>
      <point x="40" y="1340" type="line"/>
      <point x="40" y="1500" type="line" name="at01"/>
      <point x="1140" y="1500" type="line"/>
      <point x="1140" y="1340" type="line" name="sv02"/>
      <point x="677" y="1340" type="line" name="sv03"/>
      <point x="677" y="0" type="line" name="ab01"/>
      <point x="503" y="0" type="line" name="dh01"/>
      <point x="503" y="1340" type="line" name="sv01"/>
    </contour>
    <contour>
      <point x="590" y="1520" type="move" name="top"/>
    </contour>
    <contour>
      <point x="590" y="-20" type="move" name="bottom"/>
    </contour>
  </outline>
</glyph>
<glyph name="U" format="1">
  <advance width="1569"/>
  <unicode hex="0055"/>
  <outline>
    <contour>
      <point x="1414" y="1500" type="line"/>
      <point x="1238" y="1500" type="line"/>
      <point x="1238" y="685" type="line" smooth="yes"/>
      <point x="1238" y="331"/>
      <point x="1069" y="126"/>
      <point x="784" y="126" type="curve" smooth="yes"/>
      <point x="499" y="126"/>
      <point x="331" y="331"/>
      <point x="331" y="685" type="curve" smooth="yes"/>
      <point x="331" y="1500" type="line"/>
      <point x="155" y="1500" type="line"/>
      <point x="155" y="671" type="line" smooth="yes"/>
      <point x="155" y="234"/>
      <point x="392" y="-30"/>
      <point x="784" y="-30" type="curve" smooth="yes"/>
      <point x="1177" y="-30"/>
      <point x="1414" y="234"/>
      <point x="1414" y="671" type="curve" smooth="yes"/>
    </contour>
  </outline>
</glyph>
<glyph name="V" format="1">
  <unicode hex="0056"/>
  <advance width="1544" height="1660"/>
  <outline>
    <contour>
      <point x="249" y="1500" type="line"/>
      <point x="772" y="220" type="line"/>
      <point x="1295" y="1500" type="line" name="at02"/>
      <point x="1484" y="1500" type="line"/>
      <point x="871" y="0" type="line" name="ab02"/>
      <point x="673" y="0" type="line"/>
      <point x="60" y="1500" type="line" name="at01"/>
    </contour>
  </outline>
</glyph>
<glyph name="W" format="1">
  <unicode hex="0057"/>
  <advance width="2270" height="1660"/>
  <outline>
    <contour>
      <point x="80" y="1500" type="line"/>
      <point x="510" y="0" type="line"/>
      <point x="773" y="0" type="line"/>
      <point x="1135" y="1260" type="line"/>
      <point x="1496" y="0" type="line"/>
      <point x="1759" y="0" type="line"/>
      <point x="2190" y="1500" type="line"/>
      <point x="2013" y="1500" type="line"/>
      <point x="1630" y="167" type="line"/>
      <point x="1248" y="1500" type="line"/>
      <point x="1027" y="1500" type="line"/>
      <point x="644" y="167" type="line"/>
      <point x="262" y="1500" type="line"/>
    </contour>
    <contour>
      <point x="1135" y="1520" type="move" name="top"/>
    </contour>
  </outline>
</glyph>
<glyph name="X" format="1">
  <unicode hex="0058"/>
  <advance width="1476" height="1660"/>
  <outline>
    <contour>
      <point x="618" y="780" type="line"/>
      <point x="74" y="1500" type="line"/>
      <point x="294" y="1500" type="line"/>
      <point x="738" y="912" type="line"/>
      <point x="1182" y="1500" type="line"/>
      <point x="1388" y="1500" type="line"/>
      <point x="851" y="789" type="line"/>
      <point x="1446" y="0" type="line"/>
      <point x="1226" y="0" type="line"/>
      <point x="731" y="656" type="line"/>
      <point x="236" y="0" type="line"/>
      <point x="30" y="0" type="line"/>
    </contour>
  </outline>
</glyph>
<glyph name="Y" format="2">
  <advance width="1391"/>
  <unicode hex="0059"/>
  <anchor x="696" y="0" name="bottom"/>
  <anchor x="696" y="1500" name="top"/>
  <anchor x="20" y="1500" name="topleft"/>
  <outline>
    <contour>
      <point x="783" y="0" type="line"/>
      <point x="783" y="639" type="line"/>
      <point x="1366" y="1500" type="line"/>
      <point x="1153" y="1500" type="line"/>
      <point x="695" y="788" type="line"/>
      <point x="239" y="1500" type="line"/>
      <point x="25" y="1500" type="line"/>
      <point x="607" y="641" type="line"/>
      <point x="607" y="0" type="line"/>
    </contour>
  </outline>
</glyph>
<glyph name="Z" format="1">
  <unicode hex="005A"/>
  <advance width="1323" height="1660"/>
  <outline>
    <contour>
      <point x="1213" y="1340" type="line"/>
      <point x="1213" y="1500" type="line" name="at01"/>
      <point x="120" y="1500" type="line"/>
      <point x="120" y="1340" type="line" name="sv01"/>
      <point x="993" y="1340" type="line"/>
      <point x="90" y="160" type="line"/>
      <point x="90" y="0" type="line" name="ab01"/>
      <point x="1243" y="0" type="line"/>
      <point x="1243" y="160" type="line" name="sv02"/>
      <point x="310" y="160" type="line"/>
    </contour>
    <contour>
      <point x="667" y="1520" type="move" name="top"/>
    </contour>
  </outline>
</glyph>
<glyph name="bracketleft" format="1">
  <unicode hex="005B"/>
  <advance width="660" height="1660"/>
  <outline>
    <contour>
      <point x="160" y="1540" type="line" name="dv04"/>
      <point x="160" y="-290" type="line" name="dv01"/>
      <point x="560" y="-290" type="line" name="sh01"/>
      <point x="560" y="-160" type="line"/>
      <point x="300" y="-160" type="line" name="dv02"/>
      <point x="300" y="1410" type="line" name="dv03"/>
      <point x="560" y="1410" type="line" name="sh02"/>
      <point x="560" y="1540" type="line"/>
    </contour>
  </outline>
</glyph>
<glyph name="backslash" format="1">
  <unicode hex="005C"/>
  <advance width="789" height="1660"/>
  <outline>
    <contour>
      <point x="0" y="1520" type="line" name="at01"/>
      <point x="637" y="-20" type="line" name="av01"/>
      <point x="789" y="-20" type="line"/>
      <point x="152" y="1520" type="line"/>
    </contour>
  </outline>
</glyph>
<glyph name="bracketright" format="1">
  <unicode hex="005D"/>
  <advance width="660" height="1660"/>
  <outline>
    <contour>
      <point x="500" y="1540" type="line" name="dv04"/>
      <point x="500" y="-290" type="line" name="dv01"/>
      <point x="100" y="-290" type="line" name="dh01"/>
      <point x="100" y="-160" type="line"/>
      <point x="360" y="-160" type="line" name="dv02"/>
      <point x="360" y="1410" type="line" name="dv03"/>
      <point x="100" y="1410" type="line" name="sh01"/>
      <point x="100" y="1540" type="line"/>
    </contour>
  </outline>
</glyph>
<glyph name="asciicircum" format="1">
  <unicode hex="005E"/>
  <advance width="1256" height="1660"/>
  <outline>
    <contour>
      <point x="254" y="512" type="line"/>
      <point x="628" y="1315" type="line"/>
      <point x="1002" y="512" type="line" name="av04"/>
      <point x="1156" y="512" type="line"/>
      <point x="705" y="1480" type="line" name="av02"/>
      <point x="551" y="1480" type="line"/>
      <point x="100" y="512" type="line" name="av03"/>
    </contour>
  </outline>
</glyph>
<glyph name="underscore" format="2">
  <advance width="1361"/>
  <unicode hex="005F"/>
  <outline>
    <contour>
      <point x="1206" y="0" type="line" name="ab01"/>
      <point x="1206" y="133" type="line"/>
      <point x="155" y="133" type="line" name="sv01"/>
      <point x="155" y="0" type="line"/>
    </contour>
  </outline>
</glyph>
<glyph name="grave" format="1">
  <unicode hex="0060"/>
  <advance width="585" height="1660"/>
  <outline>
    <contour>
      <point x="355" y="1170" type="line" name="av01"/>
      <point x="100" y="1500" type="line" name="at01"/>
      <point x="280" y="1500" type="line"/>
      <point x="485" y="1170" type="line"/>
    </contour>
    <contour>
      <point x="425" y="1020" type="move" name="_top"/>
    </contour>
  </outline>
</glyph>
<glyph name="a" format="1">
  <unicode hex="0061"/>
  <advance width="1127" height="1660"/>
  <outline>
    <contour>
      <point x="128" y="298" type="curve" smooth="yes" name="dh01"/>
      <point x="128" y="109"/>
      <point x="277" y="-20"/>
      <point x="494" y="-20" type="curve" smooth="yes" name="dv01"/>
      <point x="645" y="-20"/>
      <point x="762" y="42"/>
      <point x="829" y="148" type="curve"/>
      <point x="838" y="0" type="line"/>
      <point x="987" y="0" type="line"/>
      <point x="987" y="590" type="line" smooth="yes" name="sh02"/>
      <point x="987" y="851"/>
      <point x="822" y="1020"/>
      <point x="566" y="1020" type="curve" smooth="yes" name="at01"/>
      <point x="440" y="1020"/>
      <point x="342" y="993"/>
      <point x="207" y="922" type="curve"/>
      <point x="267" y="784" type="line"/>
      <point x="369" y="842"/>
      <point x="459" y="870"/>
      <point x="547" y="870" type="curve" smooth="yes" name="sv01"/>
      <point x="718" y="870"/>
      <point x="822" y="766"/>
      <point x="822" y="596" type="curve" smooth="yes" name="sh01"/>
      <point x="822" y="584" type="line"/>
      <point x="740" y="610"/>
      <point x="648" y="625"/>
      <point x="559" y="625" type="curve" smooth="yes" name="dv04"/>
      <point x="295" y="625"/>
      <point x="128" y="498"/>
    </contour>
    <contour>
      <point x="574" y="475" type="curve" smooth="yes" name="dv03"/>
      <point x="656" y="475"/>
      <point x="746" y="460"/>
      <point x="822" y="435" type="curve"/>
      <point x="822" y="408" type="line" smooth="yes" name="dh03"/>
      <point x="822" y="251"/>
      <point x="687" y="130"/>
      <point x="512" y="130" type="curve" smooth="yes" name="dv02"/>
      <point x="382" y="130"/>
      <point x="298" y="196"/>
      <point x="298" y="298" type="curve" smooth="yes" name="dh02"/>
      <point x="298" y="410"/>
      <point x="401" y="475"/>
    </contour>
    <contour>
      <point x="558" y="1020" type="move" name="top"/>
    </contour>
    <contour>
      <point x="918" y="0" type="move" name="bottom"/>
    </contour>
  </outline>
</glyph>
<glyph name="b" format="1">
  <unicode hex="0062"/>
  <advance width="1285" height="1660"/>
  <outline>
    <contour>
      <point x="160" y="1500" type="line" name="at01"/>
      <point x="325" y="1500" type="line"/>
      <point x="325" y="869" type="line"/>
      <point x="415" y="964"/>
      <point x="543" y="1020"/>
      <point x="690" y="1020" type="curve" smooth="yes" name="at02"/>
      <point x="981" y="1020"/>
      <point x="1195" y="800"/>
      <point x="1195" y="500" type="curve" smooth="yes" name="dh04"/>
      <point x="1195" y="200"/>
      <point x="981" y="-20"/>
      <point x="690" y="-20" type="curve" smooth="yes" name="dv01"/>
      <point x="539" y="-20"/>
      <point x="408" y="40"/>
      <point x="318" y="139" type="curve"/>
      <point x="309" y="0" type="line"/>
      <point x="160" y="0" type="line" name="dh01"/>
    </contour>
    <contour>
      <point x="675" y="130" type="curve" smooth="yes" name="dv02"/>
      <point x="877" y="130"/>
      <point x="1025" y="287"/>
      <point x="1025" y="500" type="curve" smooth="yes" name="dh03"/>
      <point x="1025" y="713"/>
      <point x="877" y="870"/>
      <point x="675" y="870" type="curve" smooth="yes" name="sv01"/>
      <point x="473" y="870"/>
      <point x="325" y="713"/>
      <point x="325" y="500" type="curve" smooth="yes" name="sh01"/>
      <point x="325" y="287"/>
      <point x="473" y="130"/>
    </contour>
  </outline>
</glyph>
<glyph name="c" format="1">
  <unicode hex="0063"/>
  <advance width="1073" height="1660"/>
  <outline>
    <contour>
      <point x="983" y="128" type="line"/>
      <point x="890" y="35"/>
      <point x="760" y="-20"/>
      <point x="610" y="-20" type="curve" smooth="yes" name="dv01"/>
      <point x="310" y="-20"/>
      <point x="90" y="200"/>
      <point x="90" y="500" type="curve" smooth="yes" name="dh01"/>
      <point x="90" y="800"/>
      <point x="310" y="1020"/>
      <point x="610" y="1020" type="curve" smooth="yes" name="at01"/>
      <point x="760" y="1020"/>
      <point x="890" y="965"/>
      <point x="983" y="873" type="curve"/>
      <point x="868" y="758" type="line"/>
      <point x="805" y="828"/>
      <point x="715" y="870"/>
      <point x="610" y="870" type="curve" smooth="yes" name="sv01"/>
      <point x="408" y="870"/>
      <point x="260" y="713"/>
      <point x="260" y="500" type="curve" smooth="yes" name="dh02"/>
      <point x="260" y="287"/>
      <point x="408" y="130"/>
      <point x="610" y="130" type="curve" smooth="yes" name="dv02"/>
      <point x="715" y="130"/>
      <point x="805" y="172"/>
      <point x="868" y="242" type="curve"/>
    </contour>
    <contour>
      <point x="620" y="-20" type="move" name="bottom"/>
    </contour>
    <contour>
      <point x="620" y="1020" type="move" name="top"/>
    </contour>
  </outline>
</glyph>
<glyph name="d" format="1">
  <unicode hex="0064"/>
  <advance width="1285" height="1660"/>
  <outline>
    <contour>
      <point x="595" y="1020" type="curve" smooth="yes" name="at02"/>
      <point x="742" y="1020"/>
      <point x="870" y="964"/>
      <point x="960" y="869" type="curve"/>
      <point x="960" y="1500" type="line" name="at01"/>
      <point x="1125" y="1500" type="line"/>
      <point x="1125" y="0" type="line" name="sh02"/>
      <point x="976" y="0" type="line"/>
      <point x="967" y="139" type="line"/>
      <point x="877" y="40"/>
      <point x="746" y="-20"/>
      <point x="595" y="-20" type="curve" smooth="yes" name="dv01"/>
      <point x="304" y="-20"/>
      <point x="90" y="200"/>
      <point x="90" y="500" type="curve" smooth="yes" name="dh01"/>
      <point x="90" y="800"/>
      <point x="304" y="1020"/>
    </contour>
    <contour>
      <point x="260" y="500" type="curve" smooth="yes" name="dh02"/>
      <point x="260" y="287"/>
      <point x="408" y="130"/>
      <point x="610" y="130" type="curve" smooth="yes" name="dv02"/>
      <point x="812" y="130"/>
      <point x="960" y="287"/>
      <point x="960" y="500" type="curve" smooth="yes" name="dh03"/>
      <point x="960" y="713"/>
      <point x="812" y="870"/>
      <point x="610" y="870" type="curve" smooth="yes" name="sv01"/>
      <point x="408" y="870"/>
      <point x="260" y="713"/>
    </contour>
    <contour>
      <point x="500" y="1654" type="move" name="top"/>
    </contour>
  </outline>
</glyph>
<glyph name="e" format="1">
  <unicode hex="0065"/>
  <advance width="1202" height="1660"/>
  <outline>
    <contour>
      <point x="262" y="574" type="curve"/>
      <point x="940" y="574" type="line"/>
      <point x="911" y="749"/>
      <point x="779" y="870"/>
      <point x="605" y="870" type="curve" smooth="yes" name="sv02"/>
      <point x="428" y="870"/>
      <point x="291" y="746"/>
    </contour>
    <contour>
      <point x="1112" y="501" type="curve" name="sh01"/>
      <point x="1112" y="500" type="line" name="dh03"/>
      <point x="1112" y="434" type="line" name="dv03"/>
      <point x="264" y="434" type="line"/>
      <point x="297" y="257"/>
      <point x="447" y="130"/>
      <point x="642" y="130" type="curve" smooth="yes" name="dv02"/>
      <point x="750" y="130"/>
      <point x="878" y="170"/>
      <point x="977" y="263" type="curve"/>
      <point x="1074" y="139" type="line"/>
      <point x="928" y="18"/>
      <point x="782" y="-20"/>
      <point x="647" y="-20" type="curve" smooth="yes" name="dv01"/>
      <point x="323" y="-20"/>
      <point x="90" y="200"/>
      <point x="90" y="505" type="curve" smooth="yes" name="dh01"/>
      <point x="90" y="801"/>
      <point x="309" y="1020"/>
      <point x="606" y="1020" type="curve" smooth="yes" name="at01"/>
      <point x="901" y="1020"/>
      <point x="1112" y="803"/>
    </contour>
    <contour>
      <point x="601" y="1020" type="move" name="top"/>
    </contour>
    <contour>
      <point x="835" y="-20" type="move" name="bottom"/>
    </contour>
  </outline>
</glyph>
<glyph name="f" format="2">
  <advance width="824"/>
  <unicode hex="0066"/>
  <outline>
    <contour>
      <point x="394" y="0" type="line"/>
      <point x="394" y="853" type="line"/>
      <point x="703" y="853" type="line"/>
      <point x="703" y="1000" type="line"/>
      <point x="394" y="1000" type="line"/>
      <point x="394" y="1183" type="line" smooth="yes"/>
      <point x="394" y="1302"/>
      <point x="464" y="1383"/>
      <point x="567" y="1383" type="curve" smooth="yes"/>
      <point x="613" y="1383"/>
      <point x="661" y="1367"/>
      <point x="706" y="1338" type="curve"/>
      <point x="769" y="1467" type="line"/>
      <point x="696" y="1509"/>
      <point x="618" y="1530"/>
      <point x="542" y="1530" type="curve" smooth="yes"/>
      <point x="358" y="1530"/>
      <point x="230" y="1401"/>
      <point x="230" y="1215" type="curve" smooth="yes"/>
      <point x="230" y="1000" type="line"/>
      <point x="55" y="1000" type="line"/>
      <point x="55" y="853" type="line"/>
      <point x="230" y="853" type="line"/>
      <point x="230" y="0" type="line"/>
    </contour>
  </outline>
</glyph>
<glyph name="g" format="1">
  <unicode hex="0067"/>
  <advance width="1285" height="1660"/>
  <outline>
    <contour>
      <point x="595" y="-20" type="curve" smooth="yes" name="dv01"/>
      <point x="742" y="-20"/>
      <point x="870" y="36"/>
      <point x="960" y="131" type="curve"/>
      <point x="960" y="79" type="line" smooth="yes"/>
      <point x="960" y="-193"/>
      <point x="826" y="-370"/>
      <point x="542" y="-370" type="curve" smooth="yes" name="dv01"/>
      <point x="430" y="-370"/>
      <point x="332" y="-332"/>
      <point x="258" y="-266" type="curve"/>
      <point x="176" y="-404" type="line"/>
      <point x="274" y="-478"/>
      <point x="399" y="-520"/>
      <point x="539" y="-520" type="curve" smooth="yes" name="dv01"/>
      <point x="920" y="-520"/>
      <point x="1125" y="-272"/>
      <point x="1125" y="98" type="curve" smooth="yes" name="sh01"/>
      <point x="1125" y="1000" type="line"/>
      <point x="976" y="1000" type="line"/>
      <point x="967" y="861" type="line"/>
      <point x="877" y="960"/>
      <point x="746" y="1020"/>
      <point x="595" y="1020" type="curve" smooth="yes" name="at01"/>
      <point x="304" y="1020"/>
      <point x="90" y="800"/>
      <point x="90" y="500" type="curve" smooth="yes" name="dh01"/>
      <point x="90" y="200"/>
      <point x="304" y="-20"/>
    </contour>
    <contour>
      <point x="260" y="500" type="curve" smooth="yes" name="dh02"/>
      <point x="260" y="713"/>
      <point x="408" y="870"/>
      <point x="610" y="870" type="curve" smooth="yes" name="sv01"/>
      <point x="812" y="870"/>
      <point x="960" y="713"/>
      <point x="960" y="500" type="curve" smooth="yes" name="dh03"/>
      <point x="960" y="287"/>
      <point x="812" y="130"/>
      <point x="610" y="130" type="curve" smooth="yes" name="dv02"/>
      <point x="408" y="130"/>
      <point x="260" y="287"/>
    </contour>
    <contour>
      <point x="608" y="1020" type="move" name="top"/>
    </contour>
  </outline>
</glyph>
<glyph name="h" format="1">
  <advance width="1226"/>
  <unicode hex="0068"/>
  <outline>
    <contour>
      <point x="155" y="0" type="line"/>
      <point x="319" y="0" type="line"/>
      <point x="319" y="533" type="line" smooth="yes"/>
      <point x="319" y="744"/>
      <point x="435" y="873"/>
      <point x="626" y="873" type="curve" smooth="yes"/>
      <point x="815" y="873"/>
      <point x="927" y="747"/>
      <point x="927" y="533" type="curve" smooth="yes"/>
      <point x="927" y="0" type="line"/>
      <point x="1091" y="0" type="line"/>
      <point x="1091" y="571" type="line" smooth="yes"/>
      <point x="1091" y="853"/>
      <point x="934" y="1020"/>
      <point x="669" y="1020" type="curve" smooth="yes"/>
      <point x="512" y="1020"/>
      <point x="393" y="961"/>
      <point x="319" y="850" type="curve"/>
      <point x="319" y="1500" type="line"/>
      <point x="155" y="1500" type="line"/>
    </contour>
  </outline>
</glyph>
<glyph name="i" format="1">
  <unicode hex="0069"/>
  <advance width="486" height="1660"/>
  <outline>
    <contour>
      <point x="160" y="0" type="line" name="ab01"/>
      <point x="326" y="0" type="line" name="sh01"/>
      <point x="326" y="1000" type="line"/>
      <point x="160" y="1000" type="line"/>
    </contour>
    <contour>
      <point x="128" y="1385" type="curve" smooth="yes" name="dh01"/>
      <point x="128" y="1319"/>
      <point x="177" y="1270"/>
      <point x="242" y="1270" type="curve" smooth="yes" name="sv01"/>
      <point x="308" y="1270"/>
      <point x="358" y="1319"/>
      <point x="358" y="1385" type="curve" smooth="yes" name="dh02"/>
      <point x="358" y="1451"/>
      <point x="308" y="1500"/>
      <point x="242" y="1500" type="curve" smooth="yes" name="at01"/>
      <point x="177" y="1500"/>
      <point x="128" y="1451"/>
    </contour>
    <contour>
      <point x="243" y="1020" type="move" name="top"/>
    </contour>
    <contour>
      <point x="243" y="0" type="move" name="bottom"/>
    </contour>
  </outline>
</glyph>
<glyph name="j" format="1">
  <advance width="497"/>
  <unicode hex="006A"/>
  <outline>
    <contour>
      <point x="259.957" y="1316" type="curve" smooth="yes"/>
      <point x="316.478" y="1316"/>
      <point x="359.957" y="1360.57"/>
      <point x="359.957" y="1416" type="curve" smooth="yes"/>
      <point x="359.957" y="1471.43"/>
      <point x="316.478" y="1516"/>
      <point x="259.957" y="1516" type="curve" smooth="yes"/>
      <point x="204.522" y="1516"/>
      <point x="161.043" y="1471.43"/>
      <point x="161.043" y="1416" type="curve" smooth="yes"/>
      <point x="161.043" y="1360.57"/>
      <point x="204.522" y="1316"/>
    </contour>
    <contour>
      <point x="-113" y="-507" type="line"/>
      <point x="-72" y="-515"/>
      <point x="-33" y="-520"/>
      <point x="3" y="-520" type="curve" smooth="yes"/>
      <point x="218" y="-520"/>
      <point x="343" y="-373"/>
      <point x="343" y="-114" type="curve" smooth="yes"/>
      <point x="343" y="1000" type="line"/>
      <point x="178" y="1000" type="line"/>
      <point x="178" y="-108" type="line" smooth="yes"/>
      <point x="178" y="-275"/>
      <point x="85" y="-381"/>
      <point x="-54" y="-381" type="curve" smooth="yes"/>
      <point x="-73" y="-381"/>
      <point x="-92" y="-380"/>
      <point x="-113" y="-376" type="curve"/>
    </contour>
  </outline>
</glyph>
<glyph name="k" format="1">
  <unicode hex="006B"/>
  <advance width="1018" height="1660"/>
  <outline>
    <contour>
      <point x="160" y="1500" type="line" name="at01"/>
      <point x="160" y="0" type="line" name="ab01"/>
      <point x="325" y="0" type="line"/>
      <point x="325" y="320" type="line"/>
      <point x="414" y="423" type="line"/>
      <point x="771" y="0" type="line" name="ab02"/>
      <point x="978" y="0" type="line"/>
      <point x="524" y="549" type="line"/>
      <point x="916" y="1000" type="line" name="iv01"/>
      <point x="717" y="1000" type="line"/>
      <point x="357" y="585" type="line" smooth="yes"/>
      <point x="345" y="571"/>
      <point x="335" y="558"/>
      <point x="325" y="545" type="curve"/>
      <point x="325" y="1500" type="line" name="dh01"/>
    </contour>
    <contour>
      <point x="569" y="-20" type="move" name="bottom"/>
    </contour>
  </outline>
</glyph>
<glyph name="l" format="1">
  <unicode hex="006C"/>
  <advance width="490" height="1660"/>
  <outline>
    <contour>
      <point x="330" y="1540" type="line" name="av01"/>
      <point x="160" y="1540" type="line" name="dh01"/>
      <point x="160" y="0" type="line" name="ab01"/>
      <point x="330" y="0" type="line"/>
    </contour>
    <contour>
      <point x="245" y="1520" type="move" name="top"/>
    </contour>
    <contour>
      <point x="245" y="-20" type="move" name="bottom"/>
    </contour>
  </outline>
</glyph>
<glyph name="m" format="1">
  <unicode hex="006D"/>
  <advance width="1855" height="1660"/>
  <outline>
    <contour>
      <point x="309" y="1000" type="line"/>
      <point x="316" y="881" type="line"/>
      <point x="393" y="968"/>
      <point x="502" y="1020"/>
      <point x="627" y="1020" type="curve" smooth="yes"/>
      <point x="777" y="1020"/>
      <point x="899" y="944"/>
      <point x="965" y="818" type="curve"/>
      <point x="1041" y="942"/>
      <point x="1170" y="1020"/>
      <point x="1322" y="1020" type="curve" smooth="yes"/>
      <point x="1551" y="1020"/>
      <point x="1715" y="843"/>
      <point x="1715" y="581" type="curve" smooth="yes" name="dh04"/>
      <point x="1715" y="-1" type="line"/>
      <point x="1550" y="-1" type="line" name="ab01"/>
      <point x="1550" y="556" type="line" smooth="yes" name="dh03"/>
      <point x="1550" y="765"/>
      <point x="1418" y="870"/>
      <point x="1285" y="870" type="curve" smooth="yes"/>
      <point x="1153" y="870"/>
      <point x="1020" y="765"/>
      <point x="1020" y="554" type="curve" smooth="yes" name="sh01"/>
      <point x="1020" y="-1" type="line"/>
      <point x="855" y="-1" type="line" name="ab01"/>
      <point x="855" y="556" type="line" name="dh03"/>
      <point x="855" y="765"/>
      <point x="723" y="870"/>
      <point x="590" y="870" type="curve" smooth="yes"/>
      <point x="458" y="870"/>
      <point x="325" y="765"/>
      <point x="325" y="554" type="curve" smooth="yes" name="sh01"/>
      <point x="325" y="0" type="line" name="dh01"/>
      <point x="160" y="0" type="line" name="ab01"/>
      <point x="160" y="1000" type="line"/>
    </contour>
  </outline>
</glyph>
<glyph name="n" format="2">
  <advance width="1226"/>
  <unicode hex="006E"/>
  <anchor x="633" y="0" name="bottom"/>
  <anchor x="633" y="1000" name="top"/>
  <outline>
    <contour>
      <point x="1091" y="0" type="line"/>
      <point x="1091" y="594.552" type="line" smooth="yes"/>
      <point x="1091" y="855.328"/>
      <point x="930.307" y="1020"/>
      <point x="675.832" y="1020" type="curve" smooth="yes"/>
      <point x="512.832" y="1020"/>
      <point x="377" y="955"/>
      <point x="304" y="838" type="curve"/>
      <point x="298" y="1000" type="line"/>
      <point x="155" y="1000" type="line"/>
      <point x="155" y="0" type="line"/>
      <point x="319" y="0" type="line"/>
      <point x="319" y="538" type="line" smooth="yes"/>
      <point x="319" y="736"/>
      <point x="459.832" y="870"/>
      <point x="645.832" y="870" type="curve" smooth="yes"/>
      <point x="819.111" y="870"/>
      <point x="927" y="757.537"/>
      <point x="927" y="576.912" type="curve" smooth="yes"/>
      <point x="927" y="0" type="line"/>
    </contour>
  </outline>
</glyph>
<glyph name="o" format="2">
  <advance width="1195"/>
  <unicode hex="006F"/>
  <anchor x="598" y="0" name="bottom"/>
  <anchor x="598" y="500" name="center"/>
  <anchor x="1076" y="10" name="ogonek"/>
  <anchor x="598" y="1000" name="top"/>
  <anchor x="1175" y="1000" name="topright"/>
  <outline>
    <contour>
      <point x="599" y="-20" type="curve" smooth="yes"/>
      <point x="897" y="-20"/>
      <point x="1120" y="202.899"/>
      <point x="1120" y="499.501" type="curve" smooth="yes"/>
      <point x="1120" y="796.102"/>
      <point x="897" y="1020"/>
      <point x="599" y="1020" type="curve" smooth="yes"/>
      <point x="300" y="1020"/>
      <point x="75" y="796.102"/>
      <point x="75" y="499.501" type="curve" smooth="yes"/>
      <point x="75" y="202.899"/>
      <point x="300" y="-20"/>
    </contour>
    <contour>
      <point x="598" y="128" type="curve" smooth="yes"/>
      <point x="395" y="128"/>
      <point x="243" y="287.785"/>
      <point x="243" y="500.499" type="curve" smooth="yes"/>
      <point x="243" y="712.215"/>
      <point x="395" y="872"/>
      <point x="598" y="872" type="curve" smooth="yes"/>
      <point x="800" y="872"/>
      <point x="952" y="712.215"/>
      <point x="952" y="500.499" type="curve" smooth="yes"/>
      <point x="952" y="287.785"/>
      <point x="800" y="128"/>
    </contour>
  </outline>
</glyph>
<glyph name="p" format="1">
  <unicode hex="0070"/>
  <advance width="1285" height="1660"/>
  <outline>
    <contour>
      <point x="309" y="1000" type="line"/>
      <point x="318" y="861" type="line"/>
      <point x="408" y="960"/>
      <point x="539" y="1020"/>
      <point x="690" y="1020" type="curve" smooth="yes" name="at01"/>
      <point x="981" y="1020"/>
      <point x="1195" y="800"/>
      <point x="1195" y="500" type="curve" smooth="yes" name="dh03"/>
      <point x="1195" y="200"/>
      <point x="981" y="-20"/>
      <point x="690" y="-20" type="curve" smooth="yes" name="dv01"/>
      <point x="543" y="-20"/>
      <point x="415" y="36"/>
      <point x="325" y="131" type="curve"/>
      <point x="325" y="-500" type="line" name="dh01"/>
      <point x="160" y="-500" type="line" name="ab01"/>
      <point x="160" y="1000" type="line"/>
    </contour>
    <contour>
      <point x="675" y="130" type="curve" smooth="yes" name="dv02"/>
      <point x="877" y="130"/>
      <point x="1025" y="287"/>
      <point x="1025" y="500" type="curve" smooth="yes" name="dh02"/>
      <point x="1025" y="713"/>
      <point x="877" y="870"/>
      <point x="675" y="870" type="curve" smooth="yes" name="sv01"/>
      <point x="473" y="870"/>
      <point x="325" y="713"/>
      <point x="325" y="500" type="curve" smooth="yes" name="sh01"/>
      <point x="325" y="287"/>
      <point x="473" y="130"/>
    </contour>
  </outline>
</glyph>
<glyph name="r" format="1">
  <unicode hex="0072"/>
  <advance width="741" height="1660"/>
  <outline>
    <contour>
      <point x="160" y="0" type="line" name="ab01"/>
      <point x="160" y="1000" type="line"/>
      <point x="309" y="1000" type="line"/>
      <point x="319" y="843" type="line"/>
      <point x="385" y="949"/>
      <point x="490" y="1020"/>
      <point x="637" y="1020" type="curve" smooth="yes" name="dv02"/>
      <point x="667" y="1020"/>
      <point x="698" y="1017"/>
      <point x="731" y="1011" type="curve" name="sv01"/>
      <point x="707" y="858" type="line"/>
      <point x="674" y="866"/>
      <point x="644" y="870"/>
      <point x="615" y="870" type="curve" smooth="yes" name="dv01"/>
      <point x="431" y="870"/>
      <point x="325" y="717"/>
      <point x="325" y="517" type="curve" smooth="yes" name="sh01"/>
      <point x="325" y="0" type="line" name="dh01"/>
    </contour>
    <contour>
      <point x="446" y="1020" type="move" name="top"/>
    </contour>
    <contour>
      <point x="243" y="-20" type="move" name="bottom"/>
    </contour>
  </outline>
</glyph>
<glyph name="s" format="1">
  <unicode hex="0073"/>
  <advance width="871" height="1349.48"/>
  <outline>
    <contour>
      <point x="100" y="97" type="line"/>
      <point x="190" y="24"/>
      <point x="311" y="-20"/>
      <point x="428" y="-20" type="curve" smooth="yes" name="dv01"/>
      <point x="623" y="-20"/>
      <point x="771" y="102"/>
      <point x="771" y="278" type="curve" smooth="yes" name="sh01"/>
      <point x="771" y="456"/>
      <point x="621" y="526"/>
      <point x="490" y="586" type="curve" smooth="yes"/>
      <point x="389" y="633"/>
      <point x="299" y="675"/>
      <point x="299" y="757" type="curve" smooth="yes" name="sh03"/>
      <point x="299" y="825"/>
      <point x="361" y="870"/>
      <point x="464" y="870" type="curve" name="sv01"/>
      <point x="530" y="870"/>
      <point x="586" y="854"/>
      <point x="665" y="813" type="curve"/>
      <point x="735" y="941" type="line"/>
      <point x="657" y="991"/>
      <point x="553" y="1020"/>
      <point x="455" y="1020" type="curve" smooth="yes" name="at01"/>
      <point x="265" y="1020"/>
      <point x="134" y="909"/>
      <point x="134" y="747" type="curve" smooth="yes" name="sh02"/>
      <point x="134" y="581"/>
      <point x="271" y="520"/>
      <point x="398" y="463" type="curve" smooth="yes"/>
      <point x="506" y="415"/>
      <point x="606" y="370"/>
      <point x="606" y="267" type="curve" smooth="yes" name="ah01"/>
      <point x="606" y="185"/>
      <point x="543" y="130"/>
      <point x="435" y="130" type="curve" smooth="yes" name="dv02"/>
      <point x="346" y="130"/>
      <point x="255" y="168"/>
      <point x="178" y="236" type="curve"/>
    </contour>
    <contour>
      <point x="436" y="1020" type="move" name="top"/>
    </contour>
    <contour>
      <point x="436" y="-20" type="move" name="bottom"/>
    </contour>
  </outline>
</glyph>
<glyph name="t" format="1">
  <advance width="800"/>
  <unicode hex="0074"/>
  <outline>
    <contour>
      <point x="735" y="24" type="curve"/>
      <point x="708" y="165" type="line"/>
      <point x="666" y="140"/>
      <point x="622" y="127"/>
      <point x="580" y="127" type="curve" smooth="yes"/>
      <point x="475" y="127"/>
      <point x="404" y="207"/>
      <point x="404" y="327" type="curve" smooth="yes"/>
      <point x="404" y="853" type="line"/>
      <point x="703" y="853" type="line"/>
      <point x="703" y="1000" type="line"/>
      <point x="404" y="1000" type="line"/>
      <point x="404" y="1250" type="line"/>
      <point x="248" y="1250" type="line"/>
      <point x="248" y="1000" type="line"/>
      <point x="65" y="1000" type="line"/>
      <point x="65" y="853" type="line"/>
      <point x="240" y="853" type="line"/>
      <point x="240" y="297" type="line" smooth="yes"/>
      <point x="240" y="107"/>
      <point x="361" y="-20"/>
      <point x="542" y="-20" type="curve" smooth="yes"/>
      <point x="605" y="-20"/>
      <point x="670" y="-5"/>
    </contour>
  </outline>
</glyph>
<glyph name="u" format="1">
  <unicode hex="0075"/>
  <advance width="1210" height="1660"/>
  <outline>
    <contour>
      <point x="305" y="1000" type="line" name="ab01"/>
      <point x="305" y="456" type="line" smooth="yes" name="dh03"/>
      <point x="305" y="262"/>
      <point x="420" y="130"/>
      <point x="588" y="130" type="curve" smooth="yes"/>
      <point x="758" y="130"/>
      <point x="885" y="265"/>
      <point x="885" y="446" type="curve" smooth="yes" name="sh01"/>
      <point x="885" y="1000" type="line" name="ab02"/>
      <point x="1050" y="1000" type="line"/>
      <point x="1050" y="0" type="line" name="dh01"/>
      <point x="901" y="0" type="line"/>
      <point x="892" y="152" type="line"/>
      <point x="814" y="44"/>
      <point x="696" y="-20"/>
      <point x="555" y="-20" type="curve" smooth="yes"/>
      <point x="313" y="-20"/>
      <point x="140" y="170"/>
      <point x="140" y="436" type="curve" smooth="yes" name="dh04"/>
      <point x="140" y="1000" type="line"/>
    </contour>
    <contour>
      <point x="595" y="1020" type="move" name="top"/>
    </contour>
    <contour>
      <point x="595" y="-20" type="move" name="bottom"/>
    </contour>
  </outline>
</glyph>
<glyph name="v" format="1">
  <unicode hex="0076"/>
  <advance width="1054" height="1660"/>
  <outline>
    <contour>
      <point x="20" y="1000" type="line"/>
      <point x="199" y="1000" type="line" name="at01"/>
      <point x="465" y="358" type="line" smooth="yes"/>
      <point x="488" y="303"/>
      <point x="512" y="240"/>
      <point x="528" y="185" type="curve"/>
      <point x="532" y="185" type="line" name="iv01"/>
      <point x="548" y="241"/>
      <point x="569" y="296"/>
      <point x="595" y="359" type="curve" smooth="yes"/>
      <point x="861" y="1000" type="line" name="at02"/>
      <point x="1034" y="1000" type="line"/>
      <point x="619" y="0" type="line" name="ab01"/>
      <point x="435" y="0" type="line"/>
    </contour>
  </outline>
</glyph>
<glyph name="w" format="1">
  <unicode hex="0077"/>
  <advance width="1640" height="1660"/>
  <outline>
    <contour>
      <point x="60" y="1000" type="line"/>
      <point x="395" y="0" type="line" name="ab04"/>
      <point x="397" y="0" type="line" name="ab03"/>
      <point x="569" y="0" type="line"/>
      <point x="565" y="13" type="line"/>
      <point x="820" y="776" type="line"/>
      <point x="1078" y="6" type="line"/>
      <point x="1076" y="0" type="line" name="ab01"/>
      <point x="1080" y="0" type="line" name="ab02"/>
      <point x="1245" y="0" type="line"/>
      <point x="1580" y="1000" type="line"/>
      <point x="1411" y="1000" type="line" name="at01"/>
      <point x="1160" y="249" type="line"/>
      <point x="908" y="1000" type="line" name="at02"/>
      <point x="732" y="1000" type="line" name="at03"/>
      <point x="483" y="257" type="line"/>
      <point x="234" y="1000" type="line" name="at04"/>
    </contour>
    <contour>
      <point x="820" y="1020" type="move" name="top"/>
    </contour>
  </outline>
</glyph>
<glyph name="x" format="1">
  <advance width="1095"/>
  <unicode hex="0078"/>
  <outline>
    <contour>
      <point x="222.1" y="0" type="line"/>
      <point x="546.5" y="390.55" type="line"/>
      <point x="865.95" y="0" type="line"/>
      <point x="1080" y="0" type="line"/>
      <point x="653.25" y="520.85" type="line"/>
      <point x="1041" y="1000" type="line"/>
      <point x="834.45" y="1000" type="line"/>
      <point x="549.85" y="647.05" type="line"/>
      <point x="260.65" y="1000" type="line"/>
      <point x="48" y="1000" type="line"/>
      <point x="443.3" y="516.75" type="line"/>
      <point x="15.35" y="0" type="line"/>
    </contour>
  </outline>
</glyph>
<glyph name="y" format="2">
  <advance width="1177"/>
  <unicode hex="0079"/>
  <anchor x="973" y="0" name="bottom"/>
  <anchor x="613" y="1000" name="top"/>
  <outline>
    <contour>
      <point x="502" y="-500" type="line"/>
      <point x="1122" y="1000" type="line"/>
      <point x="944" y="1000" type="line"/>
      <point x="612" y="197" type="line"/>
      <point x="236" y="1000" type="line"/>
      <point x="55" y="1000" type="line"/>
      <point x="533" y="8" type="line"/>
      <point x="323" y="-500" type="line"/>
    </contour>
  </outline>
</glyph>
<glyph name="z" format="2">
  <advance width="1043"/>
  <unicode hex="007A"/>
  <anchor x="522" y="0" name="bottom"/>
  <anchor x="522" y="500" name="center"/>
  <anchor x="542" y="1000" name="top"/>
  <outline>
    <contour>
      <point x="968" y="0" type="line"/>
      <point x="968" y="148" type="line"/>
      <point x="315" y="148" type="line"/>
      <point x="943" y="921" type="line"/>
      <point x="943" y="1000" type="line"/>
      <point x="105" y="1000" type="line"/>
      <point x="105" y="852" type="line"/>
      <point x="694" y="852" type="line"/>
      <point x="75" y="91" type="line"/>
      <point x="75" y="0" type="line"/>
    </contour>
  </outline>
</glyph>
<glyph name="braceleft" format="2">
  <advance width="620"/>
  <unicode hex="007B"/>
  <outline>
    <contour>
      <point x="545" y="-289" type="curve"/>
      <point x="545" y="-156" type="line"/>
      <point x="433" y="-156"/>
      <point x="385" y="-108"/>
      <point x="385" y="0" type="curve" smooth="yes"/>
      <point x="385" y="375" type="line" smooth="yes"/>
      <point x="385" y="488"/>
      <point x="326" y="582"/>
      <point x="232" y="625" type="curve"/>
      <point x="326" y="668"/>
      <point x="385" y="762"/>
      <point x="385" y="875" type="curve" smooth="yes"/>
      <point x="385" y="1253" type="line" smooth="yes"/>
      <point x="385" y="1361"/>
      <point x="433" y="1407"/>
      <point x="545" y="1407" type="curve"/>
      <point x="545" y="1540" type="line"/>
      <point x="343" y="1540"/>
      <point x="239" y="1455"/>
      <point x="239" y="1288" type="curve" smooth="yes"/>
      <point x="239" y="879" type="line" smooth="yes"/>
      <point x="239" y="764"/>
      <point x="167" y="670"/>
      <point x="75" y="663" type="curve"/>
      <point x="75" y="588" type="line"/>
      <point x="167" y="581"/>
      <point x="239" y="487"/>
      <point x="239" y="372" type="curve" smooth="yes"/>
      <point x="239" y="-37" type="line" smooth="yes"/>
      <point x="239" y="-204"/>
      <point x="343" y="-289"/>
    </contour>
  </outline>
</glyph>
<glyph name="bar" format="1">
  <unicode hex="007C"/>
  <advance width="460" height="1660"/>
  <outline>
    <contour>
      <point x="300" y="1540" type="line" name="av01"/>
      <point x="160" y="1540" type="line" name="dh01"/>
      <point x="160" y="-250" type="line" name="av02"/>
      <point x="300" y="-250" type="line"/>
    </contour>
  </outline>
</glyph>
<glyph name="braceright" format="1">
  <unicode hex="007D"/>
  <advance width="660" height="1660"/>
  <outline>
    <contour>
      <point x="268" y="26" type="curve" smooth="yes"/>
      <point x="268" y="310" type="line" smooth="yes"/>
      <point x="268" y="468"/>
      <point x="302" y="570"/>
      <point x="408" y="615" type="curve" smooth="yes"/>
      <point x="416" y="619"/>
      <point x="425" y="622"/>
      <point x="434" y="625" type="curve"/>
      <point x="425" y="628"/>
      <point x="416" y="631"/>
      <point x="408" y="635" type="curve" smooth="yes"/>
      <point x="302" y="680"/>
      <point x="268" y="782"/>
      <point x="268" y="940" type="curve" smooth="yes"/>
      <point x="268" y="1224" type="line" smooth="yes"/>
      <point x="268" y="1319"/>
      <point x="241" y="1410"/>
      <point x="100" y="1410" type="curve" name="dv03"/>
      <point x="100" y="1540" type="line" name="dv04"/>
      <point x="349" y="1540"/>
      <point x="408" y="1412"/>
      <point x="408" y="1263" type="curve" smooth="yes"/>
      <point x="408" y="872" type="line" smooth="yes"/>
      <point x="408" y="793"/>
      <point x="451" y="699"/>
      <point x="568" y="699" type="curve" name="dv08"/>
      <point x="568" y="551" type="line" name="dv05"/>
      <point x="451" y="551"/>
      <point x="408" y="457"/>
      <point x="408" y="378" type="curve" smooth="yes"/>
      <point x="408" y="-13" type="line" smooth="yes"/>
      <point x="408" y="-162"/>
      <point x="349" y="-290"/>
      <point x="100" y="-290" type="curve" name="dv01"/>
      <point x="100" y="-160" type="line" name="dv02"/>
      <point x="241" y="-160"/>
      <point x="268" y="-69"/>
    </contour>
  </outline>
</glyph>
<glyph name="asciitilde" format="1">
  <unicode hex="007E"/>
  <advance width="1360" height="1660"/>
  <outline>
    <contour>
      <point x="1200" y="700" type="line" name="iv01"/>
      <point x="1130" y="624"/>
      <point x="1035" y="556"/>
      <point x="927" y="556" type="curve" smooth="yes"/>
      <point x="761" y="556"/>
      <point x="667" y="720"/>
      <point x="458" y="720" type="curve" smooth="yes" name="dv02"/>
      <point x="346" y="720"/>
      <point x="237" y="654"/>
      <point x="160" y="577" type="curve"/>
      <point x="160" y="443" type="line"/>
      <point x="173" y="458"/>
      <point x="288" y="590"/>
      <point x="444" y="590" type="curve" smooth="yes" name="dv01"/>
      <point x="618" y="590"/>
      <point x="732" y="426"/>
      <point x="914" y="426" type="curve" smooth="yes" name="av01"/>
      <point x="1024" y="426"/>
      <point x="1127" y="487"/>
      <point x="1200" y="566" type="curve"/>
    </contour>
  </outline>
</glyph>
<glyph name="exclamdown" format="1">
  <unicode hex="00A1"/>
  <advance width="550"/>
  <outline>
    <contour>
      <point x="210" y="620" type="line"/>
      <point x="341" y="620" type="line"/>
      <point x="361" y="-500" type="line" name="ab01"/>
      <point x="190" y="-500" type="line"/>
    </contour>
    <contour>
      <point x="160" y="905" type="curve" smooth="yes" name="dh01"/>
      <point x="160" y="971"/>
      <point x="209" y="1020"/>
      <point x="274" y="1020" type="curve" smooth="yes" name="at01"/>
      <point x="340" y="1020"/>
      <point x="390" y="971"/>
      <point x="390" y="905" type="curve" smooth="yes" name="dh02"/>
      <point x="390" y="839"/>
      <point x="340" y="790"/>
      <point x="274" y="790" type="curve" smooth="yes" name="sv01"/>
      <point x="209" y="790"/>
      <point x="160" y="839"/>
    </contour>
  </outline>
</glyph>
<glyph name="cent" format="1">
  <advance width="1061"/>
  <unicode hex="00A2"/>
  <outline>
    <contour>
      <point x="986" y="284" type="curve"/>
      <point x="887" y="386" type="line"/>
      <point x="820" y="312"/>
      <point x="720" y="267"/>
      <point x="608.497" y="267" type="curve" smooth="yes"/>
      <point x="400" y="267"/>
      <point x="243" y="428"/>
      <point x="243" y="641" type="curve" smooth="yes"/>
      <point x="243" y="853"/>
      <point x="400" y="1012"/>
      <point x="609.692" y="1012" type="curve" smooth="yes"/>
      <point x="720" y="1012"/>
      <point x="819" y="968"/>
      <point x="887" y="894" type="curve"/>
      <point x="985" y="997" type="line"/>
      <point x="903" y="1087"/>
      <point x="787" y="1145"/>
      <point x="655" y="1157" type="curve"/>
      <point x="655" y="1340" type="line" name="av02.1"/>
      <point x="545" y="1340" type="line" name="sh02.1"/>
      <point x="545" y="1158" type="line"/>
      <point x="274" y="1134"/>
      <point x="75" y="920"/>
      <point x="75" y="640" type="curve" smooth="yes"/>
      <point x="75" y="360"/>
      <point x="274" y="146"/>
      <point x="545" y="122" type="curve"/>
      <point x="545" y="-60" type="line" name="av01.1"/>
      <point x="656" y="-60" type="line"/>
      <point x="656" y="123" type="line"/>
      <point x="788" y="136"/>
      <point x="904" y="194"/>
    </contour>
  </outline>
</glyph>
<glyph name="sterling" format="1">
  <unicode hex="00A3"/>
  <advance width="1217"/>
  <outline>
    <contour>
      <point x="487" y="811" type="line"/>
      <point x="487" y="814"/>
      <point x="486" y="816"/>
      <point x="485" y="819" type="curve" smooth="yes"/>
      <point x="443" y="955"/>
      <point x="428" y="1027"/>
      <point x="428" y="1101" type="curve" smooth="yes" name="dh02"/>
      <point x="428" y="1259"/>
      <point x="537" y="1373"/>
      <point x="682" y="1373" type="curve" smooth="yes" name="sv02"/>
      <point x="769" y="1373"/>
      <point x="847" y="1332"/>
      <point x="931" y="1230" type="curve"/>
      <point x="1057" y="1322" type="line"/>
      <point x="978" y="1448"/>
      <point x="836" y="1523"/>
      <point x="678" y="1523" type="curve" smooth="yes" name="at01"/>
      <point x="432" y="1523"/>
      <point x="258" y="1342"/>
      <point x="258" y="1084" type="curve" smooth="yes" name="dh01"/>
      <point x="258" y="1005"/>
      <point x="274" y="921"/>
      <point x="311" y="811" type="curve"/>
      <point x="160" y="811" type="line" name="dv02"/>
      <point x="160" y="681" type="line" name="dv01"/>
      <point x="353" y="681" type="line"/>
      <point x="368" y="621"/>
      <point x="376" y="570"/>
      <point x="376" y="521" type="curve" smooth="yes" name="ih01"/>
      <point x="376" y="382"/>
      <point x="315" y="250"/>
      <point x="180" y="96" type="curve"/>
      <point x="180" y="0" type="line" name="ab02"/>
      <point x="1047" y="0" type="line"/>
      <point x="1047" y="150" type="line" name="sv01"/>
      <point x="394" y="150" type="line"/>
      <point x="489" y="265"/>
      <point x="534" y="389"/>
      <point x="534" y="532" type="curve" smooth="yes" name="sh01"/>
      <point x="534" y="580"/>
      <point x="529" y="629"/>
      <point x="519" y="681" type="curve"/>
      <point x="870" y="681" type="line"/>
      <point x="870" y="811" type="line"/>
    </contour>
  </outline>
</glyph>
<glyph name="currency" format="1">
  <unicode hex="00A4"/>
  <advance width="1362"/>
  <outline>
    <contour>
      <point x="160" y="1173" type="line"/>
      <point x="311" y="1022" type="line"/>
      <point x="258" y="947"/>
      <point x="227" y="854"/>
      <point x="227" y="750" type="curve" smooth="yes" name="sh01"/>
      <point x="227" y="645"/>
      <point x="258" y="552"/>
      <point x="311" y="477" type="curve"/>
      <point x="160" y="327" type="line"/>
      <point x="258" y="229" type="line"/>
      <point x="408" y="380" type="line"/>
      <point x="483" y="327"/>
      <point x="576" y="296"/>
      <point x="681" y="296" type="curve" smooth="yes" name="dv01"/>
      <point x="786" y="296"/>
      <point x="879" y="326"/>
      <point x="954" y="380" type="curve"/>
      <point x="1104" y="229" type="line"/>
      <point x="1202" y="327" type="line"/>
      <point x="1051" y="476" type="line"/>
      <point x="1105" y="551"/>
      <point x="1136" y="645"/>
      <point x="1136" y="750" type="curve" smooth="yes" name="sh02"/>
      <point x="1136" y="855"/>
      <point x="1105" y="948"/>
      <point x="1051" y="1022" type="curve"/>
      <point x="1202" y="1173" type="line"/>
      <point x="1104" y="1271" type="line"/>
      <point x="954" y="1119" type="line"/>
      <point x="879" y="1173"/>
      <point x="786" y="1203"/>
      <point x="681" y="1203" type="curve" smooth="yes" name="dv04"/>
      <point x="577" y="1203"/>
      <point x="483" y="1173"/>
      <point x="409" y="1119" type="curve"/>
      <point x="258" y="1271" type="line"/>
    </contour>
    <contour>
      <point x="681" y="1072" type="curve" smooth="yes" name="dv03"/>
      <point x="864" y="1072"/>
      <point x="997" y="936"/>
      <point x="997" y="750" type="curve" smooth="yes" name="ah01"/>
      <point x="997" y="563"/>
      <point x="864" y="428"/>
      <point x="681" y="428" type="curve" smooth="yes" name="dv02"/>
      <point x="499" y="428"/>
      <point x="365" y="563"/>
      <point x="365" y="750" type="curve" smooth="yes" name="sh03"/>
      <point x="365" y="936"/>
      <point x="499" y="1072"/>
    </contour>
  </outline>
</glyph>
<glyph name="yen" format="1">
  <unicode hex="00A5"/>
  <advance width="1371"/>
  <outline>
    <contour>
      <point x="599" y="752" type="line"/>
      <point x="271" y="752" type="line"/>
      <point x="271" y="632" type="line"/>
      <point x="631" y="632" type="line"/>
      <point x="631" y="486" type="line"/>
      <point x="271" y="486" type="line"/>
      <point x="271" y="366" type="line"/>
      <point x="631" y="366" type="line"/>
      <point x="631" y="1" type="line" name="ab01"/>
      <point x="791" y="1" type="line" name="dh01"/>
      <point x="791" y="366" type="line"/>
      <point x="1151" y="366" type="line"/>
      <point x="1151" y="486" type="line"/>
      <point x="791" y="486" type="line"/>
      <point x="791" y="632" type="line"/>
      <point x="1151" y="632" type="line"/>
      <point x="1151" y="752" type="line"/>
      <point x="822" y="752" type="line"/>
      <point x="1261" y="1499" type="line" name="at02"/>
      <point x="1087" y="1499" type="line"/>
      <point x="710" y="857" type="line"/>
      <point x="334" y="1499" type="line" name="at01"/>
      <point x="160" y="1499" type="line"/>
    </contour>
  </outline>
</glyph>
<glyph name="brokenbar" format="1">
  <advance width="456"/>
  <unicode hex="00A6"/>
  <outline>
    <contour>
      <point x="301" y="820" type="line"/>
      <point x="301" y="1540" type="line" name="av01"/>
      <point x="155" y="1540" type="line" name="dh01"/>
      <point x="155" y="820" type="line"/>
    </contour>
    <contour>
      <point x="301" y="-250" type="line"/>
      <point x="301" y="470" type="line" name="sh01"/>
      <point x="155" y="470" type="line" name="sh02"/>
      <point x="155" y="-250" type="line" name="av02"/>
    </contour>
  </outline>
</glyph>
<glyph name="section" format="1">
  <unicode hex="00A7"/>
  <advance width="1078"/>
  <outline>
    <contour>
      <point x="160" y="722" type="curve" smooth="yes" name="dh01"/>
      <point x="160" y="341"/>
      <point x="714" y="395"/>
      <point x="714" y="162" type="curve" smooth="yes" name="dh03"/>
      <point x="714" y="69"/>
      <point x="627" y="0"/>
      <point x="505" y="0" type="curve" smooth="yes" name="dv02"/>
      <point x="434" y="0"/>
      <point x="356" y="24"/>
      <point x="259" y="76" type="curve"/>
      <point x="188" y="-55" type="line"/>
      <point x="295" y="-108"/>
      <point x="405" y="-136"/>
      <point x="509" y="-136" type="curve" smooth="yes" name="dv01"/>
      <point x="727" y="-136"/>
      <point x="877" y="-13"/>
      <point x="877" y="172" type="curve" smooth="yes" name="dh04"/>
      <point x="877" y="273"/>
      <point x="833" y="339"/>
      <point x="769" y="389" type="curve"/>
      <point x="865" y="453"/>
      <point x="918" y="554"/>
      <point x="918" y="672" type="curve" smooth="yes" name="sh01"/>
      <point x="918" y="1053"/>
      <point x="364" y="999"/>
      <point x="364" y="1232" type="curve" smooth="yes" name="sh02"/>
      <point x="364" y="1325"/>
      <point x="451" y="1394"/>
      <point x="573" y="1394" type="curve" smooth="yes" name="sv01"/>
      <point x="644" y="1394"/>
      <point x="722" y="1370"/>
      <point x="819" y="1318" type="curve"/>
      <point x="890" y="1449" type="line"/>
      <point x="783" y="1502"/>
      <point x="673" y="1530"/>
      <point x="569" y="1530" type="curve" smooth="yes" name="at01"/>
      <point x="351" y="1530"/>
      <point x="201" y="1407"/>
      <point x="201" y="1222" type="curve" smooth="yes" name="ih03"/>
      <point x="201" y="1121"/>
      <point x="245" y="1055"/>
      <point x="309" y="1005" type="curve"/>
      <point x="213" y="941"/>
      <point x="160" y="840"/>
    </contour>
    <contour>
      <point x="770" y="641" type="curve" smooth="yes" name="ih01"/>
      <point x="770" y="577"/>
      <point x="744" y="507"/>
      <point x="671" y="449" type="curve" name="ih04"/>
      <point x="509" y="530"/>
      <point x="308" y="574"/>
      <point x="308" y="753" type="curve" smooth="yes" name="dh02"/>
      <point x="308" y="817"/>
      <point x="334" y="887"/>
      <point x="407" y="945" type="curve" name="ih02"/>
      <point x="569" y="864"/>
      <point x="770" y="820"/>
    </contour>
  </outline>
</glyph>
<glyph name="dieresis" format="1">
  <unicode hex="00A8"/>
  <advance width="940"/>
  <outline>
    <contour>
      <point x="160" y="1335" type="curve" smooth="yes"/>
      <point x="160" y="1277"/>
      <point x="203" y="1235"/>
      <point x="260" y="1235" type="curve" smooth="yes"/>
      <point x="318" y="1235"/>
      <point x="360" y="1277"/>
      <point x="360" y="1335" type="curve" smooth="yes"/>
      <point x="360" y="1392"/>
      <point x="318" y="1435"/>
      <point x="260" y="1435" type="curve" smooth="yes"/>
      <point x="203" y="1435"/>
      <point x="160" y="1392"/>
    </contour>
    <contour>
      <point x="580" y="1335" type="curve" smooth="yes"/>
      <point x="580" y="1277"/>
      <point x="623" y="1235"/>
      <point x="680" y="1235" type="curve" smooth="yes"/>
      <point x="738" y="1235"/>
      <point x="780" y="1277"/>
      <point x="780" y="1335" type="curve" smooth="yes"/>
      <point x="780" y="1392"/>
      <point x="738" y="1435"/>
      <point x="680" y="1435" type="curve" smooth="yes"/>
      <point x="623" y="1435"/>
      <point x="580" y="1392"/>
    </contour>
    <contour>
      <point x="470" y="1020" type="move" name="_top"/>
    </contour>
  </outline>
</glyph>
<glyph name="copyright" format="1">
  <unicode hex="00A9"/>
  <advance width="1405"/>
  <outline>
    <contour>
      <point x="885" y="366" type="line"/>
      <point x="843" y="319"/>
      <point x="788" y="291"/>
      <point x="726" y="291" type="curve" smooth="yes" name="dv06"/>
      <point x="617" y="291"/>
      <point x="534" y="378"/>
      <point x="534" y="500" type="curve" smooth="yes" name="dh04"/>
      <point x="534" y="621"/>
      <point x="617" y="709"/>
      <point x="726" y="709" type="curve" smooth="yes" name="dv07"/>
      <point x="788" y="709"/>
      <point x="843" y="681"/>
      <point x="885" y="633" type="curve"/>
      <point x="977" y="725" type="line"/>
      <point x="911" y="790"/>
      <point x="825" y="829"/>
      <point x="726" y="829" type="curve" smooth="yes" name="dv08"/>
      <point x="539" y="829"/>
      <point x="399" y="690"/>
      <point x="399" y="500" type="curve" smooth="yes" name="dh03"/>
      <point x="399" y="310"/>
      <point x="539" y="171"/>
      <point x="727" y="171" type="curve" smooth="yes" name="dv05"/>
      <point x="825" y="171"/>
      <point x="911" y="209"/>
      <point x="977" y="275" type="curve"/>
    </contour>
    <contour>
      <point x="223" y="500" type="curve" smooth="yes" name="dh02"/>
      <point x="223" y="779"/>
      <point x="426" y="985"/>
      <point x="703" y="985" type="curve" smooth="yes" name="dv03"/>
      <point x="978" y="985"/>
      <point x="1182" y="779"/>
      <point x="1182" y="500" type="curve" smooth="yes" name="dh05"/>
      <point x="1182" y="219"/>
      <point x="978" y="15"/>
      <point x="703" y="15" type="curve" smooth="yes" name="dv02"/>
      <point x="426" y="15"/>
      <point x="223" y="219"/>
    </contour>
    <contour>
      <point x="100" y="500" type="curve" smooth="yes" name="dh01"/>
      <point x="100" y="152"/>
      <point x="354" y="-102"/>
      <point x="703" y="-102" type="curve" smooth="yes" name="dv01"/>
      <point x="1050" y="-102"/>
      <point x="1305" y="152"/>
      <point x="1305" y="500" type="curve" smooth="yes" name="dh06"/>
      <point x="1305" y="847"/>
      <point x="1050" y="1102"/>
      <point x="703" y="1102" type="curve" smooth="yes" name="dv04"/>
      <point x="354" y="1102"/>
      <point x="100" y="847"/>
    </contour>
  </outline>
</glyph>
<glyph name="ordfeminine" format="1">
  <unicode hex="00AA"/>
  <advance width="875"/>
  <outline>
    <contour>
      <point x="100" y="1008" type="curve" smooth="yes" name="dh01"/>
      <point x="100" y="868"/>
      <point x="211" y="780"/>
      <point x="365" y="780" type="curve" smooth="yes" name="av01"/>
      <point x="468" y="780"/>
      <point x="545" y="820"/>
      <point x="592" y="883" type="curve"/>
      <point x="597" y="800" type="line" name="sh02"/>
      <point x="715" y="800" type="line"/>
      <point x="715" y="1213" type="line" smooth="yes" name="sh03"/>
      <point x="715" y="1400"/>
      <point x="597" y="1520"/>
      <point x="403" y="1520" type="curve" smooth="yes" name="at01"/>
      <point x="324" y="1520"/>
      <point x="253" y="1500"/>
      <point x="153" y="1448" type="curve"/>
      <point x="201" y="1339" type="line"/>
      <point x="276" y="1382"/>
      <point x="340" y="1403"/>
      <point x="402" y="1403" type="curve" smooth="yes"/>
      <point x="517" y="1403"/>
      <point x="586" y="1331"/>
      <point x="586" y="1218" type="curve" name="sh01"/>
      <point x="530" y="1235"/>
      <point x="468" y="1244"/>
      <point x="408" y="1244" type="curve" smooth="yes"/>
      <point x="220" y="1244"/>
      <point x="100" y="1154"/>
    </contour>
    <contour>
      <point x="417" y="1126" type="curve" smooth="yes"/>
      <point x="473" y="1126"/>
      <point x="534" y="1115"/>
      <point x="586" y="1098" type="curve"/>
      <point x="586" y="1091" type="line" smooth="yes" name="dh03"/>
      <point x="586" y="982"/>
      <point x="494" y="897"/>
      <point x="376" y="897" type="curve" smooth="yes"/>
      <point x="293" y="897"/>
      <point x="233" y="938"/>
      <point x="233" y="1009" type="curve" smooth="yes" name="dh02"/>
      <point x="233" y="1093"/>
      <point x="320" y="1126"/>
    </contour>
  </outline>
</glyph>
<glyph name="guillemotleft" format="1">
  <unicode hex="00AB"/>
  <advance width="1159"/>
  <outline>
    <contour>
      <point x="500" y="500" type="line"/>
      <point x="827" y="110" type="line" name="av01"/>
      <point x="999" y="110" type="line"/>
      <point x="662" y="500" type="line"/>
      <point x="999" y="890" type="line"/>
      <point x="827" y="890" type="line" name="av03"/>
    </contour>
    <contour>
      <point x="427" y="110" type="line" name="av02"/>
      <point x="599" y="110" type="line"/>
      <point x="262" y="500" type="line"/>
      <point x="599" y="890" type="line"/>
      <point x="427" y="890" type="line" name="av04"/>
      <point x="100" y="500" type="line"/>
    </contour>
  </outline>
</glyph>
<glyph name="logicalnot" format="1">
  <unicode hex="00AC"/>
  <advance width="1140"/>
  <outline>
    <contour>
      <point x="160" y="580" type="line"/>
      <point x="980" y="580" type="line" name="dv02"/>
      <point x="980" y="141" type="line" name="av01"/>
      <point x="840" y="141" type="line"/>
      <point x="840" y="450" type="line"/>
      <point x="160" y="450" type="line"/>
    </contour>
  </outline>
</glyph>
<glyph name="registered" format="1">
  <advance width="1349"/>
  <unicode hex="00AE"/>
  <outline>
    <contour>
      <point x="675" y="423" type="curve" smooth="yes"/>
      <point x="1021" y="423"/>
      <point x="1274" y="676"/>
      <point x="1274" y="1022" type="curve" smooth="yes"/>
      <point x="1274" y="1367"/>
      <point x="1021" y="1620"/>
      <point x="675" y="1620" type="curve" smooth="yes"/>
      <point x="328" y="1620"/>
      <point x="75" y="1367"/>
      <point x="75" y="1022" type="curve" smooth="yes"/>
      <point x="75" y="676"/>
      <point x="328" y="423"/>
    </contour>
    <contour>
      <point x="675" y="534" type="curve" smooth="yes"/>
      <point x="394" y="534"/>
      <point x="189" y="739"/>
      <point x="189" y="1020" type="curve" smooth="yes"/>
      <point x="189" y="1302"/>
      <point x="396" y="1510"/>
      <point x="675" y="1510" type="curve" smooth="yes"/>
      <point x="953" y="1510"/>
      <point x="1159" y="1301"/>
      <point x="1159" y="1020" type="curve" smooth="yes"/>
      <point x="1159" y="740"/>
      <point x="955" y="534"/>
    </contour>
    <contour>
      <point x="933" y="703" type="line"/>
      <point x="784" y="978" type="line"/>
      <point x="861" y="1006"/>
      <point x="906" y="1068"/>
      <point x="906" y="1152" type="curve" smooth="yes"/>
      <point x="906" y="1271"/>
      <point x="817" y="1345"/>
      <point x="673" y="1345" type="curve" smooth="yes"/>
      <point x="458" y="1345" type="line"/>
      <point x="458" y="703" type="line"/>
      <point x="568" y="703" type="line"/>
      <point x="568" y="961" type="line"/>
      <point x="669" y="961" type="line"/>
      <point x="807" y="703" type="line"/>
    </contour>
    <contour>
      <point x="568" y="1061" type="line"/>
      <point x="568" y="1245" type="line"/>
      <point x="657" y="1245" type="line" smooth="yes"/>
      <point x="752" y="1245"/>
      <point x="796" y="1216"/>
      <point x="796" y="1154" type="curve" smooth="yes"/>
      <point x="796" y="1091"/>
      <point x="752" y="1061"/>
      <point x="657" y="1061" type="curve" smooth="yes"/>
    </contour>
  </outline>
</glyph>
<glyph name="macron" format="1">
  <advance width="959"/>
  <unicode hex="00AF"/>
  <outline>
    <contour>
      <point x="804" y="1292" type="line" name="av02"/>
      <point x="804" y="1392" type="line"/>
      <point x="155" y="1392" type="line" name="av01"/>
      <point x="155" y="1292" type="line"/>
    </contour>
  </outline>
</glyph>
<glyph name="degree" format="1">
  <unicode hex="00B0"/>
  <advance width="820"/>
  <outline>
    <contour>
      <point x="280" y="1270" type="curve" smooth="yes" name="sh02"/>
      <point x="280" y="1189"/>
      <point x="334" y="1130"/>
      <point x="410" y="1130" type="curve" smooth="yes"/>
      <point x="485" y="1130"/>
      <point x="540" y="1189"/>
      <point x="540" y="1270" type="curve" smooth="yes" name="ah01"/>
      <point x="540" y="1351"/>
      <point x="485" y="1410"/>
      <point x="410" y="1410" type="curve" smooth="yes"/>
      <point x="334" y="1410"/>
      <point x="280" y="1351"/>
    </contour>
    <contour>
      <point x="160" y="1270" type="curve" smooth="yes" name="sh01"/>
      <point x="160" y="1414"/>
      <point x="265" y="1520"/>
      <point x="410" y="1520" type="curve" smooth="yes" name="at01"/>
      <point x="554" y="1520"/>
      <point x="660" y="1414"/>
      <point x="660" y="1270" type="curve" smooth="yes" name="sh03"/>
      <point x="660" y="1125"/>
      <point x="554" y="1020"/>
      <point x="410" y="1020" type="curve" smooth="yes" name="at02"/>
      <point x="265" y="1020"/>
      <point x="160" y="1125"/>
    </contour>
  </outline>
</glyph>
<glyph name="plusminus" format="1">
  <advance width="1144"/>
  <unicode hex="00B1"/>
  <outline>
    <contour>
      <point x="645" y="258" type="line"/>
      <point x="645" y="610" type="line"/>
      <point x="989" y="610" type="line"/>
      <point x="989" y="742" type="line"/>
      <point x="645" y="742" type="line"/>
      <point x="645" y="1084" type="line"/>
      <point x="499" y="1084" type="line"/>
      <point x="499" y="742" type="line"/>
      <point x="155" y="742" type="line"/>
      <point x="155" y="610" type="line"/>
      <point x="499" y="610" type="line"/>
      <point x="499" y="258" type="line"/>
    </contour>
    <contour>
      <point x="989" y="0" type="line"/>
      <point x="989" y="129" type="line"/>
      <point x="156" y="129" type="line" name="dv02"/>
      <point x="156" y="0" type="line" name="dv01"/>
    </contour>
  </outline>
</glyph>
<glyph name="twosuperior" format="1">
  <unicode hex="00B2"/>
  <advance width="824"/>
  <outline>
    <contour>
      <point x="100" y="1334" type="curve"/>
      <point x="201" y="1262" type="line"/>
      <point x="253" y="1350"/>
      <point x="320" y="1390"/>
      <point x="384" y="1390" type="curve" smooth="yes"/>
      <point x="454" y="1390"/>
      <point x="503" y="1341"/>
      <point x="503" y="1273" type="curve" smooth="yes" name="dh01"/>
      <point x="503" y="1171"/>
      <point x="397" y="1042"/>
      <point x="134" y="809" type="curve"/>
      <point x="134" y="700" type="line" name="av01"/>
      <point x="664" y="700" type="line"/>
      <point x="664" y="820" type="line"/>
      <point x="297" y="820" type="line" name="iv01"/>
      <point x="510" y="989"/>
      <point x="632" y="1137"/>
      <point x="632" y="1280" type="curve" smooth="yes" name="dh02"/>
      <point x="632" y="1414"/>
      <point x="526" y="1510"/>
      <point x="381" y="1510" type="curve" smooth="yes" name="at01"/>
      <point x="259" y="1510"/>
      <point x="164" y="1440"/>
    </contour>
  </outline>
</glyph>
<glyph name="threesuperior" format="1">
  <unicode hex="00B3"/>
  <advance width="836"/>
  <outline>
    <contour>
      <point x="100" y="819" type="line"/>
      <point x="198" y="726"/>
      <point x="276" y="690"/>
      <point x="384" y="690" type="curve" smooth="yes" name="av01"/>
      <point x="559" y="690"/>
      <point x="676" y="783"/>
      <point x="676" y="921" type="curve" smooth="yes" name="sh01"/>
      <point x="676" y="1015"/>
      <point x="623" y="1086"/>
      <point x="526" y="1126" type="curve"/>
      <point x="598" y="1166"/>
      <point x="642" y="1230"/>
      <point x="642" y="1304" type="curve" smooth="yes" name="dh02"/>
      <point x="642" y="1422"/>
      <point x="532" y="1510"/>
      <point x="388" y="1510" type="curve" smooth="yes" name="at01"/>
      <point x="292" y="1510"/>
      <point x="209" y="1470"/>
      <point x="130" y="1386" type="curve"/>
      <point x="223" y="1298" type="line"/>
      <point x="282" y="1363"/>
      <point x="332" y="1391"/>
      <point x="391" y="1391" type="curve" smooth="yes"/>
      <point x="458" y="1391"/>
      <point x="505" y="1353"/>
      <point x="505" y="1295" type="curve" smooth="yes" name="dh01"/>
      <point x="505" y="1226"/>
      <point x="439" y="1179"/>
      <point x="339" y="1179" type="curve" smooth="yes"/>
      <point x="276" y="1179" type="line"/>
      <point x="276" y="1060" type="line"/>
      <point x="339" y="1060" type="line" smooth="yes"/>
      <point x="464" y="1060"/>
      <point x="538" y="1013"/>
      <point x="538" y="932" type="curve" smooth="yes" name="ih01"/>
      <point x="538" y="860"/>
      <point x="477" y="809"/>
      <point x="391" y="809" type="curve" smooth="yes"/>
      <point x="320" y="809"/>
      <point x="256" y="843"/>
      <point x="190" y="914" type="curve"/>
    </contour>
  </outline>
</glyph>
<glyph name="acute" format="1">
  <advance width="494"/>
  <unicode hex="00B4"/>
  <outline>
    <contour>
      <point x="214" y="1166" type="line"/>
      <point x="409" y="1500" type="line"/>
      <point x="252" y="1500" type="line"/>
      <point x="95" y="1166" type="line"/>
    </contour>
  </outline>
</glyph>
<glyph name="mu" format="1">
  <advance width="1310"/>
  <unicode hex="00B5"/>
  <outline>
    <contour>
      <point x="1267" y="-20" type="curve"/>
      <point x="1275" y="104" type="line"/>
      <point x="1141" y="104"/>
      <point x="1071" y="181"/>
      <point x="1071" y="328" type="curve" smooth="yes"/>
      <point x="1071" y="1000" type="line"/>
      <point x="907" y="1000" type="line"/>
      <point x="907" y="467" type="line" smooth="yes"/>
      <point x="907" y="256"/>
      <point x="797" y="128"/>
      <point x="616" y="128" type="curve" smooth="yes"/>
      <point x="434" y="128"/>
      <point x="319" y="258"/>
      <point x="319" y="467" type="curve" smooth="yes"/>
      <point x="319" y="1000" type="line"/>
      <point x="160" y="1000" type="line"/>
      <point x="160" y="-500" type="line"/>
      <point x="317" y="-500" type="line"/>
      <point x="317" y="131" type="line"/>
      <point x="384" y="34"/>
      <point x="490" y="-20"/>
      <point x="626" y="-20" type="curve" smooth="yes"/>
      <point x="776" y="-20"/>
      <point x="893" y="45"/>
      <point x="962" y="160" type="curve"/>
      <point x="1009" y="38"/>
      <point x="1109" y="-20"/>
    </contour>
  </outline>
</glyph>
<glyph name="paragraph" format="1">
  <unicode hex="00B6"/>
  <advance width="1245"/>
  <outline>
    <contour>
      <point x="100" y="1073" type="curve" smooth="yes"/>
      <point x="100" y="795"/>
      <point x="296" y="640"/>
      <point x="635" y="640" type="curve"/>
      <point x="635" y="-150" type="line" name="sh02"/>
      <point x="785" y="-150" type="line" name="av02"/>
      <point x="785" y="1340" type="line"/>
      <point x="935" y="1340" type="line" name="sv01"/>
      <point x="935" y="-150" type="line" name="sh01"/>
      <point x="1085" y="-150" type="line" name="av01"/>
      <point x="1085" y="1500" type="line" name="at01"/>
      <point x="647" y="1500" type="line" smooth="yes" name="sh03"/>
      <point x="364" y="1500"/>
      <point x="100" y="1396"/>
    </contour>
  </outline>
</glyph>
<glyph name="periodcentered" format="2">
  <advance width="462"/>
  <unicode hex="00B7"/>
  <outline>
    <contour>
      <point x="231" y="430" type="curve" smooth="yes"/>
      <point x="290.302" y="430"/>
      <point x="331" y="470.698"/>
      <point x="331" y="530" type="curve" smooth="yes"/>
      <point x="331" y="589.302"/>
      <point x="290.302" y="630"/>
      <point x="231" y="630" type="curve" smooth="yes"/>
      <point x="171.698" y="630"/>
      <point x="131" y="589.302"/>
      <point x="131" y="530" type="curve" smooth="yes"/>
      <point x="131" y="470.698"/>
      <point x="171.698" y="430"/>
    </contour>
  </outline>
</glyph>
<glyph name="cedilla" format="1">
  <unicode hex="00B8"/>
  <advance width="704"/>
  <outline>
    <contour>
      <point x="160" y="-384" type="curve"/>
      <point x="206" y="-309" type="line"/>
      <point x="227" y="-322"/>
      <point x="253" y="-329"/>
      <point x="282" y="-329" type="curve" smooth="yes"/>
      <point x="356" y="-329"/>
      <point x="415" y="-284"/>
      <point x="415" y="-224" type="curve" smooth="yes" name="dh01"/>
      <point x="415" y="-169"/>
      <point x="364" y="-135"/>
      <point x="278" y="-135" type="curve"/>
      <point x="333" y="7" type="line"/>
      <point x="443" y="7" type="line" name="ih01"/>
      <point x="405" y="-81" type="line"/>
      <point x="494" y="-104"/>
      <point x="544" y="-159"/>
      <point x="544" y="-235" type="curve" smooth="yes" name="dh02"/>
      <point x="544" y="-343"/>
      <point x="443" y="-419"/>
      <point x="303" y="-419" type="curve" smooth="yes" name="av01"/>
      <point x="250" y="-419"/>
      <point x="199" y="-408"/>
    </contour>
    <contour>
      <point x="330" y="-20" type="move" name="_bottom"/>
    </contour>
  </outline>
</glyph>
<glyph name="onesuperior" format="1">
  <advance width="494"/>
  <unicode hex="00B9"/>
  <outline>
    <contour>
      <point x="339" y="780" type="line"/>
      <point x="339" y="1500" type="line"/>
      <point x="257" y="1500" type="line"/>
      <point x="75" y="1434" type="line"/>
      <point x="105" y="1355" type="line"/>
      <point x="238" y="1403" type="line"/>
      <point x="238" y="780" type="line"/>
    </contour>
  </outline>
</glyph>
<glyph name="ordmasculine" format="1">
  <unicode hex="00BA"/>
  <advance width="940"/>
  <outline>
    <contour>
      <point x="230" y="1150" type="curve" smooth="yes" name="sh02"/>
      <point x="230" y="1298"/>
      <point x="332" y="1407"/>
      <point x="471" y="1407" type="curve" smooth="yes"/>
      <point x="609" y="1407"/>
      <point x="710" y="1298"/>
      <point x="710" y="1150" type="curve" smooth="yes" name="ah01"/>
      <point x="710" y="1002"/>
      <point x="609" y="893"/>
      <point x="471" y="893" type="curve" smooth="yes"/>
      <point x="332" y="893"/>
      <point x="230" y="1002"/>
    </contour>
    <contour>
      <point x="100" y="1150" type="curve" smooth="yes" name="sh01"/>
      <point x="100" y="937"/>
      <point x="257" y="780"/>
      <point x="471" y="780" type="curve" smooth="yes" name="av01"/>
      <point x="685" y="780"/>
      <point x="840" y="937"/>
      <point x="840" y="1150" type="curve" smooth="yes" name="sh03"/>
      <point x="840" y="1364"/>
      <point x="685" y="1520"/>
      <point x="471" y="1520" type="curve" smooth="yes" name="at01"/>
      <point x="257" y="1520"/>
      <point x="100" y="1364"/>
    </contour>
  </outline>
</glyph>
<glyph name="guillemotright" format="1">
  <unicode hex="00BB"/>
  <advance width="1159"/>
  <outline>
    <contour>
      <point x="897" y="500" type="line"/>
      <point x="560" y="890" type="line"/>
      <point x="732" y="890" type="line" name="av04"/>
      <point x="1059" y="500" type="line"/>
      <point x="732" y="110" type="line" name="av02"/>
      <point x="560" y="110" type="line"/>
    </contour>
    <contour>
      <point x="497" y="500" type="line"/>
      <point x="160" y="890" type="line"/>
      <point x="332" y="890" type="line" name="av03"/>
      <point x="659" y="500" type="line"/>
      <point x="332" y="110" type="line" name="av01"/>
      <point x="160" y="110" type="line"/>
    </contour>
  </outline>
</glyph>
<glyph name="onequarter" format="1">
  <unicode hex="00BC"/>
  <advance width="1775"/>
  <outline>
    <contour>
      <point x="1389" y="173" type="line" name="ah01"/>
      <point x="1389" y="0" type="line" name="ab02"/>
      <point x="1519" y="0" type="line"/>
      <point x="1519" y="173" type="line" name="sv01"/>
      <point x="1615" y="173" type="line"/>
      <point x="1615" y="293" type="line" name="sv02"/>
      <point x="1519" y="293" type="line" name="sh04"/>
      <point x="1519" y="800" type="line"/>
      <point x="1379" y="800" type="line" name="sh05"/>
      <point x="1007" y="293" type="line" name="dv02"/>
      <point x="1007" y="173" type="line" name="dv01"/>
    </contour>
    <contour>
      <point x="290" y="-1" type="line" name="ab01"/>
      <point x="443" y="-1" type="line" name="sh03"/>
      <point x="1371" y="1500" type="line" name="at01"/>
      <point x="1218" y="1500" type="line"/>
    </contour>
    <contour>
      <point x="199" y="1317" type="line"/>
      <point x="324" y="1363" type="line"/>
      <point x="324" y="700" type="line" name="sh01"/>
      <point x="454" y="700" type="line" name="sh02"/>
      <point x="454" y="1500" type="line" name="at02"/>
      <point x="366" y="1500" type="line" name="at03"/>
      <point x="160" y="1426" type="line"/>
    </contour>
    <contour>
      <point x="1144" y="293" type="line" name="iv02"/>
      <point x="1389" y="627" type="line" name="iv01"/>
      <point x="1389" y="293" type="line" name="sv03"/>
    </contour>
  </outline>
</glyph>
<glyph name="onehalf" format="1">
  <advance width="1673"/>
  <unicode hex="00BD"/>
  <outline>
    <contour>
      <point x="359" y="0" type="line" name="av01"/>
      <point x="1372" y="1540" type="line" name="at01"/>
      <point x="1264" y="1540" type="line"/>
      <point x="244" y="0" type="line"/>
    </contour>
    <contour>
      <point x="389" y="780" type="line"/>
      <point x="389" y="1500" type="line"/>
      <point x="307" y="1500" type="line"/>
      <point x="125" y="1434" type="line"/>
      <point x="155" y="1355" type="line"/>
      <point x="288" y="1403" type="line"/>
      <point x="288" y="780" type="line"/>
    </contour>
    <contour>
      <point x="1548" y="0" type="line"/>
      <point x="1548" y="86" type="line"/>
      <point x="1253" y="86" type="line"/>
      <point x="1433" y="228"/>
      <point x="1538" y="378"/>
      <point x="1538" y="517" type="curve" smooth="yes"/>
      <point x="1538" y="651"/>
      <point x="1441" y="740"/>
      <point x="1316" y="740" type="curve" smooth="yes"/>
      <point x="1227" y="740"/>
      <point x="1143" y="694"/>
      <point x="1093" y="616" type="curve"/>
      <point x="1150" y="557" type="line"/>
      <point x="1189" y="619"/>
      <point x="1242" y="654"/>
      <point x="1301" y="654" type="curve" smooth="yes"/>
      <point x="1381" y="654"/>
      <point x="1438" y="591"/>
      <point x="1438" y="498" type="curve" smooth="yes"/>
      <point x="1438" y="380"/>
      <point x="1346" y="254"/>
      <point x="1112" y="53" type="curve"/>
      <point x="1112" y="0" type="line"/>
    </contour>
  </outline>
</glyph>
<glyph name="threequarters" format="1">
  <unicode hex="00BE"/>
  <advance width="1825"/>
  <outline>
    <contour>
      <point x="1057" y="293" type="line" name="dv02"/>
      <point x="1057" y="173" type="line" name="dv01"/>
      <point x="1439" y="173" type="line" name="dh03"/>
      <point x="1439" y="0" type="line" name="ab02"/>
      <point x="1569" y="0" type="line"/>
      <point x="1569" y="173" type="line" name="sv01"/>
      <point x="1665" y="173" type="line"/>
      <point x="1665" y="293" type="line" name="sv02"/>
      <point x="1569" y="293" type="line" name="sh01"/>
      <point x="1569" y="800" type="line" name="sv03"/>
      <point x="1429" y="800" type="line"/>
    </contour>
    <contour>
      <point x="420" y="-1" type="line" name="ab01"/>
      <point x="573" y="-1" type="line"/>
      <point x="1501" y="1500" type="line" name="at01"/>
      <point x="1348" y="1500" type="line"/>
    </contour>
    <contour>
      <point x="160" y="819" type="line"/>
      <point x="258" y="726"/>
      <point x="336" y="690"/>
      <point x="444" y="690" type="curve" smooth="yes" name="dv05"/>
      <point x="619" y="690"/>
      <point x="736" y="783"/>
      <point x="736" y="921" type="curve" smooth="yes" name="sh02"/>
      <point x="736" y="1015"/>
      <point x="683" y="1086"/>
      <point x="586" y="1126" type="curve"/>
      <point x="658" y="1166"/>
      <point x="702" y="1230"/>
      <point x="702" y="1304" type="curve" smooth="yes" name="dh02"/>
      <point x="702" y="1422"/>
      <point x="592" y="1510"/>
      <point x="448" y="1510" type="curve" smooth="yes" name="at02"/>
      <point x="352" y="1510"/>
      <point x="269" y="1470"/>
      <point x="190" y="1386" type="curve"/>
      <point x="283" y="1298" type="line"/>
      <point x="342" y="1363"/>
      <point x="392" y="1391"/>
      <point x="451" y="1391" type="curve" smooth="yes" name="sv05"/>
      <point x="518" y="1391"/>
      <point x="565" y="1353"/>
      <point x="565" y="1295" type="curve" smooth="yes" name="dh01"/>
      <point x="565" y="1226"/>
      <point x="499" y="1179"/>
      <point x="399" y="1179" type="curve" smooth="yes"/>
      <point x="336" y="1179" type="line" name="dv04"/>
      <point x="336" y="1060" type="line" name="dv03"/>
      <point x="399" y="1060" type="line" smooth="yes"/>
      <point x="524" y="1060"/>
      <point x="598" y="1013"/>
      <point x="598" y="932" type="curve" smooth="yes" name="ih01"/>
      <point x="598" y="860"/>
      <point x="537" y="809"/>
      <point x="451" y="809" type="curve" smooth="yes" name="dv06"/>
      <point x="380" y="809"/>
      <point x="316" y="843"/>
      <point x="250" y="914" type="curve"/>
    </contour>
    <contour>
      <point x="1439" y="627" type="line" name="iv01"/>
      <point x="1439" y="293" type="line" name="sv04"/>
      <point x="1194" y="293" type="line" name="iv02"/>
    </contour>
  </outline>
</glyph>
<glyph name="questiondown" format="1">
  <unicode hex="00BF"/>
  <advance width="1109"/>
  <outline>
    <contour>
      <point x="729" y="915" type="curve" smooth="yes" name="dh04"/>
      <point x="729" y="849"/>
      <point x="680" y="800"/>
      <point x="615" y="800" type="curve" smooth="yes" name="dv03"/>
      <point x="549" y="800"/>
      <point x="499" y="849"/>
      <point x="499" y="915" type="curve" smooth="yes" name="dh03"/>
      <point x="499" y="981"/>
      <point x="549" y="1030"/>
      <point x="615" y="1030" type="curve" smooth="yes" name="dv04"/>
      <point x="680" y="1030"/>
      <point x="729" y="981"/>
    </contour>
    <contour>
      <point x="874" y="-257" type="curve"/>
      <point x="949" y="-387" type="line"/>
      <point x="826" y="-480"/>
      <point x="687" y="-530"/>
      <point x="552" y="-530" type="curve" smooth="yes" name="dv01"/>
      <point x="320" y="-530"/>
      <point x="160" y="-384"/>
      <point x="160" y="-165" type="curve" smooth="yes" name="dh01"/>
      <point x="160" y="-56"/>
      <point x="200" y="22"/>
      <point x="327" y="153" type="curve" smooth="yes"/>
      <point x="430" y="260"/>
      <point x="544" y="378"/>
      <point x="544" y="630" type="curve" name="ih01"/>
      <point x="684" y="630" type="line" name="sh01"/>
      <point x="684" y="395"/>
      <point x="617" y="237"/>
      <point x="436" y="49" type="curve" smooth="yes"/>
      <point x="355" y="-35"/>
      <point x="325" y="-93"/>
      <point x="325" y="-166" type="curve" smooth="yes" name="dh02"/>
      <point x="325" y="-297"/>
      <point x="420" y="-380"/>
      <point x="578" y="-380" type="curve" smooth="yes" name="dv02"/>
      <point x="671" y="-380"/>
      <point x="746" y="-351"/>
    </contour>
  </outline>
</glyph>
<glyph name="AE" format="1">
  <unicode hex="00C6"/>
  <advance width="2094"/>
  <outline>
    <contour>
      <point x="10" y="0" type="line" name="ab01"/>
      <point x="194" y="0" type="line"/>
      <point x="432" y="434" type="line"/>
      <point x="1083" y="434" type="line"/>
      <point x="1144" y="0" type="line" name="ab02"/>
      <point x="2034" y="0" type="line"/>
      <point x="2012" y="160" type="line" name="sv02"/>
      <point x="1297" y="160" type="line"/>
      <point x="1222" y="691" type="line" name="dv03"/>
      <point x="1867" y="691" type="line"/>
      <point x="1845" y="851" type="line"/>
      <point x="1200" y="851" type="line" name="dv04"/>
      <point x="1131" y="1340" type="line" name="sv03"/>
      <point x="1816" y="1340" type="line" name="sv04"/>
      <point x="1794" y="1500" type="line" name="at02"/>
      <point x="833" y="1500" type="line"/>
    </contour>
    <contour>
      <point x="929" y="1340" type="line" name="sv01"/>
      <point x="956" y="1340" type="line"/>
      <point x="1061" y="594" type="line"/>
      <point x="520" y="594" type="line"/>
    </contour>
  </outline>
</glyph>
<glyph name="Ccedilla" format="1">
  <advance width="1528"/>
  <unicode hex="00C7"/>
  <outline>
    <contour>
      <point x="1423" y="192" type="curve"/>
      <point x="1299" y="316" type="line"/>
      <point x="1192" y="197"/>
      <point x="1039" y="126"/>
      <point x="862" y="126" type="curve" smooth="yes"/>
      <point x="518" y="126"/>
      <point x="265" y="391"/>
      <point x="265" y="750" type="curve" smooth="yes"/>
      <point x="265" y="1108"/>
      <point x="518" y="1374"/>
      <point x="862" y="1374" type="curve" smooth="yes"/>
      <point x="1039" y="1374"/>
      <point x="1192" y="1303"/>
      <point x="1299" y="1184" type="curve"/>
      <point x="1422" y="1309" type="line"/>
      <point x="1284" y="1448"/>
      <point x="1089" y="1530"/>
      <point x="865" y="1530" type="curve" smooth="yes"/>
      <point x="415" y="1530"/>
      <point x="85" y="1200"/>
      <point x="85" y="750" type="curve" smooth="yes"/>
      <point x="85" y="312"/>
      <point x="398" y="-13"/>
      <point x="831" y="-29" type="curve"/>
      <point x="790" y="-135" type="line"/>
      <point x="797" y="-134"/>
      <point x="804" y="-134"/>
      <point x="811" y="-134" type="curve" smooth="yes"/>
      <point x="893" y="-134"/>
      <point x="957" y="-176"/>
      <point x="957" y="-233" type="curve" smooth="yes"/>
      <point x="957" y="-286"/>
      <point x="902" y="-326"/>
      <point x="827" y="-326" type="curve" smooth="yes"/>
      <point x="797" y="-326"/>
      <point x="766" y="-320"/>
      <point x="735" y="-307" type="curve"/>
      <point x="701" y="-391" type="line"/>
      <point x="746" y="-407"/>
      <point x="791" y="-415"/>
      <point x="834" y="-415" type="curve" smooth="yes"/>
      <point x="964" y="-415"/>
      <point x="1054" y="-340"/>
      <point x="1054" y="-236" type="curve" smooth="yes"/>
      <point x="1054" y="-147"/>
      <point x="988" y="-86"/>
      <point x="890" y="-77" type="curve"/>
      <point x="910" y="-29" type="line"/>
      <point x="1116" y="-19"/>
      <point x="1294" y="62"/>
    </contour>
  </outline>
</glyph>
<glyph name="Eacute" format="1">
  <advance width="1229"/>
  <unicode hex="00C9"/>
  <outline>
    <contour>
      <point x="659" y="1666" type="line"/>
      <point x="853" y="2000" type="line"/>
      <point x="696" y="2000" type="line"/>
      <point x="540" y="1666" type="line"/>
    </contour>
    <contour>
      <point x="155" y="0" type="line"/>
      <point x="1084" y="0" type="line"/>
      <point x="1084" y="156" type="line"/>
      <point x="331" y="156" type="line"/>
      <point x="331" y="684" type="line"/>
      <point x="1033" y="684" type="line"/>
      <point x="1033" y="840" type="line"/>
      <point x="331" y="840" type="line"/>
      <point x="331" y="1344" type="line"/>
      <point x="1074" y="1344" type="line"/>
      <point x="1074" y="1500" type="line"/>
      <point x="155" y="1500" type="line"/>
    </contour>
  </outline>
</glyph>
<glyph name="Icircumflex" format="1">
  <advance width="487"/>
  <unicode hex="00CE"/>
  <outline>
    <contour>
      <point x="529" y="1666" type="line"/>
      <point x="406" y="1666" type="line" name="av01.1"/>
      <point x="243" y="1929" type="line"/>
      <point x="81" y="1666" type="line" name="av01"/>
      <point x="-42" y="1666" type="line"/>
      <point x="171" y="2000" type="line" name="at01.1"/>
      <point x="316" y="2000" type="line" name="at01.2"/>
    </contour>
    <contour>
      <point x="332" y="1500" type="line" name="at01"/>
      <point x="332" y="0" type="line" name="ab01"/>
      <point x="156" y="0" type="line" name="dh01"/>
      <point x="156" y="1500" type="line"/>
    </contour>
  </outline>
</glyph>
<glyph name="Eth" format="1">
  <unicode hex="00D0"/>
  <advance width="1579"/>
  <outline>
    <contour>
      <point x="10" y="813" type="line" name="dv02"/>
      <point x="10" y="683" type="line" name="dv01"/>
      <point x="175" y="683" type="line"/>
      <point x="175" y="-2" type="line"/>
      <point x="583" y="-2" type="line" smooth="yes" name="ab01"/>
      <point x="1172" y="-2"/>
      <point x="1499" y="272"/>
      <point x="1499" y="750" type="curve" smooth="yes" name="sh01"/>
      <point x="1499" y="1226"/>
      <point x="1172" y="1498"/>
      <point x="583" y="1498" type="curve" smooth="yes" name="at01"/>
      <point x="175" y="1498" type="line" name="sh02"/>
      <point x="175" y="813" type="line"/>
    </contour>
    <contour>
      <point x="350" y="813" type="line"/>
      <point x="350" y="1338" type="line" name="sv02"/>
      <point x="583" y="1338" type="line" smooth="yes"/>
      <point x="1058" y="1338"/>
      <point x="1319" y="1124"/>
      <point x="1319" y="750" type="curve" smooth="yes" name="ah01"/>
      <point x="1319" y="374"/>
      <point x="1058" y="158"/>
      <point x="583" y="158" type="curve" smooth="yes" name="sv01"/>
      <point x="350" y="158" type="line"/>
      <point x="350" y="683" type="line"/>
      <point x="810" y="683" type="line"/>
      <point x="810" y="813" type="line"/>
    </contour>
  </outline>
</glyph>
<glyph name="Oacute" format="1">
  <advance width="1729"/>
  <unicode hex="00D3"/>
  <outline>
    <contour>
      <point x="907" y="1666" type="line"/>
      <point x="1101" y="2000" type="line"/>
      <point x="944" y="2000" type="line"/>
      <point x="788" y="1666" type="line"/>
    </contour>
    <contour>
      <point x="866" y="-30" type="curve" smooth="yes"/>
      <point x="1316" y="-30"/>
      <point x="1644" y="301"/>
      <point x="1644" y="750" type="curve" smooth="yes"/>
      <point x="1644" y="1200"/>
      <point x="1316" y="1530"/>
      <point x="866" y="1530" type="curve" smooth="yes"/>
      <point x="415" y="1530"/>
      <point x="85" y="1200"/>
      <point x="85" y="750" type="curve" smooth="yes"/>
      <point x="85" y="301"/>
      <point x="415" y="-30"/>
    </contour>
    <contour>
      <point x="865" y="126" type="curve" smooth="yes"/>
      <point x="520" y="126"/>
      <point x="265" y="392"/>
      <point x="265" y="750" type="curve" smooth="yes"/>
      <point x="265" y="1108"/>
      <point x="520" y="1374"/>
      <point x="865" y="1374" type="curve" smooth="yes"/>
      <point x="1210" y="1374"/>
      <point x="1464" y="1108"/>
      <point x="1464" y="750" type="curve" smooth="yes"/>
      <point x="1464" y="393"/>
      <point x="1210" y="126"/>
    </contour>
  </outline>
</glyph>
<glyph name="Otilde" format="1">
  <advance width="1729"/>
  <unicode hex="00D5"/>
  <outline>
    <contour>
      <point x="1198" y="1947" type="curve"/>
      <point x="1124" y="1947" type="line"/>
      <point x="1113" y="1873"/>
      <point x="1075" y="1833"/>
      <point x="1014" y="1833" type="curve" smooth="yes"/>
      <point x="964" y="1833"/>
      <point x="928" y="1859"/>
      <point x="890" y="1888" type="curve" smooth="yes"/>
      <point x="847" y="1921"/>
      <point x="797" y="1957"/>
      <point x="718" y="1957" type="curve" smooth="yes"/>
      <point x="607" y="1957"/>
      <point x="542" y="1886"/>
      <point x="530" y="1752" type="curve"/>
      <point x="604" y="1752" type="line"/>
      <point x="615" y="1826"/>
      <point x="657" y="1868"/>
      <point x="720" y="1868" type="curve" smooth="yes"/>
      <point x="771" y="1868"/>
      <point x="808" y="1841"/>
      <point x="839" y="1816" type="curve" smooth="yes"/>
      <point x="897" y="1770"/>
      <point x="941" y="1742"/>
      <point x="1008" y="1742" type="curve" smooth="yes"/>
      <point x="1118" y="1742"/>
      <point x="1187" y="1816"/>
    </contour>
    <contour>
      <point x="865" y="-30" type="curve" smooth="yes"/>
      <point x="1315" y="-30"/>
      <point x="1644" y="301"/>
      <point x="1644" y="750" type="curve" smooth="yes"/>
      <point x="1644" y="1200"/>
      <point x="1315" y="1530"/>
      <point x="865" y="1530" type="curve" smooth="yes"/>
      <point x="414" y="1530"/>
      <point x="85" y="1200"/>
      <point x="85" y="750" type="curve" smooth="yes"/>
      <point x="85" y="301"/>
      <point x="414" y="-30"/>
    </contour>
    <contour>
      <point x="865" y="126" type="curve" smooth="yes"/>
      <point x="520" y="126"/>
      <point x="265" y="392"/>
      <point x="265" y="750" type="curve" smooth="yes"/>
      <point x="265" y="1108"/>
      <point x="520" y="1374"/>
      <point x="865" y="1374" type="curve" smooth="yes"/>
      <point x="1210" y="1374"/>
      <point x="1464" y="1108"/>
      <point x="1464" y="750" type="curve" smooth="yes"/>
      <point x="1464" y="393"/>
      <point x="1210" y="126"/>
    </contour>
  </outline>
</glyph>
<glyph name="multiply" format="1">
  <unicode hex="00D7"/>
  <advance width="1140"/>
  <outline>
    <contour>
      <point x="471" y="510" type="line"/>
      <point x="160" y="821" type="line"/>
      <point x="259" y="920" type="line"/>
      <point x="570" y="609" type="line"/>
      <point x="881" y="920" type="line"/>
      <point x="980" y="821" type="line"/>
      <point x="669" y="510" type="line"/>
      <point x="980" y="199" type="line"/>
      <point x="881" y="100" type="line"/>
      <point x="570" y="411" type="line"/>
      <point x="259" y="100" type="line"/>
      <point x="160" y="199" type="line"/>
    </contour>
  </outline>
</glyph>
<glyph name="Oslash" format="1">
  <advance width="1728"/>
  <unicode hex="00D8"/>
  <outline>
    <contour>
      <point x="574" y="-70" type="line" name="av01"/>
      <point x="607" y="9" type="line"/>
      <point x="687" y="-16"/>
      <point x="773" y="-30"/>
      <point x="865" y="-30" type="curve" smooth="yes"/>
      <point x="1315" y="-30"/>
      <point x="1643" y="301"/>
      <point x="1643" y="750" type="curve" smooth="yes"/>
      <point x="1643" y="1075"/>
      <point x="1472" y="1337"/>
      <point x="1207" y="1458" type="curve"/>
      <point x="1239" y="1535" type="line" name="at01"/>
      <point x="1157" y="1568" type="line"/>
      <point x="1125" y="1490" type="line"/>
      <point x="1045" y="1516"/>
      <point x="957" y="1530"/>
      <point x="865" y="1530" type="curve" smooth="yes"/>
      <point x="414" y="1530"/>
      <point x="85" y="1200"/>
      <point x="85" y="750" type="curve" smooth="yes"/>
      <point x="85" y="424"/>
      <point x="257" y="161"/>
      <point x="524" y="41" type="curve"/>
      <point x="492" y="-35" type="line"/>
    </contour>
    <contour>
      <point x="586" y="191" type="line"/>
      <point x="391" y="291"/>
      <point x="264" y="498"/>
      <point x="264" y="750" type="curve" smooth="yes"/>
      <point x="264" y="1108"/>
      <point x="519" y="1374"/>
      <point x="864" y="1374" type="curve" smooth="yes"/>
      <point x="935" y="1374"/>
      <point x="1002" y="1363"/>
      <point x="1064" y="1342" type="curve"/>
    </contour>
    <contour>
      <point x="864" y="126" type="curve" smooth="yes"/>
      <point x="794" y="126"/>
      <point x="729" y="137"/>
      <point x="668" y="157" type="curve"/>
      <point x="1145" y="1308" type="line"/>
      <point x="1339" y="1207"/>
      <point x="1463" y="1001"/>
      <point x="1463" y="750" type="curve" smooth="yes"/>
      <point x="1463" y="393"/>
      <point x="1209" y="126"/>
    </contour>
  </outline>
</glyph>
<glyph name="Ugrave" format="1">
  <advance width="1569"/>
  <unicode hex="00D9"/>
  <outline>
    <contour>
      <point x="861" y="1666" type="line"/>
      <point x="704" y="2000" type="line"/>
      <point x="547" y="2000" type="line"/>
      <point x="741" y="1666" type="line"/>
    </contour>
    <contour>
      <point x="1414" y="1500" type="line"/>
      <point x="1238" y="1500" type="line"/>
      <point x="1238" y="685" type="line" smooth="yes"/>
      <point x="1238" y="331"/>
      <point x="1070" y="126"/>
      <point x="785" y="126" type="curve" smooth="yes"/>
      <point x="500" y="126"/>
      <point x="331" y="331"/>
      <point x="331" y="685" type="curve" smooth="yes"/>
      <point x="331" y="1500" type="line"/>
      <point x="155" y="1500" type="line"/>
      <point x="155" y="671" type="line" smooth="yes"/>
      <point x="155" y="234"/>
      <point x="393" y="-30"/>
      <point x="785" y="-30" type="curve" smooth="yes"/>
      <point x="1178" y="-30"/>
      <point x="1414" y="234"/>
      <point x="1414" y="671" type="curve" smooth="yes"/>
    </contour>
  </outline>
</glyph>
<glyph name="Ucircumflex" format="1">
  <advance width="1569"/>
  <unicode hex="00DB"/>
  <outline>
    <contour>
      <point x="1070" y="1666" type="line"/>
      <point x="858" y="2000" type="line" name="at01"/>
      <point x="712" y="2000" type="line" name="at01.1"/>
      <point x="500" y="1666" type="line"/>
      <point x="622" y="1666" type="line" name="av01"/>
      <point x="785" y="1929" type="line"/>
      <point x="947" y="1666" type="line" name="av01.1"/>
    </contour>
    <contour>
      <point x="1414" y="1500" type="line"/>
      <point x="1238" y="1500" type="line"/>
      <point x="1238" y="685" type="line" smooth="yes"/>
      <point x="1238" y="331"/>
      <point x="1070" y="126"/>
      <point x="785" y="126" type="curve" smooth="yes"/>
      <point x="500" y="126"/>
      <point x="331" y="331"/>
      <point x="331" y="685" type="curve" smooth="yes"/>
      <point x="331" y="1500" type="line"/>
      <point x="155" y="1500" type="line"/>
      <point x="155" y="671" type="line" smooth="yes"/>
      <point x="155" y="234"/>
      <point x="393" y="-30"/>
      <point x="785" y="-30" type="curve" smooth="yes"/>
      <point x="1178" y="-30"/>
      <point x="1414" y="234"/>
      <point x="1414" y="671" type="curve" smooth="yes"/>
    </contour>
  </outline>
</glyph>
<glyph name="Yacute" format="1">
  <advance width="1390"/>
  <unicode hex="00DD"/>
  <outline>
    <contour>
      <point x="737" y="1666" type="line"/>
      <point x="932" y="2000" type="line"/>
      <point x="775" y="2000" type="line"/>
      <point x="618" y="1666" type="line"/>
    </contour>
    <contour>
      <point x="782" y="0" type="line"/>
      <point x="782" y="639" type="line"/>
      <point x="1365" y="1500" type="line"/>
      <point x="1152" y="1500" type="line"/>
      <point x="694" y="788" type="line"/>
      <point x="238" y="1500" type="line"/>
      <point x="25" y="1500" type="line"/>
      <point x="606" y="641" type="line"/>
      <point x="606" y="0" type="line"/>
    </contour>
  </outline>
</glyph>
<glyph name="Thorn" format="1">
  <unicode hex="00DE"/>
  <advance width="1250"/>
  <outline>
    <contour>
      <point x="160" y="0" type="line"/>
      <point x="160" y="1500" type="line" name="at01"/>
      <point x="335" y="1500" type="line" name="dh01"/>
      <point x="335" y="1180" type="line"/>
      <point x="633" y="1180" type="line" smooth="yes" name="sv02"/>
      <point x="957" y="1180"/>
      <point x="1150" y="1020"/>
      <point x="1150" y="752" type="curve" smooth="yes" name="dh03"/>
      <point x="1150" y="483"/>
      <point x="956" y="320"/>
      <point x="633" y="320" type="curve" smooth="yes" name="dv01"/>
      <point x="335" y="320" type="line"/>
      <point x="335" y="0" type="line" name="ab01"/>
    </contour>
    <contour>
      <point x="597" y="480" type="line" smooth="yes" name="dv02"/>
      <point x="840" y="480"/>
      <point x="970" y="574"/>
      <point x="970" y="751" type="curve" smooth="yes" name="dh02"/>
      <point x="970" y="927"/>
      <point x="841" y="1020"/>
      <point x="597" y="1020" type="curve" smooth="yes" name="sv01"/>
      <point x="335" y="1020" type="line"/>
      <point x="335" y="480" type="line"/>
    </contour>
  </outline>
</glyph>
<glyph name="germandbls" format="1">
  <unicode hex="00DF"/>
  <advance width="1086"/>
  <outline>
    <contour>
      <point x="310" y="0" type="line"/>
      <point x="310" y="1127" type="line" smooth="yes" name="dh02"/>
      <point x="310" y="1279"/>
      <point x="405" y="1388"/>
      <point x="538" y="1388" type="curve" smooth="yes" name="sv01"/>
      <point x="662" y="1388"/>
      <point x="754" y="1294"/>
      <point x="754" y="1167" type="curve" smooth="yes" name="dh05"/>
      <point x="754" y="968"/>
      <point x="526" y="954"/>
      <point x="526" y="781" type="curve" smooth="yes" name="dh03"/>
      <point x="526" y="581"/>
      <point x="830" y="582"/>
      <point x="830" y="368" type="curve" smooth="yes" name="ih01"/>
      <point x="830" y="226"/>
      <point x="694" y="112"/>
      <point x="525" y="112" type="curve" name="dv02"/>
      <point x="547" y="-20" type="line" name="dv01"/>
      <point x="790" y="-20"/>
      <point x="986" y="152"/>
      <point x="986" y="370" type="curve" smooth="yes" name="sh01"/>
      <point x="986" y="646"/>
      <point x="672" y="670"/>
      <point x="672" y="785" type="curve" smooth="yes" name="dh04"/>
      <point x="672" y="886"/>
      <point x="911" y="907"/>
      <point x="911" y="1164" type="curve" smooth="yes" name="dh06"/>
      <point x="911" y="1373"/>
      <point x="754" y="1520"/>
      <point x="539" y="1520" type="curve" smooth="yes" name="at01"/>
      <point x="314" y="1520"/>
      <point x="160" y="1359"/>
      <point x="160" y="1127" type="curve" smooth="yes" name="dh01"/>
      <point x="160" y="0" type="line"/>
    </contour>
  </outline>
</glyph>
<glyph name="aring" format="1">
  <advance width="1097"/>
  <unicode hex="00E5"/>
  <outline>
    <contour>
      <point x="559" y="1106" type="curve" smooth="yes"/>
      <point x="686" y="1106"/>
      <point x="770" y="1189"/>
      <point x="770" y="1313" type="curve" smooth="yes"/>
      <point x="770" y="1437"/>
      <point x="686" y="1520"/>
      <point x="559" y="1520" type="curve" smooth="yes"/>
      <point x="432" y="1520"/>
      <point x="348" y="1437"/>
      <point x="348" y="1313" type="curve" smooth="yes"/>
      <point x="348" y="1189"/>
      <point x="432" y="1106"/>
    </contour>
    <contour>
      <point x="559" y="1182" type="curve" smooth="yes"/>
      <point x="482" y="1182"/>
      <point x="431" y="1234"/>
      <point x="431" y="1313" type="curve" smooth="yes"/>
      <point x="431" y="1392"/>
      <point x="482" y="1444"/>
      <point x="559" y="1444" type="curve" smooth="yes"/>
      <point x="636" y="1444"/>
      <point x="688" y="1392"/>
      <point x="688" y="1313" type="curve" smooth="yes"/>
      <point x="688" y="1234"/>
      <point x="636" y="1182"/>
    </contour>
    <contour>
      <point x="962" y="0" type="line" name="n0"/>
      <point x="962" y="590" type="line" smooth="yes" name="n1"/>
      <point x="962" y="853"/>
      <point x="798" y="1020"/>
      <point x="539" y="1020" type="curve" smooth="yes"/>
      <point x="413" y="1020"/>
      <point x="282" y="981"/>
      <point x="166" y="907" type="curve" name="n7"/>
      <point x="220" y="766" type="line" name="n8"/>
      <point x="309" y="837"/>
      <point x="409" y="870"/>
      <point x="503" y="870" type="curve" smooth="yes"/>
      <point x="664" y="870"/>
      <point x="798" y="775"/>
      <point x="798" y="616" type="curve" smooth="yes"/>
      <point x="798" y="574" type="line"/>
      <point x="716" y="617"/>
      <point x="606" y="643" name="n16.1"/>
      <point x="506" y="643" type="curve" smooth="yes" name="n17"/>
      <point x="276" y="643" name="n18"/>
      <point x="105" y="504" name="n19"/>
      <point x="105" y="307" type="curve" smooth="yes" name="n20"/>
      <point x="105" y="118" name="n21"/>
      <point x="263" y="-20" name="n22"/>
      <point x="480" y="-20" type="curve" smooth="yes" name="n23"/>
      <point x="620" y="-20"/>
      <point x="736" y="37"/>
      <point x="810" y="132" type="curve"/>
      <point x="821" y="0" type="line" name="n16"/>
    </contour>
    <contour>
      <point x="506" y="130" type="curve" smooth="yes" name="n4"/>
      <point x="374" y="130" name="n5"/>
      <point x="275" y="209" name="n6"/>
      <point x="275" y="314" type="curve" smooth="yes" name="n7.1"/>
      <point x="275" y="425"/>
      <point x="386" y="505"/>
      <point x="539" y="505" type="curve" smooth="yes"/>
      <point x="637" y="505"/>
      <point x="731" y="472"/>
      <point x="798" y="415" type="curve" name="n13"/>
      <point x="798" y="407" type="line"/>
      <point x="798" y="249"/>
      <point x="668" y="130" name="n3"/>
    </contour>
  </outline>
</glyph>
<glyph name="ae" format="1">
  <unicode hex="00E6"/>
  <advance width="1934"/>
  <outline>
    <contour>
      <point x="822" y="408" type="line" name="dh03"/>
      <point x="822" y="251"/>
      <point x="687" y="130"/>
      <point x="513" y="130" type="curve" smooth="yes" name="dv02"/>
      <point x="388" y="130"/>
      <point x="298" y="192"/>
      <point x="298" y="299" type="curve" smooth="yes" name="dh02"/>
      <point x="298" y="427"/>
      <point x="428" y="475"/>
      <point x="575" y="475" type="curve" smooth="yes" name="dv05"/>
      <point x="659" y="475"/>
      <point x="748" y="459"/>
      <point x="822" y="435" type="curve"/>
    </contour>
    <contour>
      <point x="994" y="574" type="line"/>
      <point x="1023" y="746"/>
      <point x="1160" y="870"/>
      <point x="1337" y="870" type="curve" smooth="yes" name="sv03"/>
      <point x="1511" y="870"/>
      <point x="1643" y="749"/>
      <point x="1672" y="574" type="curve"/>
    </contour>
    <contour>
      <point x="1844" y="434" type="line"/>
      <point x="1844" y="500" type="line" name="dh06"/>
      <point x="1844" y="501" type="line" name="sh05"/>
      <point x="1844" y="803"/>
      <point x="1633" y="1020"/>
      <point x="1338" y="1020" type="curve" smooth="yes" name="at02"/>
      <point x="1167" y="1020"/>
      <point x="1021" y="947"/>
      <point x="929" y="828" type="curve"/>
      <point x="859" y="949"/>
      <point x="732" y="1020"/>
      <point x="566" y="1020" type="curve" smooth="yes" name="at01"/>
      <point x="440" y="1020"/>
      <point x="342" y="993"/>
      <point x="207" y="922" type="curve"/>
      <point x="267" y="784" type="line"/>
      <point x="370" y="843"/>
      <point x="460" y="870"/>
      <point x="547" y="870" type="curve" smooth="yes" name="sv01"/>
      <point x="719" y="870"/>
      <point x="822" y="765"/>
      <point x="822" y="596" type="curve" smooth="yes" name="sh01"/>
      <point x="822" y="584" type="line"/>
      <point x="740" y="610"/>
      <point x="648" y="625"/>
      <point x="559" y="625" type="curve" smooth="yes" name="dv06"/>
      <point x="296" y="625"/>
      <point x="128" y="499"/>
      <point x="128" y="303" type="curve" smooth="yes" name="dh01"/>
      <point x="128" y="103"/>
      <point x="302" y="-20"/>
      <point x="516" y="-20" type="curve" smooth="yes" name="dv01"/>
      <point x="705" y="-20"/>
      <point x="844" y="77"/>
      <point x="901" y="223" type="curve"/>
      <point x="996" y="73"/>
      <point x="1168" y="-20"/>
      <point x="1379" y="-20" type="curve" smooth="yes" name="sv04"/>
      <point x="1514" y="-20"/>
      <point x="1660" y="18"/>
      <point x="1806" y="139" type="curve"/>
      <point x="1709" y="263" type="line"/>
      <point x="1610" y="170"/>
      <point x="1482" y="130"/>
      <point x="1374" y="130" type="curve" smooth="yes" name="sv02"/>
      <point x="1179" y="130"/>
      <point x="1029" y="257"/>
      <point x="996" y="434" type="curve"/>
    </contour>
  </outline>
</glyph>
<glyph name="igrave" format="1">
  <advance width="475"/>
  <unicode hex="00EC"/>
  <outline>
    <contour>
      <point x="310" y="1166" type="line"/>
      <point x="153" y="1500" type="line"/>
      <point x="-4" y="1500" type="line"/>
      <point x="190" y="1166" type="line"/>
    </contour>
    <contour>
      <point x="320" y="0" type="line"/>
      <point x="320" y="1000" type="line"/>
      <point x="155" y="1000" type="line"/>
      <point x="155" y="0" type="line"/>
    </contour>
  </outline>
</glyph>
<glyph name="iacute" format="1">
  <advance width="474"/>
  <unicode hex="00ED"/>
  <outline>
    <contour>
      <point x="284" y="1166" type="line"/>
      <point x="478" y="1500" type="line"/>
      <point x="321" y="1500" type="line"/>
      <point x="165" y="1166" type="line"/>
    </contour>
    <contour>
      <point x="318" y="0" type="line"/>
      <point x="318" y="1000" type="line"/>
      <point x="155" y="1000" type="line"/>
      <point x="155" y="0" type="line"/>
    </contour>
  </outline>
</glyph>
<glyph name="eth" format="1">
  <advance width="1155"/>
  <unicode hex="00F0"/>
  <outline>
    <contour>
      <point x="1003" y="1290" type="line"/>
      <point x="972" y="1364" type="line"/>
      <point x="753" y="1274" type="line"/>
      <point x="669.928" y="1359.95"/>
      <point x="574" y="1437"/>
      <point x="465" y="1500" type="curve"/>
      <point x="383" y="1385" type="line"/>
      <point x="464" y="1335"/>
      <point x="537.944" y="1276.95"/>
      <point x="604" y="1213" type="curve"/>
      <point x="282" y="1081" type="line" name="dv04"/>
      <point x="313" y="1006" type="line" name="dv03"/>
      <point x="664" y="1151" type="line"/>
      <point x="776" y="1027"/>
      <point x="861" y="884"/>
      <point x="907" y="739" type="curve"/>
      <point x="825" y="838"/>
      <point x="701" y="897"/>
      <point x="556" y="897" type="curve" smooth="yes"/>
      <point x="294" y="897"/>
      <point x="105" y="709"/>
      <point x="105" y="447" type="curve" smooth="yes"/>
      <point x="105" y="171"/>
      <point x="312" y="-30"/>
      <point x="596" y="-30" type="curve" smooth="yes"/>
      <point x="891" y="-30"/>
      <point x="1080" y="186"/>
      <point x="1080" y="522" type="curve" smooth="yes"/>
      <point x="1080" y="765"/>
      <point x="980" y="1009"/>
      <point x="810" y="1211" type="curve"/>
    </contour>
    <contour>
      <point x="588" y="125" type="curve" smooth="yes"/>
      <point x="415" y="125"/>
      <point x="285" y="265"/>
      <point x="285" y="450" type="curve" smooth="yes"/>
      <point x="285" y="631"/>
      <point x="409" y="758"/>
      <point x="585" y="758" type="curve" smooth="yes"/>
      <point x="764" y="758"/>
      <point x="894" y="627"/>
      <point x="894" y="446" type="curve" smooth="yes"/>
      <point x="894" y="264"/>
      <point x="762" y="125"/>
    </contour>
  </outline>
</glyph>
<glyph name="ntilde" format="1">
  <advance width="1226"/>
  <unicode hex="00F1"/>
  <outline>
    <contour>
      <point x="942" y="1447" type="curve"/>
      <point x="869" y="1447" type="line"/>
      <point x="858" y="1373"/>
      <point x="819" y="1333"/>
      <point x="758" y="1333" type="curve" smooth="yes"/>
      <point x="708" y="1333"/>
      <point x="672" y="1359"/>
      <point x="634" y="1388" type="curve" smooth="yes"/>
      <point x="590" y="1421"/>
      <point x="542" y="1457"/>
      <point x="463" y="1457" type="curve" smooth="yes"/>
      <point x="352" y="1457"/>
      <point x="287" y="1386"/>
      <point x="275" y="1252" type="curve"/>
      <point x="349" y="1252" type="line"/>
      <point x="360" y="1326"/>
      <point x="402" y="1368"/>
      <point x="465" y="1368" type="curve" smooth="yes"/>
      <point x="516" y="1368"/>
      <point x="552" y="1341"/>
      <point x="590" y="1311" type="curve" smooth="yes"/>
      <point x="642" y="1270"/>
      <point x="685" y="1242"/>
      <point x="754" y="1242" type="curve" smooth="yes"/>
      <point x="863" y="1242"/>
      <point x="931" y="1316"/>
    </contour>
    <contour>
      <point x="1091" y="0" type="line"/>
      <point x="1091" y="571" type="line" smooth="yes"/>
      <point x="1091" y="850"/>
      <point x="926" y="1020"/>
      <point x="661" y="1020" type="curve" smooth="yes"/>
      <point x="498" y="1020"/>
      <point x="377" y="955"/>
      <point x="304" y="838" type="curve"/>
      <point x="298" y="1000" type="line"/>
      <point x="155" y="1000" type="line"/>
      <point x="155" y="0" type="line"/>
      <point x="319" y="0" type="line"/>
      <point x="319" y="538" type="line" smooth="yes"/>
      <point x="319" y="736"/>
      <point x="445" y="870"/>
      <point x="631" y="870" type="curve" smooth="yes"/>
      <point x="810" y="870"/>
      <point x="927" y="747"/>
      <point x="927" y="558" type="curve" smooth="yes"/>
      <point x="927" y="0" type="line"/>
    </contour>
  </outline>
</glyph>
<glyph name="ocircumflex" format="1">
  <advance width="1195"/>
  <unicode hex="00F4"/>
  <outline>
    <contour>
      <point x="884" y="1166" type="line"/>
      <point x="671" y="1500" type="line" name="at01"/>
      <point x="526" y="1500" type="line" name="at01.1"/>
      <point x="313" y="1166" type="line"/>
      <point x="436" y="1166" type="line" name="av01"/>
      <point x="598" y="1429" type="line"/>
      <point x="761" y="1166" type="line" name="av01.1"/>
    </contour>
    <contour>
      <point x="599" y="-20" type="curve" smooth="yes"/>
      <point x="897" y="-20"/>
      <point x="1120" y="203"/>
      <point x="1120" y="500" type="curve" smooth="yes"/>
      <point x="1120" y="797"/>
      <point x="897" y="1020"/>
      <point x="599" y="1020" type="curve" smooth="yes"/>
      <point x="300" y="1020"/>
      <point x="75" y="797"/>
      <point x="75" y="500" type="curve" smooth="yes"/>
      <point x="75" y="203"/>
      <point x="300" y="-20"/>
    </contour>
    <contour>
      <point x="598" y="128" type="curve" smooth="yes"/>
      <point x="395" y="128"/>
      <point x="243" y="288"/>
      <point x="243" y="501" type="curve" smooth="yes"/>
      <point x="243" y="713"/>
      <point x="395" y="873"/>
      <point x="598" y="873" type="curve" smooth="yes"/>
      <point x="800" y="873"/>
      <point x="952" y="713"/>
      <point x="952" y="501" type="curve" smooth="yes"/>
      <point x="952" y="288"/>
      <point x="800" y="128"/>
    </contour>
  </outline>
</glyph>
<glyph name="otilde" format="1">
  <advance width="1195"/>
  <unicode hex="00F5"/>
  <outline>
    <contour>
      <point x="930" y="1447" type="curve"/>
      <point x="857" y="1447" type="line"/>
      <point x="846" y="1373"/>
      <point x="807" y="1333"/>
      <point x="746" y="1333" type="curve" smooth="yes"/>
      <point x="696" y="1333"/>
      <point x="660" y="1359"/>
      <point x="622" y="1388" type="curve" smooth="yes"/>
      <point x="578" y="1421"/>
      <point x="530" y="1457"/>
      <point x="451" y="1457" type="curve" smooth="yes"/>
      <point x="340" y="1457"/>
      <point x="275" y="1386"/>
      <point x="263" y="1252" type="curve"/>
      <point x="337" y="1252" type="line"/>
      <point x="348" y="1326"/>
      <point x="390" y="1368"/>
      <point x="453" y="1368" type="curve" smooth="yes"/>
      <point x="504" y="1368"/>
      <point x="540" y="1341"/>
      <point x="578" y="1311" type="curve" smooth="yes"/>
      <point x="630" y="1270"/>
      <point x="673" y="1242"/>
      <point x="742" y="1242" type="curve" smooth="yes"/>
      <point x="851" y="1242"/>
      <point x="919" y="1316"/>
    </contour>
    <contour>
      <point x="599" y="-20" type="curve" smooth="yes"/>
      <point x="897" y="-20"/>
      <point x="1120" y="203"/>
      <point x="1120" y="500" type="curve" smooth="yes"/>
      <point x="1120" y="797"/>
      <point x="897" y="1020"/>
      <point x="599" y="1020" type="curve" smooth="yes"/>
      <point x="300" y="1020"/>
      <point x="75" y="797"/>
      <point x="75" y="500" type="curve" smooth="yes"/>
      <point x="75" y="203"/>
      <point x="300" y="-20"/>
    </contour>
    <contour>
      <point x="598" y="128" type="curve" smooth="yes"/>
      <point x="395" y="128"/>
      <point x="243" y="288"/>
      <point x="243" y="501" type="curve" smooth="yes"/>
      <point x="243" y="713"/>
      <point x="395" y="873"/>
      <point x="598" y="873" type="curve" smooth="yes"/>
      <point x="800" y="873"/>
      <point x="952" y="713"/>
      <point x="952" y="501" type="curve" smooth="yes"/>
      <point x="952" y="288"/>
      <point x="800" y="128"/>
    </contour>
  </outline>
</glyph>
<glyph name="divide" format="2">
  <advance width="1110"/>
  <unicode hex="00F7"/>
  <outline>
    <contour>
      <point x="554.922" y="780" type="curve" smooth="yes"/>
      <point x="611.569" y="780"/>
      <point x="655.5" y="822.775"/>
      <point x="655.5" y="879.422" type="curve" smooth="yes"/>
      <point x="655.5" y="934.913"/>
      <point x="611.569" y="980"/>
      <point x="554.922" y="980" type="curve" smooth="yes"/>
      <point x="498.275" y="980"/>
      <point x="455.5" y="934.913"/>
      <point x="455.5" y="879.422" type="curve" smooth="yes"/>
      <point x="455.5" y="822.775"/>
      <point x="498.275" y="780"/>
    </contour>
    <contour>
      <point x="955" y="416" type="line"/>
      <point x="955" y="544" type="line"/>
      <point x="155" y="544" type="line" name="dv02"/>
      <point x="155" y="416" type="line" name="dv01"/>
    </contour>
    <contour>
      <point x="554.925" y="-20" type="curve" smooth="yes"/>
      <point x="611.247" y="-20"/>
      <point x="654.925" y="23.678"/>
      <point x="654.925" y="80" type="curve" smooth="yes"/>
      <point x="654.925" y="135.172"/>
      <point x="611.247" y="180"/>
      <point x="554.925" y="180" type="curve" smooth="yes"/>
      <point x="498.603" y="180"/>
      <point x="456.075" y="135.172"/>
      <point x="456.075" y="80" type="curve" smooth="yes"/>
      <point x="456.075" y="23.678"/>
      <point x="498.603" y="-20"/>
    </contour>
  </outline>
</glyph>
<glyph name="oslash" format="1">
  <unicode hex="00F8"/>
  <advance width="1220"/>
  <outline>
    <contour>
      <point x="260" y="500" type="curve" smooth="yes" name="sh02"/>
      <point x="260" y="366"/>
      <point x="319" y="253"/>
      <point x="413" y="189" type="curve"/>
      <point x="691" y="861" type="line"/>
      <point x="665" y="867"/>
      <point x="638" y="870"/>
      <point x="610" y="870" type="curve" smooth="yes" name="sv01"/>
      <point x="408" y="870"/>
      <point x="260" y="713"/>
    </contour>
    <contour>
      <point x="533" y="138" type="line"/>
      <point x="558" y="133"/>
      <point x="583" y="130"/>
      <point x="610" y="130" type="curve" smooth="yes" name="dv02"/>
      <point x="812" y="130"/>
      <point x="960" y="287"/>
      <point x="960" y="500" type="curve" smooth="yes" name="ah01"/>
      <point x="960" y="633"/>
      <point x="903" y="743"/>
      <point x="811" y="808" type="curve"/>
    </contour>
    <contour>
      <point x="90" y="500" type="curve" smooth="yes" name="sh01"/>
      <point x="90" y="800"/>
      <point x="310" y="1020"/>
      <point x="610" y="1020" type="curve" smooth="yes" name="at01"/>
      <point x="659" y="1020"/>
      <point x="706" y="1014"/>
      <point x="750" y="1003" type="curve"/>
      <point x="794" y="1110" type="line"/>
      <point x="915" y="1060" type="line"/>
      <point x="872" y="955" type="line"/>
      <point x="1029" y="869"/>
      <point x="1130" y="703"/>
      <point x="1130" y="500" type="curve" smooth="yes" name="sh03"/>
      <point x="1130" y="200"/>
      <point x="910" y="-20"/>
      <point x="610" y="-20" type="curve" smooth="yes" name="dv01"/>
      <point x="563" y="-20"/>
      <point x="517" y="-15"/>
      <point x="475" y="-4" type="curve"/>
      <point x="425" y="-124" type="line"/>
      <point x="305" y="-73" type="line"/>
      <point x="353" y="42" type="line"/>
      <point x="192" y="128"/>
      <point x="90" y="295"/>
    </contour>
  </outline>
</glyph>
<glyph name="ucircumflex" format="1">
  <advance width="1226"/>
  <unicode hex="00FB"/>
  <outline>
    <contour>
      <point x="878" y="1166" type="line"/>
      <point x="665" y="1500" type="line" name="at01"/>
      <point x="520" y="1500" type="line" name="at01.1"/>
      <point x="307" y="1166" type="line"/>
      <point x="430" y="1166" type="line" name="av01"/>
      <point x="592" y="1429" type="line"/>
      <point x="755" y="1166" type="line" name="av01.1"/>
    </contour>
    <contour>
      <point x="1071" y="0" type="line"/>
      <point x="1071" y="1000" type="line"/>
      <point x="907" y="1000" type="line"/>
      <point x="907" y="462" type="line" smooth="yes"/>
      <point x="907" y="264"/>
      <point x="780" y="130"/>
      <point x="594" y="130" type="curve" smooth="yes"/>
      <point x="415" y="130"/>
      <point x="299" y="253"/>
      <point x="299" y="442" type="curve" smooth="yes"/>
      <point x="299" y="1000" type="line"/>
      <point x="135" y="1000" type="line"/>
      <point x="135" y="430" type="line" smooth="yes"/>
      <point x="135" y="151"/>
      <point x="300" y="-20"/>
      <point x="565" y="-20" type="curve" smooth="yes"/>
      <point x="728" y="-20"/>
      <point x="848" y="45"/>
      <point x="921" y="162" type="curve"/>
      <point x="927" y="0" type="line"/>
    </contour>
  </outline>
</glyph>
<glyph name="yacute" format="1">
  <advance width="1177"/>
  <unicode hex="00FD"/>
  <outline>
    <contour>
      <point x="625" y="1166" type="line"/>
      <point x="820" y="1500" type="line"/>
      <point x="663" y="1500" type="line"/>
      <point x="506" y="1166" type="line"/>
    </contour>
    <contour>
      <point x="502" y="-500" type="line"/>
      <point x="1122" y="1000" type="line"/>
      <point x="945" y="1000" type="line"/>
      <point x="612" y="197" type="line"/>
      <point x="236" y="1000" type="line"/>
      <point x="55" y="1000" type="line"/>
      <point x="534" y="8" type="line"/>
      <point x="324" y="-500" type="line"/>
    </contour>
  </outline>
</glyph>
<glyph name="thorn" format="1">
  <unicode hex="00FE"/>
  <advance width="1296"/>
  <outline>
    <contour>
      <point x="160" y="-500" type="line"/>
      <point x="325" y="-500" type="line" name="ab01"/>
      <point x="325" y="131" type="line"/>
      <point x="415" y="36"/>
      <point x="543" y="-20"/>
      <point x="691" y="-20" type="curve" smooth="yes" name="dv01"/>
      <point x="982" y="-20"/>
      <point x="1196" y="200"/>
      <point x="1196" y="500" type="curve" smooth="yes" name="dh03"/>
      <point x="1196" y="800"/>
      <point x="982" y="1020"/>
      <point x="691" y="1020" type="curve" smooth="yes" name="at02"/>
      <point x="543" y="1020"/>
      <point x="415" y="964"/>
      <point x="325" y="869" type="curve"/>
      <point x="325" y="1500" type="line" name="at01"/>
      <point x="160" y="1500" type="line" name="dh01"/>
    </contour>
    <contour>
      <point x="325" y="500" type="curve" smooth="yes" name="sh01"/>
      <point x="325" y="713"/>
      <point x="474" y="870"/>
      <point x="676" y="870" type="curve" smooth="yes" name="sv01"/>
      <point x="878" y="870"/>
      <point x="1026" y="713"/>
      <point x="1026" y="500" type="curve" smooth="yes" name="dh02"/>
      <point x="1026" y="287"/>
      <point x="878" y="130"/>
      <point x="676" y="130" type="curve" smooth="yes" name="dv02"/>
      <point x="474" y="130"/>
      <point x="325" y="287"/>
    </contour>
  </outline>
</glyph>
<glyph name="Aogonek" format="1">
  <advance width="1512"/>
  <unicode hex="0104"/>
  <outline>
    <contour>
      <point x="230" y="0" type="line"/>
      <point x="393" y="405" type="line"/>
      <point x="1119" y="405" type="line"/>
      <point x="1282" y="0" type="line"/>
      <point x="1365" y="0" type="line" name="ab01"/>
      <point x="1250" y="-51"/>
      <point x="1178" y="-143"/>
      <point x="1178" y="-238" type="curve" smooth="yes"/>
      <point x="1178" y="-339"/>
      <point x="1259" y="-416"/>
      <point x="1394" y="-416" type="curve" name="av01"/>
      <point x="1405" y="-326" type="line"/>
      <point x="1315" y="-320"/>
      <point x="1270" y="-269"/>
      <point x="1270" y="-206" type="curve" smooth="yes"/>
      <point x="1270" y="-131"/>
      <point x="1333" y="-43"/>
      <point x="1428" y="0" type="curve"/>
      <point x="1467" y="0" type="line"/>
      <point x="852" y="1500" type="line"/>
      <point x="661" y="1500" type="line"/>
      <point x="45" y="0" type="line"/>
    </contour>
    <contour>
      <point x="455" y="561" type="line"/>
      <point x="756" y="1310" type="line"/>
      <point x="1057" y="561" type="line"/>
    </contour>
  </outline>
</glyph>
<glyph name="ccircumflex" format="1">
  <advance width="1061"/>
  <unicode hex="0109"/>
  <outline>
    <contour>
      <point x="857" y="1166" type="line"/>
      <point x="644" y="1500" type="line" name="at01"/>
      <point x="499" y="1500" type="line" name="at01.1"/>
      <point x="286" y="1166" type="line"/>
      <point x="409" y="1166" type="line" name="av01"/>
      <point x="571" y="1429" type="line"/>
      <point x="734" y="1166" type="line" name="av01.1"/>
    </contour>
    <contour>
      <point x="986" y="144" type="curve"/>
      <point x="887" y="246" type="line"/>
      <point x="817" y="172"/>
      <point x="714" y="130"/>
      <point x="605" y="130" type="curve" smooth="yes"/>
      <point x="395" y="130"/>
      <point x="244" y="284"/>
      <point x="244" y="501" type="curve" smooth="yes"/>
      <point x="244" y="716"/>
      <point x="395" y="870"/>
      <point x="605" y="870" type="curve" smooth="yes"/>
      <point x="714" y="870"/>
      <point x="816" y="828"/>
      <point x="887" y="754" type="curve"/>
      <point x="985" y="857" type="line"/>
      <point x="888" y="962"/>
      <point x="750" y="1020"/>
      <point x="598" y="1020" type="curve" smooth="yes"/>
      <point x="299" y="1020"/>
      <point x="75" y="797"/>
      <point x="75" y="500" type="curve" smooth="yes"/>
      <point x="75" y="203"/>
      <point x="299" y="-20"/>
      <point x="598" y="-20" type="curve" smooth="yes"/>
      <point x="751" y="-20"/>
      <point x="889" y="38"/>
    </contour>
  </outline>
</glyph>
<glyph name="Dcaron" format="1">
  <advance width="1559"/>
  <unicode hex="010E"/>
  <outline>
    <contour>
      <point x="787" y="1666" type="line" name="at01"/>
      <point x="999" y="2000" type="line"/>
      <point x="877" y="2000" type="line" name="av01"/>
      <point x="714" y="1737" type="line"/>
      <point x="552" y="2000" type="line" name="av01.1"/>
      <point x="429" y="2000" type="line"/>
      <point x="641" y="1666" type="line" name="at01.1"/>
    </contour>
    <contour>
      <point x="155" y="0" type="line"/>
      <point x="588" y="0" type="line" smooth="yes"/>
      <point x="1139" y="0"/>
      <point x="1474" y="283"/>
      <point x="1474" y="750" type="curve" smooth="yes"/>
      <point x="1474" y="1217"/>
      <point x="1139" y="1500"/>
      <point x="588" y="1500" type="curve" smooth="yes"/>
      <point x="155" y="1500" type="line"/>
    </contour>
    <contour>
      <point x="331" y="156" type="line"/>
      <point x="331" y="1344" type="line"/>
      <point x="596" y="1344" type="line" smooth="yes"/>
      <point x="1038" y="1344"/>
      <point x="1294" y="1126"/>
      <point x="1294" y="750" type="curve" smooth="yes"/>
      <point x="1294" y="374"/>
      <point x="1038" y="156"/>
      <point x="596" y="156" type="curve" smooth="yes"/>
    </contour>
  </outline>
</glyph>
<glyph name="dcaron" format="2">
  <advance width="1653"/>
  <unicode hex="010F"/>
  <outline>
    <contour>
      <point x="1428" y="1070" type="line"/>
      <point x="1553" y="1520" type="line"/>
      <point x="1432" y="1520" type="line" name="av01"/>
      <point x="1331" y="1070" type="line"/>
    </contour>
    <component base="d"/>
  </outline>
</glyph>
<glyph name="Dcroat" format="1">
  <advance width="1603"/>
  <unicode hex="0110"/>
  <outline>
    <contour>
      <point x="200" y="0" type="line"/>
      <point x="632" y="0" type="line" smooth="yes"/>
      <point x="1183" y="0"/>
      <point x="1518" y="283"/>
      <point x="1518" y="750" type="curve" smooth="yes"/>
      <point x="1518" y="1217"/>
      <point x="1183" y="1500"/>
      <point x="632" y="1500" type="curve" smooth="yes"/>
      <point x="200" y="1500" type="line"/>
      <point x="200" y="812" type="line"/>
      <point x="25" y="812" type="line" name="dv02"/>
      <point x="25" y="683" type="line" name="dv01"/>
      <point x="200" y="683" type="line"/>
    </contour>
    <contour>
      <point x="825" y="683" type="line"/>
      <point x="825" y="812" type="line"/>
      <point x="376" y="812" type="line"/>
      <point x="376" y="1344" type="line"/>
      <point x="640" y="1344" type="line" smooth="yes"/>
      <point x="1082" y="1344"/>
      <point x="1338" y="1126"/>
      <point x="1338" y="750" type="curve" smooth="yes"/>
      <point x="1338" y="374"/>
      <point x="1082" y="156"/>
      <point x="640" y="156" type="curve" smooth="yes"/>
      <point x="376" y="156" type="line"/>
      <point x="376" y="683" type="line"/>
    </contour>
  </outline>
</glyph>
<glyph name="dcroat" format="1">
  <unicode hex="0111"/>
  <advance width="1400"/>
  <outline>
    <contour>
      <point x="605" y="-20" type="curve" smooth="yes" name="dv01"/>
      <point x="756" y="-20"/>
      <point x="887" y="40"/>
      <point x="977" y="139" type="curve"/>
      <point x="986" y="0" type="line"/>
      <point x="1135" y="0" type="line"/>
      <point x="1135" y="1180" type="line"/>
      <point x="1240" y="1180" type="line"/>
      <point x="1240" y="1300" type="line"/>
      <point x="1135" y="1300" type="line"/>
      <point x="1135" y="1500" type="line" name="at01"/>
      <point x="970" y="1500" type="line" name="ah01"/>
      <point x="970" y="1300" type="line"/>
      <point x="620" y="1300" type="line" name="dv04"/>
      <point x="620" y="1180" type="line" name="dv03"/>
      <point x="970" y="1180" type="line"/>
      <point x="970" y="869" type="line"/>
      <point x="880" y="964"/>
      <point x="752" y="1020"/>
      <point x="605" y="1020" type="curve" smooth="yes" name="at02"/>
      <point x="314" y="1020"/>
      <point x="100" y="800"/>
      <point x="100" y="500" type="curve" smooth="yes" name="sh01"/>
      <point x="100" y="200"/>
      <point x="314" y="-20"/>
    </contour>
    <contour>
      <point x="270" y="500" type="curve" smooth="yes" name="sh02"/>
      <point x="270" y="713"/>
      <point x="418" y="870"/>
      <point x="620" y="870" type="curve" smooth="yes" name="sv01"/>
      <point x="822" y="870"/>
      <point x="970" y="713"/>
      <point x="970" y="500" type="curve" smooth="yes" name="sh03"/>
      <point x="970" y="287"/>
      <point x="822" y="130"/>
      <point x="620" y="130" type="curve" smooth="yes" name="dv02"/>
      <point x="418" y="130"/>
      <point x="270" y="287"/>
    </contour>
  </outline>
</glyph>
<glyph name="Ebreve" format="1">
  <advance width="1229"/>
  <unicode hex="0114"/>
  <outline>
    <contour>
      <point x="929" y="2000" type="curve" name="at01"/>
      <point x="826" y="2000" type="line" name="ah01"/>
      <point x="826" y="1866"/>
      <point x="741" y="1773"/>
      <point x="620" y="1773" type="curve" smooth="yes"/>
      <point x="499" y="1773"/>
      <point x="413" y="1866"/>
      <point x="413" y="2000" type="curve" name="sh01"/>
      <point x="311" y="2000" type="line" name="at02"/>
      <point x="311" y="1818"/>
      <point x="440" y="1685"/>
      <point x="620" y="1685" type="curve" smooth="yes" name="av01"/>
      <point x="800" y="1685"/>
      <point x="929" y="1818"/>
    </contour>
    <contour>
      <point x="155" y="0" type="line"/>
      <point x="1084" y="0" type="line"/>
      <point x="1084" y="156" type="line"/>
      <point x="331" y="156" type="line"/>
      <point x="331" y="684" type="line"/>
      <point x="1033" y="684" type="line"/>
      <point x="1033" y="840" type="line"/>
      <point x="331" y="840" type="line"/>
      <point x="331" y="1344" type="line"/>
      <point x="1074" y="1344" type="line"/>
      <point x="1074" y="1500" type="line"/>
      <point x="155" y="1500" type="line"/>
    </contour>
  </outline>
</glyph>
<glyph name="Ecaron" format="1">
  <advance width="1229"/>
  <unicode hex="011A"/>
  <outline>
    <contour>
      <point x="706" y="1666" type="line" name="at01"/>
      <point x="918" y="2000" type="line"/>
      <point x="795" y="2000" type="line" name="av01"/>
      <point x="633" y="1737" type="line"/>
      <point x="471" y="2000" type="line" name="av01.1"/>
      <point x="348" y="2000" type="line"/>
      <point x="560" y="1666" type="line" name="at01.1"/>
    </contour>
    <contour>
      <point x="155" y="0" type="line"/>
      <point x="1084" y="0" type="line"/>
      <point x="1084" y="156" type="line"/>
      <point x="331" y="156" type="line"/>
      <point x="331" y="684" type="line"/>
      <point x="1033" y="684" type="line"/>
      <point x="1033" y="840" type="line"/>
      <point x="331" y="840" type="line"/>
      <point x="331" y="1344" type="line"/>
      <point x="1074" y="1344" type="line"/>
      <point x="1074" y="1500" type="line"/>
      <point x="155" y="1500" type="line"/>
    </contour>
  </outline>
</glyph>
<glyph name="hcircumflex" format="1">
  <advance width="1227"/>
  <unicode hex="0125"/>
  <outline>
    <contour>
      <point x="522" y="1666" type="line"/>
      <point x="310" y="2000" type="line" name="at01"/>
      <point x="164" y="2000" type="line" name="at01.1"/>
      <point x="-49" y="1666" type="line"/>
      <point x="74" y="1666" type="line" name="av01"/>
      <point x="237" y="1929" type="line"/>
      <point x="399" y="1666" type="line" name="av01.1"/>
    </contour>
    <contour>
      <point x="156" y="0" type="line"/>
      <point x="320" y="0" type="line"/>
      <point x="320" y="533" type="line" smooth="yes"/>
      <point x="320" y="744"/>
      <point x="436" y="873"/>
      <point x="627" y="873" type="curve" smooth="yes"/>
      <point x="816" y="873"/>
      <point x="928" y="747"/>
      <point x="928" y="533" type="curve" smooth="yes"/>
      <point x="928" y="0" type="line"/>
      <point x="1092" y="0" type="line"/>
      <point x="1092" y="571" type="line" smooth="yes"/>
      <point x="1092" y="853"/>
      <point x="935" y="1020"/>
      <point x="670" y="1020" type="curve" smooth="yes"/>
      <point x="513" y="1020"/>
      <point x="394" y="961"/>
      <point x="320" y="850" type="curve"/>
      <point x="320" y="1500" type="line"/>
      <point x="156" y="1500" type="line"/>
    </contour>
  </outline>
</glyph>
<glyph name="Hbar" format="2">
  <advance width="1530"/>
  <unicode hex="0126"/>
  <outline>
    <contour>
      <point x="1515" y="1108" type="line" name="av02"/>
      <point x="1515" y="1209" type="line"/>
      <point x="1359" y="1209" type="line"/>
      <point x="1359" y="1500" type="line"/>
      <point x="1183" y="1500" type="line"/>
      <point x="1183" y="1209" type="line"/>
      <point x="346" y="1209" type="line"/>
      <point x="346" y="1500" type="line"/>
      <point x="170" y="1500" type="line"/>
      <point x="170" y="1209" type="line"/>
      <point x="15" y="1209" type="line" name="av01"/>
      <point x="15" y="1108" type="line"/>
      <point x="170" y="1108" type="line"/>
      <point x="170" y="0" type="line"/>
      <point x="346" y="0" type="line"/>
      <point x="346" y="662" type="line"/>
      <point x="1183" y="662" type="line"/>
      <point x="1183" y="0" type="line"/>
      <point x="1359" y="0" type="line"/>
      <point x="1359" y="1108" type="line"/>
    </contour>
    <contour>
      <point x="346" y="818" type="line"/>
      <point x="346" y="1108" type="line"/>
      <point x="1183" y="1108" type="line"/>
      <point x="1183" y="818" type="line"/>
    </contour>
  </outline>
</glyph>
<glyph name="hbar" format="1">
  <advance width="1231"/>
  <unicode hex="0127"/>
  <outline>
    <contour>
      <point x="675" y="1194" type="line" name="av02"/>
      <point x="675" y="1295" type="line"/>
      <point x="324" y="1295" type="line"/>
      <point x="324" y="1500" type="line"/>
      <point x="160" y="1500" type="line"/>
      <point x="160" y="1295" type="line"/>
      <point x="15" y="1295" type="line" name="av01"/>
      <point x="15" y="1194" type="line"/>
      <point x="160" y="1194" type="line"/>
      <point x="160" y="0" type="line"/>
      <point x="324" y="0" type="line"/>
      <point x="324" y="533" type="line" smooth="yes"/>
      <point x="324" y="744"/>
      <point x="441" y="873"/>
      <point x="632" y="873" type="curve" smooth="yes"/>
      <point x="821" y="873"/>
      <point x="932" y="747"/>
      <point x="932" y="533" type="curve" smooth="yes"/>
      <point x="932" y="0" type="line"/>
      <point x="1096" y="0" type="line"/>
      <point x="1096" y="571" type="line" smooth="yes"/>
      <point x="1096" y="853"/>
      <point x="939" y="1020"/>
      <point x="674" y="1020" type="curve" smooth="yes"/>
      <point x="517" y="1020"/>
      <point x="398" y="961"/>
      <point x="324" y="850" type="curve"/>
      <point x="324" y="1194" type="line"/>
    </contour>
  </outline>
</glyph>
<glyph name="Itilde" format="1">
  <advance width="487"/>
  <unicode hex="0128"/>
  <outline>
    <contour>
      <point x="577" y="1947" type="line"/>
      <point x="566" y="1816"/>
      <point x="498" y="1742"/>
      <point x="389" y="1742" type="curve" smooth="yes"/>
      <point x="320" y="1742"/>
      <point x="277" y="1770"/>
      <point x="225" y="1811" type="curve" smooth="yes"/>
      <point x="187" y="1841"/>
      <point x="151" y="1868"/>
      <point x="100" y="1868" type="curve" smooth="yes"/>
      <point x="37" y="1868"/>
      <point x="-5" y="1826"/>
      <point x="-16" y="1752" type="curve"/>
      <point x="-90" y="1752" type="line"/>
      <point x="-78" y="1886"/>
      <point x="-13" y="1957"/>
      <point x="98" y="1957" type="curve" smooth="yes"/>
      <point x="177" y="1957"/>
      <point x="225" y="1921"/>
      <point x="269" y="1888" type="curve" smooth="yes"/>
      <point x="307" y="1859"/>
      <point x="343" y="1833"/>
      <point x="393" y="1833" type="curve" smooth="yes"/>
      <point x="454" y="1833"/>
      <point x="493" y="1873"/>
      <point x="504" y="1947" type="curve"/>
    </contour>
    <contour>
      <point x="331" y="1500" type="line" name="at01"/>
      <point x="331" y="0" type="line" name="ab01"/>
      <point x="155" y="0" type="line" name="dh01"/>
      <point x="155" y="1500" type="line"/>
    </contour>
  </outline>
</glyph>
<glyph name="Iogonek" format="1">
  <advance width="487"/>
  <unicode hex="012E"/>
  <outline>
    <contour>
      <point x="332" y="1500" type="line" name="at01"/>
      <point x="332" y="0" type="line" name="ab01"/>
      <point x="315" y="0" type="line"/>
      <point x="220" y="-43"/>
      <point x="157" y="-131"/>
      <point x="157" y="-206" type="curve" smooth="yes"/>
      <point x="157" y="-269"/>
      <point x="202" y="-320"/>
      <point x="292" y="-326" type="curve"/>
      <point x="281" y="-416" type="line" name="av01"/>
      <point x="146" y="-416"/>
      <point x="65" y="-339"/>
      <point x="65" y="-238" type="curve" smooth="yes"/>
      <point x="65" y="-143"/>
      <point x="136" y="-51"/>
      <point x="251" y="0" type="curve" name="ab01.1"/>
      <point x="156" y="0" type="line" name="dh01"/>
      <point x="156" y="1500" type="line"/>
    </contour>
  </outline>
</glyph>
<glyph name="iogonek" format="1">
  <advance width="483"/>
  <unicode hex="012F"/>
  <outline>
    <contour>
      <point x="240.95" y="1316" type="curve" smooth="yes"/>
      <point x="297.8" y="1316"/>
      <point x="341.5" y="1360.8"/>
      <point x="341.5" y="1416.55" type="curve" smooth="yes"/>
      <point x="341.5" y="1472.3"/>
      <point x="297.8" y="1516"/>
      <point x="240.95" y="1516" type="curve" smooth="yes"/>
      <point x="185.2" y="1516"/>
      <point x="141.5" y="1472.3"/>
      <point x="141.5" y="1416.55" type="curve" smooth="yes"/>
      <point x="141.5" y="1360.8"/>
      <point x="185.2" y="1316"/>
    </contour>
    <contour>
      <point x="323" y="0" type="line"/>
      <point x="323" y="1000" type="line"/>
      <point x="159" y="1000" type="line"/>
      <point x="159" y="0" type="line"/>
      <point x="227.765" y="0" type="line" name="ab01"/>
      <point x="113.175" y="-50.9009"/>
      <point x="42" y="-142.544"/>
      <point x="42" y="-238" type="curve" smooth="yes"/>
      <point x="42" y="-339"/>
      <point x="123" y="-416"/>
      <point x="258" y="-416" type="curve" name="av01"/>
      <point x="268" y="-326" type="line"/>
      <point x="178" y="-320"/>
      <point x="133" y="-269"/>
      <point x="133" y="-206" type="curve" smooth="yes"/>
      <point x="133" y="-130.444"/>
      <point x="196.805" y="-42.6907"/>
      <point x="291.695" y="0" type="curve"/>
    </contour>
  </outline>
</glyph>
<glyph name="dotlessi" format="1">
  <unicode hex="0131"/>
  <advance width="485"/>
  <outline>
    <contour>
      <point x="160" y="0" type="line" name="ab01"/>
      <point x="325" y="0" type="line" name="dh01"/>
      <point x="325" y="1000" type="line" name="at01"/>
      <point x="160" y="1000" type="line"/>
    </contour>
  </outline>
</glyph>
<glyph name="idotless" format="2">
  <advance width="475"/>
  <unicode hex="0131"/>
  <anchor x="238" y="0" name="bottom"/>
  <anchor x="301" y="0" name="ogonek"/>
  <anchor x="238" y="1000" name="top"/>
  <outline>
    <contour>
      <point x="320" y="0" type="line"/>
      <point x="320" y="1000" type="line"/>
      <point x="155" y="1000" type="line"/>
      <point x="155" y="0" type="line"/>
    </contour>
  </outline>
</glyph>
<glyph name="IJ" format="1">
  <advance width="961"/>
  <unicode hex="0132"/>
  <outline>
    <contour>
      <point x="331" y="1500" type="line" name="at01"/>
      <point x="331" y="0" type="line" name="ab01"/>
      <point x="155" y="0" type="line" name="dh01"/>
      <point x="155" y="1500" type="line"/>
    </contour>
    <contour>
      <point x="276" y="-383" type="curve"/>
      <point x="269" y="-228" type="line"/>
      <point x="510" y="-228"/>
      <point x="630" y="-110"/>
      <point x="630" y="124" type="curve" smooth="yes"/>
      <point x="630" y="1500" type="line"/>
      <point x="806" y="1500" type="line"/>
      <point x="806" y="132" type="line" smooth="yes"/>
      <point x="806" y="-226"/>
      <point x="645" y="-383"/>
    </contour>
  </outline>
</glyph>
<glyph name="Jcircumflex" format="1">
  <advance width="498"/>
  <unicode hex="0134"/>
  <outline>
    <contour>
      <point x="543" y="1666" type="line"/>
      <point x="330" y="2000" type="line" name="at01"/>
      <point x="184" y="2000" type="line" name="at01.1"/>
      <point x="-28" y="1666" type="line"/>
      <point x="94" y="1666" type="line" name="av01"/>
      <point x="257" y="1929" type="line"/>
      <point x="420" y="1666" type="line" name="av01.1"/>
    </contour>
    <contour>
      <point x="-187" y="-383" type="line"/>
      <point x="182" y="-383"/>
      <point x="343" y="-226"/>
      <point x="343" y="132" type="curve" smooth="yes"/>
      <point x="343" y="1500" type="line"/>
      <point x="167" y="1500" type="line"/>
      <point x="167" y="124" type="line" smooth="yes"/>
      <point x="167" y="-110"/>
      <point x="46" y="-228"/>
      <point x="-195" y="-228" type="curve"/>
    </contour>
  </outline>
</glyph>
